<?xml version="1.0" standalone="no"?>
<!DOCTYPE svg PUBLIC "-//W3C//DTD SVG 1.1//EN" "http://www.w3.org/Graphics/SVG/1.1/DTD/svg11.dtd" >
<svg xmlns="http://www.w3.org/2000/svg" xmlns:xlink="http://www.w3.org/1999/xlink" version="1.1">
<metadata>
Created by FontForge 20161003 at Tue Nov 28 15:02:40 2017
 By www-data
Copyright 1989, 1995 Adobe Systems Incorporated. Copyright 2007 Linotype GmbH. All rights reserved.
</metadata>
<defs>
<font id="VAGRoundedLight" horiz-adv-x="418" >
  <font-face 
    font-family="VAGRoundedLight"
    font-weight="400"
    font-stretch="normal"
    units-per-em="2048"
    panose-1="2 11 4 2 0 0 0 0 0 4"
    ascent="1638"
    descent="-410"
    x-height="1090"
    cap-height="1458"
    bbox="-244 -600 2144 1930"
    underline-thickness="102"
    underline-position="-307"
    unicode-range="U+0020-FB02"
  />
<missing-glyph horiz-adv-x="2048" 
d="M256 0v1536h1536v-1536h-1536zM384 128h1280v1280h-1280v-1280z" />
    <glyph glyph-name=".notdef" horiz-adv-x="2048" 
d="M256 0v1536h1536v-1536h-1536zM384 128h1280v1280h-1280v-1280z" />
    <glyph glyph-name=".null" horiz-adv-x="0" 
 />
    <glyph glyph-name="nonmarkingreturn" horiz-adv-x="512" 
 />
    <glyph glyph-name="space" unicode=" " horiz-adv-x="512" 
 />
    <glyph glyph-name="exclam" unicode="!" horiz-adv-x="606" 
d="M213 487v887q0 45 24.5 70.5t65.5 25.5q42 0 66 -25.5t24 -70.5v-887q0 -44 -24 -70t-66 -26q-41 0 -65.5 26t-24.5 70zM303 -12q-43 0 -73.5 30.5t-30.5 73.5t30.5 74t73.5 31t74 -31t31 -74t-31 -73.5t-74 -30.5z" />
    <glyph glyph-name="quotedbl" unicode="&#x22;" horiz-adv-x="684" 
d="M403 1104v278q0 88 84 88t84 -88v-278q0 -88 -84 -88t-84 88zM113 1104v278q0 88 84 88t84 -88v-278q0 -88 -84 -88t-84 88z" />
    <glyph glyph-name="numbersign" unicode="#" horiz-adv-x="1098" 
d="M780 442l-54 -387q-5 -38 -23.5 -52.5t-53.5 -14.5q-69 0 -69 69q0 12 51 385h-244l-54 -387q-6 -38 -24 -52.5t-53 -14.5q-70 0 -70 69q0 12 52 385h-125q-84 0 -84 68t84 68h143l43 303h-125q-84 0 -84 67q0 68 84 68h143l55 387q5 39 23.5 53t53.5 14q69 0 69 -69
q0 -11 -51 -385h244l54 387q5 39 23.5 53t53.5 14q69 0 69 -69q0 -11 -51 -385h125q84 0 84 -68q0 -67 -84 -67h-143l-43 -303h125q84 0 84 -68t-84 -68h-144zM649 578l43 303h-243l-43 -303h243z" />
    <glyph glyph-name="dollar" unicode="$" horiz-adv-x="985" 
d="M446 143v568q-237 75 -313 164.5t-76 220.5q0 129 106 242.5t283 131.5v97q0 43 43 43t43 -43v-97q138 -11 226 -60.5t88 -109.5q0 -32 -22.5 -55.5t-55.5 -23.5t-85 33q-78 51 -151 61v-449q238 -78 324 -175t86 -242q0 -172 -108.5 -299.5t-301.5 -153.5v-105
q0 -43 -43 -43t-43 43v97q-156 0 -279.5 58.5t-123.5 123.5q0 36 19.5 61t52.5 25q29 0 95 -38q80 -48 133.5 -61.5t102.5 -13.5zM446 899v416q-90 -12 -143 -69t-53 -138q0 -71 45.5 -120t150.5 -89zM532 680v-526q104 22 161 99.5t57 186.5q0 83 -50.5 140t-167.5 100z
" />
    <glyph glyph-name="percent" unicode="%" horiz-adv-x="1518" 
d="M428 119l545 1306q26 62 71 62q33 0 52.5 -17t19.5 -38q0 -24 -29 -93l-544 -1306q-27 -62 -76 -62q-31 0 -49.5 16.5t-18.5 39.5t29 92zM709 1124q0 -149 -85 -247.5t-227 -98.5t-226.5 98.5t-84.5 247.5q0 150 84.5 248t226.5 98t227 -98t85 -248zM221 1124
q0 -102 46 -168.5t130 -66.5t130 66.5t46 168.5q0 103 -46 169.5t-130 66.5t-130 -66.5t-46 -169.5zM1432 334q0 -150 -85 -248t-227 -98t-226.5 98t-84.5 248q0 149 84.5 247.5t226.5 98.5t227 -98.5t85 -247.5zM944 334q0 -103 46 -169.5t130 -66.5t130 66.5t46 169.5
t-46 169t-130 66t-130 -66t-46 -169z" />
    <glyph glyph-name="ampersand" unicode="&#x26;" horiz-adv-x="1366" 
d="M651 854l326 -385q140 188 174 229t41 41q34 0 55 -16.5t21 -44.5q0 -100 -191 -328q188 -222 201.5 -240t13.5 -49t-21 -52t-52 -21q-43 0 -67 28l-179 207q-188 -235 -451 -235q-190 0 -319 117.5t-129 306.5q0 156 69 261t256 216q-161 165 -161 285q0 152 98 224
t258 72q132 0 225.5 -74.5t93.5 -183.5q0 -216 -262 -358zM418 1178q0 -64 135 -211q192 110 192 215q0 69 -49 107t-116 38q-73 0 -117.5 -40t-44.5 -109zM500 772q-123 -69 -184.5 -147t-61.5 -193q0 -124 75.5 -200t209.5 -76q100 0 177 45t156 141z" />
    <glyph glyph-name="quotesingle" unicode="'" 
d="M125 1104v278q0 88 84 88t84 -88v-278q0 -88 -84 -88t-84 88z" />
    <glyph glyph-name="parenleft" unicode="(" horiz-adv-x="494" 
d="M342 -205q-45 0 -73 52.5t-61.5 180t-54 290.5t-20.5 333q0 172 20.5 336.5t55.5 293t62 177.5t71 49q34 0 53 -16.5t19 -42.5q0 -18 -29 -109q-84 -264 -84 -688q0 -221 21 -388t56.5 -279t35.5 -129q0 -26 -19 -43t-53 -17z" />
    <glyph glyph-name="parenright" unicode=")" horiz-adv-x="494" 
d="M152 1507q45 0 72.5 -52.5t61.5 -180t54 -290t20 -333.5q0 -172 -20.5 -336.5t-55 -292.5t-62 -177.5t-70.5 -49.5q-34 0 -53 17t-19 43q0 18 29 108q84 265 84 688q0 221 -21.5 388.5t-56.5 279t-35 129.5q0 25 18.5 42t53.5 17z" />
    <glyph glyph-name="asterisk" unicode="*" horiz-adv-x="799" 
d="M307 1108q-171 71 -200 84.5t-29 56.5q0 28 20.5 49t51.5 21q13 0 198 -133q0 39 -12 121q-10 66 -10 92q0 31 20 51t53 20q34 0 54 -20t20 -51q0 -26 -10 -92q-12 -82 -12 -121q185 133 198 133q30 0 51 -21t21 -49q0 -23 -8.5 -37.5t-68.5 -39.5l-152 -64
q171 -71 200 -84.5t29 -56.5q0 -29 -21 -49.5t-51 -20.5q-13 0 -198 133q0 -39 12 -121q10 -66 10 -92q0 -31 -20 -51.5t-54 -20.5q-33 0 -53 20.5t-20 51.5q0 26 10 92q12 82 12 121q-185 -133 -198 -133q-30 0 -51 20.5t-21 49.5q0 46 47 65z" />
    <glyph glyph-name="plus" unicode="+" horiz-adv-x="1229" 
d="M530 602v346q0 88 84 88t84 -88v-346h346q89 0 89 -84t-89 -84h-346v-346q0 -88 -84 -88t-84 88v346h-346q-88 0 -88 84t88 84h346z" />
    <glyph glyph-name="comma" unicode="," horiz-adv-x="512" 
d="M45 -180q0 31 41 112l78 152q36 72 57.5 92.5t57.5 20.5q33 0 57 -23t24 -55t-40 -112l-78 -153q-37 -72 -58 -92t-57 -20q-33 0 -57.5 22.5t-24.5 55.5z" />
    <glyph glyph-name="hyphen" unicode="-" horiz-adv-x="721" 
d="M571 471h-421q-33 0 -55.5 23t-22.5 55t22.5 55t55.5 23h421q32 0 55 -23t23 -55t-22.5 -55t-55.5 -23z" />
    <glyph glyph-name="period" unicode="." horiz-adv-x="512" 
d="M256 -12q-43 0 -73.5 30.5t-30.5 73.5t30.5 74t73.5 31t73.5 -31t30.5 -74t-30.5 -73.5t-73.5 -30.5z" />
    <glyph glyph-name="slash" unicode="/" horiz-adv-x="834" 
d="M70 154l559 1255q27 61 84 61q36 0 58 -20.5t22 -54.5q0 -26 -29 -90l-559 -1256q-27 -61 -84 -61q-36 0 -58 20.5t-22 54.5q0 26 29 91z" />
    <glyph glyph-name="zero" unicode="0" horiz-adv-x="1098" 
d="M549 -12q-208 0 -344.5 202t-136.5 539t136.5 539t344.5 202t344.5 -202t136.5 -539t-136.5 -539t-344.5 -202zM549 1315q-132 0 -210.5 -152t-78.5 -434q0 -291 80.5 -438.5t208.5 -147.5q132 0 210.5 152t78.5 434q0 291 -80.5 438.5t-208.5 147.5z" />
    <glyph glyph-name="one" unicode="1" horiz-adv-x="721" 
d="M336 84v1219h-189q-32 0 -54.5 22.5t-22.5 54.5t22.5 55t54.5 23h314q38 0 46.5 -13t8.5 -36v-1325q0 -45 -24 -70.5t-66 -25.5q-41 0 -65.5 26t-24.5 70z" />
    <glyph glyph-name="two" unicode="2" horiz-adv-x="1098" 
d="M373 156h553q32 0 55 -23t23 -55t-23 -55t-55 -23h-707q-47 0 -72.5 21.5t-25.5 52.5q0 30 39 82l504 673q106 144 106 258q0 99 -66 163.5t-165 64.5q-123 0 -195 -91.5t-72 -238.5q0 -82 -79 -82q-89 0 -89 111q0 195 127.5 325.5t337.5 130.5q172 0 283 -106.5
t111 -255.5q0 -102 -27 -170.5t-74 -130.5z" />
    <glyph glyph-name="three" unicode="3" horiz-adv-x="1098" 
d="M725 784q120 -36 185 -131t65 -223q0 -199 -131 -320.5t-334 -121.5q-194 0 -310 112t-116 224q0 46 21.5 73t54.5 27q70 0 100 -94q62 -187 246 -187q119 0 197.5 78.5t78.5 192.5q0 272 -254 272q-110 0 -110 78q0 58 94 78q108 24 156.5 79t48.5 156q0 106 -57.5 172
t-149.5 66q-187 0 -207 -213q-6 -84 -86 -84q-37 0 -59.5 23.5t-22.5 60.5q0 153 104.5 260.5t278.5 107.5q167 0 273 -108t106 -268q0 -95 -44.5 -177t-127.5 -133z" />
    <glyph glyph-name="four" unicode="4" horiz-adv-x="1098" 
d="M684 375h-582q-77 0 -77 63q0 31 45 105l516 846q49 81 141 81q137 0 137 -149v-791h92q33 0 55.5 -22.5t22.5 -54.5t-22.5 -55t-55.5 -23h-92v-291q0 -45 -24 -70.5t-66 -25.5q-41 0 -65.5 26t-24.5 70v291zM250 530h434v748h-4z" />
    <glyph glyph-name="five" unicode="5" horiz-adv-x="1098" 
d="M467 1303l-59 -396q78 41 192 41q161 0 267 -130.5t106 -311.5q0 -238 -128 -378t-345 -140q-166 0 -288 83t-122 158q0 33 18 55.5t48 22.5q27 0 87 -48q82 -65 141.5 -84t117.5 -19q123 0 200.5 90t77.5 225q0 144 -65.5 226.5t-186.5 82.5q-82 0 -180 -37
q-48 -18 -67 -18q-62 0 -62 55q0 25 25 195l46 309q21 139 26.5 151t20 17.5t40.5 5.5h506q32 0 55 -23t23 -55t-23 -54.5t-55 -22.5h-416z" />
    <glyph glyph-name="six" unicode="6" horiz-adv-x="1098" 
d="M387 885h4q111 57 232 57q165 0 266.5 -136.5t101.5 -342.5q0 -200 -128 -337.5t-318 -137.5q-189 0 -314 142t-125 359q0 166 54 318t140 278t188 228t142.5 129.5t67.5 27.5q26 0 50 -23.5t24 -60.5q0 -33 -72 -96q-184 -165 -313 -405zM543 786q-121 0 -188.5 -86.5
t-67.5 -228.5q0 -143 67.5 -229t188.5 -86t188.5 86t67.5 229q0 315 -256 315z" />
    <glyph glyph-name="seven" unicode="7" horiz-adv-x="1024" 
d="M750 1303h-615q-32 0 -55 22.5t-23 54.5t23 55t55 23h739q93 0 93 -57q0 -30 -35 -109l-545 -1239q-28 -65 -108 -65q-24 0 -46 19.5t-22 49.5q0 32 29 97l510 1144v5z" />
    <glyph glyph-name="eight" unicode="8" horiz-adv-x="1098" 
d="M367 813q-102 62 -146.5 136t-44.5 188q0 151 108.5 242t264.5 91t264.5 -91t108.5 -242q0 -114 -45 -188t-146 -136q124 -30 194 -131t70 -233q0 -193 -123.5 -327t-322.5 -134t-323 134t-124 327q0 132 70 233t195 131zM549 1315q-93 0 -149 -59t-56 -154
q0 -97 55.5 -156t149.5 -59q93 0 149 59t56 156q0 95 -56 154t-149 59zM549 731q-116 0 -185 -83.5t-69 -207.5q0 -136 74 -216.5t180 -80.5q108 0 181 82t73 215q0 124 -69.5 207.5t-184.5 83.5z" />
    <glyph glyph-name="nine" unicode="9" horiz-adv-x="1098" 
d="M711 573h-4q-112 -57 -232 -57q-166 0 -267.5 136.5t-101.5 342.5q0 200 128.5 337.5t318.5 137.5q189 0 313.5 -141.5t124.5 -359.5q0 -166 -54 -318t-140 -277.5t-187.5 -228t-142.5 -130t-68 -27.5q-26 0 -49.5 23.5t-23.5 60.5q0 33 71 96q185 165 314 405zM555 672
q121 0 188.5 86.5t67.5 228.5q0 143 -67.5 229.5t-188.5 86.5t-188.5 -86.5t-67.5 -229.5q0 -315 256 -315z" />
    <glyph glyph-name="colon" unicode=":" horiz-adv-x="512" 
d="M256 676q-43 0 -73.5 30.5t-30.5 73.5t30.5 74t73.5 31t73.5 -31t30.5 -74t-30.5 -73.5t-73.5 -30.5zM256 -12q-43 0 -73.5 30.5t-30.5 73.5t30.5 74t73.5 31t73.5 -31t30.5 -74t-30.5 -73.5t-73.5 -30.5z" />
    <glyph glyph-name="semicolon" unicode=";" horiz-adv-x="512" 
d="M256 676q-43 0 -73.5 30.5t-30.5 73.5t30.5 74t73.5 31t73.5 -31t30.5 -74t-30.5 -73.5t-73.5 -30.5zM45 -180q0 31 41 112l78 152q36 72 57.5 92.5t57.5 20.5q33 0 57 -23t24 -55t-40 -112l-78 -153q-37 -72 -58 -92t-57 -20q-33 0 -57.5 22.5t-24.5 55.5z" />
    <glyph glyph-name="less" unicode="&#x3c;" horiz-adv-x="1229" 
d="M307 518l762 -377q66 -35 66 -78q0 -31 -20.5 -53t-47.5 -22t-100 37l-799 399q-74 37 -74 94t74 94l799 400q77 37 100 37q27 0 47.5 -22.5t20.5 -53.5q0 -46 -66 -78z" />
    <glyph glyph-name="equal" unicode="=" horiz-adv-x="1229" 
d="M1044 647h-860q-88 0 -88 84t88 84h860q89 0 89 -84t-89 -84zM1044 221h-860q-88 0 -88 84t88 84h860q89 0 89 -84t-89 -84z" />
    <glyph glyph-name="greater" unicode="&#x3e;" horiz-adv-x="1229" 
d="M160 141l762 377l-762 377q-66 35 -66 78q0 31 20.5 53.5t47.5 22.5q26 0 100 -37l799 -400q74 -37 74 -94t-74 -94l-799 -399q-77 -37 -100 -37q-27 0 -47.5 22t-20.5 53q0 46 66 78z" />
    <glyph glyph-name="question" unicode="?" horiz-adv-x="909" 
d="M528 692v-205q0 -44 -24 -70t-66 -26q-41 0 -65.5 26t-24.5 70v232q0 73 21 94.5t123 42.5q188 38 188 221q0 102 -66 164t-172 62q-179 0 -237 -168q-24 -68 -80 -68q-36 0 -62 25.5t-26 64.5q0 122 120.5 217.5t278.5 95.5q187 0 311.5 -107.5t124.5 -268.5
q0 -156 -89 -261t-255 -141zM438 -12q-43 0 -73.5 30.5t-30.5 73.5t30.5 74t73.5 31t74 -31t31 -74t-31 -73.5t-74 -30.5z" />
    <glyph glyph-name="at" unicode="@" horiz-adv-x="1638" 
d="M1067 989q30 91 36.5 106.5t24.5 25t48 9.5q65 0 65 -45q0 -35 -80 -293.5t-80 -302.5q0 -59 58 -59q98 0 184 124.5t86 281.5q0 222 -162.5 360.5t-398.5 138.5q-262 0 -440.5 -175.5t-178.5 -430.5q0 -263 181.5 -434.5t455.5 -171.5q96 0 194 29t222 128q85 68 127 68
q22 0 36.5 -13t14.5 -34q0 -86 -205 -199.5t-403 -113.5q-325 0 -551.5 215.5t-226.5 525.5q0 308 227.5 524.5t546.5 216.5q300 0 508.5 -174t208.5 -436q0 -256 -165 -412.5t-343 -156.5q-123 0 -144 117h-4q-109 -117 -235 -117q-130 0 -219.5 94t-89.5 227
q0 209 134 370t328 161q166 0 240 -154zM838 987q-130 0 -211.5 -109.5t-81.5 -246.5q0 -80 48.5 -132.5t119.5 -52.5q126 0 202 132t76 262q0 147 -153 147z" />
    <glyph glyph-name="A" unicode="A" horiz-adv-x="1253" 
d="M289 317l-95 -263q-11 -32 -33 -49t-55 -17q-37 0 -61.5 21t-24.5 54q0 25 25 91l453 1206q42 110 129 110t129 -110l452 -1206q25 -74 25 -91q0 -34 -25 -54.5t-61 -20.5q-33 0 -54.5 16t-37.5 62l-90 251h-676zM909 473l-280 789h-4l-281 -789h565z" />
    <glyph glyph-name="B" unicode="B" horiz-adv-x="1100" 
d="M119 98v1262q0 98 96 98h317q177 0 285.5 -104t108.5 -244q0 -115 -54.5 -202t-148.5 -117v-5q140 -16 227.5 -119.5t87.5 -240.5q0 -184 -130 -305t-347 -121h-346q-96 0 -96 98zM299 1303v-461h205q110 0 175.5 65.5t65.5 169.5q0 105 -61.5 165.5t-173.5 60.5h-211z
M299 694v-538h254q134 0 219.5 75.5t85.5 194.5q0 117 -81 192.5t-216 75.5h-262z" />
    <glyph glyph-name="C" unicode="C" horiz-adv-x="1214" 
d="M713 1315q-213 0 -335 -168t-122 -418q0 -246 120.5 -416t325.5 -170q62 0 129 17t165 74q70 40 98 40q32 0 51.5 -22.5t19.5 -61.5q0 -72 -139 -137t-324 -65q-289 0 -464 213t-175 528q0 317 177 529t473 212q175 0 298.5 -74t123.5 -139q0 -36 -21 -61t-53 -25
q-31 0 -87 46q-77 62 -139 80t-122 18z" />
    <glyph glyph-name="D" unicode="D" horiz-adv-x="1290" 
d="M129 98v1262q0 98 96 98h355q299 0 473 -201.5t174 -519.5q0 -335 -169 -536t-454 -201h-379q-96 0 -96 98zM309 1303v-1147h258q224 0 345.5 158.5t121.5 422.5q0 260 -124.5 413t-354.5 153h-246z" />
    <glyph glyph-name="E" unicode="E" horiz-adv-x="909" 
d="M299 645v-477h434q88 0 88 -84t-88 -84h-518q-96 0 -96 98v1262q0 98 96 98h518q88 0 88 -84t-88 -84h-434v-477h395q88 0 88 -84t-88 -84h-395z" />
    <glyph glyph-name="F" unicode="F" horiz-adv-x="834" 
d="M299 645v-561q0 -44 -24.5 -70t-65.5 -26q-42 0 -66 26t-24 70v1276q0 98 96 98h512q88 0 88 -84t-88 -84h-428v-477h379q88 0 88 -84t-88 -84h-379z" />
    <glyph glyph-name="G" unicode="G" horiz-adv-x="1366" 
d="M1145 668h-254q-88 0 -88 84t88 84h303q74 0 102.5 -34t28.5 -114q0 -343 -157 -521.5t-466 -178.5q-288 0 -463.5 213.5t-175.5 527.5q0 322 178.5 531.5t487.5 209.5q205 0 352.5 -82.5t147.5 -150.5q0 -36 -24.5 -61t-61.5 -25q-34 0 -104 51q-99 71 -174.5 92
t-147.5 21q-215 0 -338 -167.5t-123 -418.5q0 -254 124 -420t345 -166q189 0 304.5 133t115.5 306v86z" />
    <glyph glyph-name="H" unicode="H" horiz-adv-x="1366" 
d="M299 653v-557q0 -108 -90 -108t-90 108v1266q0 108 90 108t90 -108v-553h768v553q0 108 90 108t90 -108v-1266q0 -108 -90 -108t-90 108v557h-768z" />
    <glyph glyph-name="I" unicode="I" 
d="M299 1374v-1290q0 -44 -24.5 -70t-65.5 -26q-42 0 -66 26t-24 70v1290q0 45 24 70.5t66 25.5q41 0 65.5 -25.5t24.5 -70.5z" />
    <glyph glyph-name="J" unicode="J" horiz-adv-x="758" 
d="M459 352v1022q0 45 24 70.5t66 25.5q41 0 65.5 -25.5t24.5 -70.5v-1003q0 -383 -354 -383q-96 0 -197.5 47.5t-101.5 116.5q0 33 19.5 54t51.5 21q35 0 79 -32q73 -52 163 -52q160 0 160 209z" />
    <glyph glyph-name="K" unicode="K" horiz-adv-x="1176" 
d="M299 694v-610q0 -44 -24.5 -70t-65.5 -26q-42 0 -66 26t-24 70v1290q0 45 24 70.5t66 25.5q41 0 65.5 -25.5t24.5 -70.5v-532l625 571q61 57 98 57q34 0 56 -21.5t22 -55.5q0 -49 -37 -82l-598 -539l653 -631q37 -34 37 -73q0 -33 -25.5 -56.5t-62.5 -23.5q-48 0 -88 39z
" />
    <glyph glyph-name="L" unicode="L" horiz-adv-x="797" 
d="M299 1374v-1206h385q88 0 88 -84t-88 -84h-469q-96 0 -96 98v1276q0 45 24 70.5t66 25.5q41 0 65.5 -25.5t24.5 -70.5z" />
    <glyph glyph-name="M" unicode="M" horiz-adv-x="1708" 
d="M410 1237l-170 -1171q-10 -78 -97 -78q-84 0 -84 92q0 21 11 82l198 1171q22 137 142 137q103 0 131 -94l311 -1067h4l311 1067q29 94 131 94q118 0 142 -137l198 -1171q11 -58 11 -82q0 -92 -84 -92q-85 0 -97 78l-170 1171h-4l-348 -1176q-23 -73 -92 -73q-70 0 -92 73
l-348 1176h-4z" />
    <glyph glyph-name="N" unicode="N" horiz-adv-x="1368" 
d="M299 1141v-1057q0 -44 -24.5 -70t-65.5 -26q-42 0 -66 26t-24 70v1280q0 106 82 106q38 0 62.5 -18.5t64.5 -75.5l737 -1059h4v1057q0 45 24.5 70.5t65.5 25.5q42 0 66 -25.5t24 -70.5v-1280q0 -106 -82 -106q-38 0 -62.5 18.5t-64.5 75.5l-737 1059h-4z" />
    <glyph glyph-name="O" unicode="O" horiz-adv-x="1405" 
d="M702 -12q-286 0 -462.5 214.5t-176.5 526.5t176.5 526.5t462.5 214.5q287 0 463 -214.5t176 -526.5t-176 -526.5t-463 -214.5zM702 1315q-212 0 -329 -164.5t-117 -421.5t117 -421.5t329 -164.5t329.5 164.5t117.5 421.5t-117.5 421.5t-329.5 164.5z" />
    <glyph glyph-name="P" unicode="P" horiz-adv-x="1063" 
d="M299 545v-461q0 -44 -24.5 -70t-65.5 -26q-42 0 -66 26t-24 70v1276q0 98 96 98h356q211 0 342 -130.5t131 -328.5q0 -190 -134.5 -322t-331.5 -132h-279zM299 1303v-603h266q130 0 214.5 86t84.5 213q0 133 -80.5 218.5t-226.5 85.5h-258z" />
    <glyph glyph-name="Q" unicode="Q" horiz-adv-x="1403" 
d="M1214 268q158 -155 172.5 -172.5t14.5 -48.5q0 -30 -22 -53t-56 -23q-36 0 -64 28l-149 146q-165 -157 -408 -157q-286 0 -462.5 214.5t-176.5 526.5t176.5 526.5t462.5 214.5q287 0 463 -214.5t176 -526.5q0 -261 -127 -461zM993 260q-128 127 -142.5 143.5t-14.5 42.5
q0 35 22.5 58.5t56.5 23.5t60 -24l108 -107q66 145 66 332q0 257 -117.5 421.5t-329.5 164.5t-329 -164.5t-117 -421.5t117 -421.5t329 -164.5q178 0 291 117z" />
    <glyph glyph-name="R" unicode="R" horiz-adv-x="1063" 
d="M299 639v-555q0 -44 -24.5 -70t-65.5 -26q-42 0 -66 26t-24 70v1276q0 98 96 98h334q182 0 314 -112.5t132 -280.5q0 -116 -35.5 -198.5t-98.5 -131.5t-132.5 -65.5t-208.5 -20.5l299 -328q170 -186 179 -196.5t15.5 -27.5t6.5 -40q0 -28 -24 -48.5t-58 -20.5
q-45 0 -82 41zM299 1303v-519h246q142 0 206 64t64 205q0 104 -76 177t-198 73h-242z" />
    <glyph glyph-name="S" unicode="S" horiz-adv-x="985" 
d="M57 1096q0 139 120 256.5t310 117.5q142 0 250.5 -51t108.5 -119q0 -32 -22.5 -55.5t-55.5 -23.5q-32 0 -83 33q-96 61 -204 61q-101 0 -166 -58t-65 -149q0 -68 48.5 -123t242.5 -124q129 -45 208.5 -86.5t136 -120.5t56.5 -205q0 -192 -132.5 -326.5t-360.5 -134.5
q-157 0 -281.5 52.5t-124.5 123.5q0 41 20.5 66.5t55.5 25.5q22 0 81 -34q84 -49 141 -64t110 -15q133 0 216 85t83 212q0 75 -40.5 123.5t-100.5 77t-164 63.5q-126 44 -202.5 83t-131 114t-54.5 195z" />
    <glyph glyph-name="T" unicode="T" horiz-adv-x="909" 
d="M365 84v1206h-273q-88 0 -88 84t88 84h725q88 0 88 -84t-88 -84h-272v-1206q0 -44 -24.5 -70t-65.5 -26q-42 0 -66 26t-24 70z" />
    <glyph glyph-name="U" unicode="U" horiz-adv-x="1368" 
d="M119 578v796q0 45 24 70.5t66 25.5q41 0 65.5 -25.5t24.5 -70.5v-866q0 -170 105.5 -267.5t279.5 -97.5q176 0 280.5 98.5t104.5 266.5v866q0 45 24.5 70.5t65.5 25.5q42 0 66 -25.5t24 -70.5v-796q0 -293 -146.5 -441.5t-418.5 -148.5t-418.5 148.5t-146.5 441.5z" />
    <glyph glyph-name="V" unicode="V" horiz-adv-x="1139" 
d="M571 291l369 1063q23 63 43 89.5t68 26.5q34 0 56.5 -22t22.5 -51q0 -36 -12 -70l-444 -1241q-21 -60 -45 -79t-60 -19q-32 0 -56.5 16.5t-47.5 81.5l-445 1241q-12 37 -12 70q0 29 22.5 51t57.5 22q47 0 68 -27t43 -89l368 -1063h4z" />
    <glyph glyph-name="W" unicode="W" horiz-adv-x="1708" 
d="M426 221l336 1178q21 71 92 71q72 0 92 -71l336 -1178h4l191 1165q14 84 98 84q37 0 59.5 -23t22.5 -58q0 -38 -10 -93l-222 -1190q-23 -118 -129 -118q-67 0 -96 30.5t-45 87.5l-299 1070h-4l-299 -1070q-18 -61 -46.5 -89.5t-94.5 -28.5q-107 0 -129 118l-222 1190
q-10 54 -10 93q0 35 22.5 58t59.5 23q85 0 98 -84l191 -1165h4z" />
    <glyph glyph-name="X" unicode="X" horiz-adv-x="1217" 
d="M608 641l-418 -596q-41 -57 -90 -57q-32 0 -57 22.5t-25 52.5q0 34 29 74l457 645l-278 393q-117 165 -124.5 183.5t-7.5 36.5q0 33 23.5 54t56.5 21q17 0 31 -4t29 -16.5t66 -85.5l308 -451l226 330q122 179 136 195.5t32 24t40 7.5q34 0 57 -21.5t23 -53.5
q0 -21 -8.5 -39.5t-137.5 -200.5l-263 -373l456 -645q29 -43 29 -74q0 -30 -25 -52.5t-57 -22.5q-50 0 -90 57z" />
    <glyph glyph-name="Y" unicode="Y" horiz-adv-x="1024" 
d="M422 84v600l-391 637q-29 46 -29 76q0 33 23.5 53t58.5 20q18 0 33 -5t29 -17t64 -93l302 -493l221 361q123 200 133.5 214t30.5 23.5t43 9.5q35 0 58.5 -20.5t23.5 -52.5q0 -29 -29 -76l-391 -637v-600q0 -45 -24 -70.5t-66 -25.5q-41 0 -65.5 26t-24.5 70z" />
    <glyph glyph-name="Z" unicode="Z" horiz-adv-x="1139" 
d="M84 178l750 1125h-662q-88 0 -88 77q0 78 88 78h797q42 0 68 -18.5t26 -44.5q0 -30 -8.5 -51t-36.5 -64l-752 -1124h735q89 0 89 -78t-89 -78h-845q-107 0 -107 82q0 44 35 96z" />
    <glyph glyph-name="bracketleft" unicode="[" horiz-adv-x="494" 
d="M324 1315v-1327h69q32 0 55 -23t23 -55t-23 -55t-55 -23h-141q-96 0 -96 98v1442q0 98 96 98h141q32 0 55 -22.5t23 -54.5t-23 -55t-55 -23h-69z" />
    <glyph glyph-name="backslash" unicode="\" horiz-adv-x="834" 
d="M629 49l-559 1256q-29 63 -29 90q0 34 22 54.5t58 20.5q56 0 84 -61l559 -1255q29 -63 29 -91q0 -34 -22.5 -54.5t-57.5 -20.5q-57 0 -84 61z" />
    <glyph glyph-name="bracketright" unicode="]" horiz-adv-x="494" 
d="M170 -12v1327h-70q-32 0 -54.5 23t-22.5 55t22.5 54.5t54.5 22.5h142q96 0 96 -98v-1442q0 -98 -96 -98h-142q-32 0 -54.5 23t-22.5 55t22.5 55t54.5 23h70z" />
    <glyph glyph-name="asciicircum" unicode="^" horiz-adv-x="1229" 
d="M614 1290l-349 -646q-28 -52 -75 -52q-32 0 -53.5 19.5t-21.5 47.5q0 26 35 89l358 638q29 52 53 68t53 16q60 0 107 -84l358 -638q35 -65 35 -89q0 -28 -21.5 -47.5t-54.5 -19.5q-32 0 -50.5 20.5t-51.5 81.5z" />
    <glyph glyph-name="underscore" unicode="_" horiz-adv-x="1024" 
d="M1024 -256h-1024q-59 0 -59 51t59 51h1024q59 0 59 -51t-59 -51z" />
    <glyph glyph-name="grave" unicode="`" 
d="M358 1243q-24 0 -116 38l-161 66q-70 28 -84.5 47t-14.5 40q0 29 21.5 57.5t55.5 28.5q25 0 117 -38l161 -66q69 -28 84 -47t15 -40q0 -30 -21.5 -58t-56.5 -28z" />
    <glyph glyph-name="a" unicode="a" horiz-adv-x="1139" 
d="M1020 1014v-938q0 -44 -26.5 -66t-57.5 -22q-34 0 -59 23.5t-25 64.5v76h-4q-116 -164 -297 -164q-214 0 -346.5 161t-132.5 396t132.5 396t346.5 161q167 0 297 -146h4v58q0 41 25 64.5t59 23.5q33 0 58.5 -23.5t25.5 -64.5zM551 946q-142 0 -220.5 -113.5t-78.5 -287.5
t78.5 -288t220.5 -114t220.5 114t78.5 288t-78.5 287.5t-220.5 113.5z" />
    <glyph glyph-name="b" unicode="b" horiz-adv-x="1139" 
d="M127 84v1401q0 44 24.5 70t65.5 26q42 0 66 -26t24 -70v-531h4q109 148 291 148q206 0 335.5 -161.5t129.5 -395.5t-129.5 -395.5t-335.5 -161.5q-213 0 -291 149h-4v-53q0 -44 -24 -70t-66 -26q-41 0 -65.5 26t-24.5 70zM588 946q-142 0 -220.5 -113.5t-78.5 -287.5
t78.5 -288t220.5 -114t220.5 114t78.5 288t-78.5 287.5t-220.5 113.5z" />
    <glyph glyph-name="c" unicode="c" horiz-adv-x="909" 
d="M563 -12q-226 0 -358.5 157.5t-132.5 399.5t132.5 399.5t358.5 157.5q133 0 213 -40t80 -97q0 -30 -21.5 -53t-52.5 -23q-30 0 -77 22q-72 35 -142 35q-145 0 -228 -116t-83 -285t83 -285.5t228 -116.5q76 0 152 40q42 22 65 22q70 0 70 -76q0 -56 -78.5 -98.5
t-208.5 -42.5z" />
    <glyph glyph-name="d" unicode="d" horiz-adv-x="1139" 
d="M831 84v53h-4q-78 -149 -290 -149q-206 0 -335.5 161.5t-129.5 395.5t129.5 395.5t335.5 161.5q182 0 290 -148h4v531q0 44 24.5 70t66.5 26q41 0 65.5 -26t24.5 -70v-1401q0 -45 -24.5 -70.5t-65.5 -25.5q-42 0 -66.5 26t-24.5 70zM551 143q142 0 220.5 114t78.5 288
t-78.5 287.5t-220.5 113.5t-220.5 -113.5t-78.5 -287.5t78.5 -288t220.5 -114z" />
    <glyph glyph-name="e" unicode="e" horiz-adv-x="1065" 
d="M911 475h-678q0 -144 87 -238t235 -94q68 0 137.5 20t155.5 87q52 41 76 41q26 0 45.5 -22t19.5 -58q0 -68 -140.5 -145.5t-295.5 -77.5q-235 0 -367.5 155t-132.5 402q0 235 137 396t353 161q205 0 337 -157.5t132 -373.5q0 -50 -22 -73t-79 -23zM233 610h598
q0 139 -80 237.5t-216 98.5q-137 0 -215.5 -89t-86.5 -247z" />
    <glyph glyph-name="f" unicode="f" horiz-adv-x="530" 
d="M356 934v-850q0 -45 -24 -70.5t-66 -25.5q-41 0 -65.5 26t-24.5 70v850h-74q-90 0 -90 78t90 78h74v256q0 109 66.5 172t173.5 63h55q40 0 71 -22t31 -56q0 -78 -98 -78h-45q-74 0 -74 -71v-264h113q90 0 90 -78t-90 -78h-113z" />
    <glyph glyph-name="g" unicode="g" horiz-adv-x="1139" 
d="M1012 1014v-936q0 -239 -134 -379.5t-358 -140.5q-143 0 -280.5 66t-137.5 132q0 36 20 60t56 24q32 0 103 -43q86 -53 143.5 -68.5t110.5 -15.5q144 0 220 92t76 244v94h-4q-94 -155 -276 -155q-214 0 -346.5 161t-132.5 396t132.5 396t346.5 161q77 0 155 -39.5
t121 -97.5h4v49q0 42 26.5 65t70.5 23q33 0 58.5 -23.5t25.5 -64.5zM551 946q-142 0 -220.5 -113.5t-78.5 -287.5t78.5 -288t220.5 -114t220.5 114t78.5 288t-78.5 287.5t-220.5 113.5z" />
    <glyph glyph-name="h" unicode="h" horiz-adv-x="1102" 
d="M803 84v594q0 132 -75.5 200t-176.5 68q-106 0 -179 -71t-73 -197v-594q0 -44 -24.5 -70t-65.5 -26q-42 0 -66 26t-24 70v1401q0 44 24 70t66 26q41 0 65.5 -26t24.5 -70v-522l4 -5q113 144 301 144q160 0 269.5 -108.5t109.5 -305.5v-604q0 -44 -24.5 -70t-65.5 -26
q-42 0 -66 26t-24 70z" />
    <glyph glyph-name="i" unicode="i" 
d="M209 1249q-46 0 -78.5 32.5t-32.5 78.5t32.5 78t78.5 32t78 -32t32 -78t-32 -78.5t-78 -32.5zM299 1006v-922q0 -44 -24.5 -70t-65.5 -26q-42 0 -66 26t-24 70v922q0 44 24 70t66 26q41 0 65.5 -26t24.5 -70z" />
    <glyph glyph-name="j" unicode="j" 
d="M209 1249q-46 0 -78.5 32.5t-32.5 78.5t32.5 78t78.5 32t78 -32t32 -78t-32 -78.5t-78 -32.5zM299 1006v-1352q0 -44 -24.5 -70t-65.5 -26q-42 0 -66 26t-24 70v1352q0 44 24 70t66 26q41 0 65.5 -26t24.5 -70z" />
    <glyph glyph-name="k" unicode="k" horiz-adv-x="948" 
d="M119 84v1401q0 44 24 70t66 26q41 0 65.5 -26t24.5 -70v-768l420 352q14 12 36.5 22.5t39.5 10.5q34 0 54.5 -22.5t20.5 -57.5q0 -21 -9 -38.5t-70 -66.5l-375 -296l310 -306q171 -169 183 -182.5t18.5 -31.5t6.5 -42q0 -29 -23 -50t-53 -21q-34 0 -55.5 13.5
t-167.5 165.5l-336 351v-434q0 -44 -24.5 -70t-65.5 -26q-42 0 -66 26t-24 70z" />
    <glyph glyph-name="l" unicode="l" 
d="M299 1485v-1401q0 -44 -24.5 -70t-65.5 -26q-42 0 -66 26t-24 70v1401q0 44 24 70t66 26q41 0 65.5 -26t24.5 -70z" />
    <glyph glyph-name="m" unicode="m" horiz-adv-x="1708" 
d="M764 84v610q0 118 -62 185t-172 67q-108 0 -169.5 -67t-61.5 -185v-610q0 -44 -24.5 -70t-65.5 -26q-42 0 -66 26t-24 70v922q0 44 24 70t66 26q41 0 65.5 -26t24.5 -70v-33l4 -4q97 133 275 133q190 0 299 -184q125 184 333 184q160 0 269.5 -108.5t109.5 -305.5v-604
q0 -45 -24 -70.5t-66 -25.5q-41 0 -65.5 26t-24.5 70v610q0 118 -61.5 185t-171.5 67q-108 0 -170 -67t-62 -185v-610q0 -45 -24 -70.5t-66 -25.5q-41 0 -65.5 26t-24.5 70z" />
    <glyph glyph-name="n" unicode="n" horiz-adv-x="1102" 
d="M119 84v922q0 44 24 70t66 26q41 0 65.5 -26t24.5 -70v-43l4 -5q113 144 301 144q160 0 269.5 -108.5t109.5 -305.5v-604q0 -44 -24.5 -70t-65.5 -26q-42 0 -66 26t-24 70v594q0 132 -75.5 200t-176.5 68q-106 0 -179 -71t-73 -197v-594q0 -44 -24.5 -70t-65.5 -26
q-42 0 -66 26t-24 70z" />
    <glyph glyph-name="o" unicode="o" horiz-adv-x="1102" 
d="M551 -12q-214 0 -346.5 161t-132.5 396t132.5 396t346.5 161t346.5 -161t132.5 -396t-132.5 -396t-346.5 -161zM551 946q-142 0 -220.5 -113.5t-78.5 -287.5t78.5 -288t220.5 -114t220.5 114t78.5 288t-78.5 287.5t-220.5 113.5z" />
    <glyph glyph-name="p" unicode="p" horiz-adv-x="1139" 
d="M127 -346v1352q0 44 24.5 70t65.5 26q42 0 66 -26t24 -70v-54h4q78 150 291 150q206 0 335.5 -161.5t129.5 -395.5t-129.5 -395.5t-335.5 -161.5q-182 0 -291 147h-4v-481q0 -44 -24 -70t-66 -26q-41 0 -65.5 26t-24.5 70zM588 946q-142 0 -220.5 -113.5t-78.5 -287.5
t78.5 -288t220.5 -114t220.5 114t78.5 288t-78.5 287.5t-220.5 113.5z" />
    <glyph glyph-name="q" unicode="q" horiz-adv-x="1139" 
d="M827 135q-108 -147 -290 -147q-206 0 -335.5 161.5t-129.5 395.5t129.5 395.5t335.5 161.5q212 0 290 -150h4v54q0 44 24.5 70t66.5 26q41 0 65.5 -26t24.5 -70v-1352q0 -44 -24.5 -70t-65.5 -26q-42 0 -66.5 26t-24.5 70v481h-4zM551 143q142 0 220.5 114t78.5 288
t-78.5 287.5t-220.5 113.5t-220.5 -113.5t-78.5 -287.5t78.5 -288t220.5 -114z" />
    <glyph glyph-name="r" unicode="r" horiz-adv-x="645" 
d="M119 84v922q0 44 24 70t66 26q41 0 65.5 -26t24.5 -70v-93h4q41 81 110 135t136 54q45 0 72.5 -26t27.5 -66q0 -77 -112 -99q-108 -18 -173 -98t-65 -211v-518q0 -44 -24.5 -70t-65.5 -26q-42 0 -66 26t-24 70z" />
    <glyph glyph-name="s" unicode="s" horiz-adv-x="909" 
d="M676 291q0 47 -42.5 89.5t-210.5 112.5q-212 88 -270.5 156t-58.5 146q0 137 109 222t262 85q127 0 244.5 -58t117.5 -135q0 -32 -21.5 -52.5t-60.5 -20.5q-31 0 -83 39q-61 46 -107 58.5t-90 12.5q-85 0 -138 -37t-53 -100q0 -40 39.5 -77t197.5 -98q221 -85 283 -156
t62 -154q0 -155 -113 -245.5t-284 -90.5q-165 0 -287.5 67t-122.5 140q0 35 22 58t52 23q31 0 95 -44q81 -57 137.5 -73t109.5 -16q92 0 151.5 44.5t59.5 103.5z" />
    <glyph glyph-name="t" unicode="t" horiz-adv-x="532" 
d="M176 1090v235q0 45 24.5 70.5t65.5 25.5q42 0 66 -26t24 -70v-235h74q90 0 90 -78t-90 -78h-74v-850q0 -45 -24 -70.5t-66 -25.5q-41 0 -65.5 26t-24.5 70v850h-74q-90 0 -90 78t90 78h74z" />
    <glyph glyph-name="u" unicode="u" horiz-adv-x="1102" 
d="M119 422v584q0 44 24 70t66 26q41 0 65.5 -26t24.5 -70v-578q0 -285 252 -285t252 285v578q0 44 24 70t66 26q41 0 65.5 -26t24.5 -70v-584q0 -138 -52.5 -235.5t-151.5 -148t-228 -50.5q-197 0 -314.5 112t-117.5 322z" />
    <glyph glyph-name="v" unicode="v" horiz-adv-x="872" 
d="M342 66l-313 878q-19 49 -19 74q0 38 24 61t58 23q71 0 94 -70l248 -753h4l248 753q24 70 94 70q35 0 58.5 -23.5t23.5 -60.5q0 -22 -18 -74l-314 -878q-17 -50 -37.5 -64t-56.5 -14q-31 0 -53 12.5t-41 65.5z" />
    <glyph glyph-name="w" unicode="w" horiz-adv-x="1520" 
d="M317 82l-299 870q-14 47 -14 70q0 32 23 56t63 24q72 0 100 -92l232 -744h4l227 717q21 67 41 93t66 26q45 0 65 -26t41 -93l228 -717h4l231 744q29 92 101 92q40 0 63 -24t23 -56q0 -28 -15 -70l-299 -870q-18 -51 -41.5 -72.5t-62.5 -21.5q-73 0 -103 94l-233 735h-4
l-234 -735q-30 -94 -102 -94t-105 94z" />
    <glyph glyph-name="x" unicode="x" horiz-adv-x="950" 
d="M475 446l-196 -271q-109 -152 -117.5 -161.5t-27.5 -17.5t-40 -8q-34 0 -58 23.5t-24 58.5q0 38 40 89l319 419l-213 278q-86 113 -93.5 130.5t-7.5 33.5q0 34 22 58t54 24q27 0 43.5 -9.5t55.5 -61.5l243 -322q266 354 283 373.5t59 19.5q32 0 54 -24t22 -58
q0 -32 -18 -55l-295 -387l241 -318q98 -128 107.5 -150t9.5 -40q0 -35 -23.5 -58.5t-58.5 -23.5q-53 0 -84 46z" />
    <glyph glyph-name="y" unicode="y" horiz-adv-x="909" 
d="M367 39l-308 887q-24 73 -24 100q0 32 24.5 54t57.5 22q67 0 90 -68l250 -747h4l246 747q21 68 86 68q32 0 56.5 -22t24.5 -54q0 -30 -24 -100l-455 -1301q-25 -67 -88 -67q-32 0 -57 21.5t-25 53.5q0 30 27 101z" />
    <glyph glyph-name="z" unicode="z" horiz-adv-x="909" 
d="M289 156h489q90 0 90 -78t-90 -78h-649q-88 0 -88 63q0 37 37 93l520 778h-446q-91 0 -91 78t91 78h606q88 0 88 -64q0 -38 -37 -92l-526 -774z" />
    <glyph glyph-name="braceleft" unicode="{" horiz-adv-x="494" 
d="M156 53v250q0 169 -25 213t-72 57q-59 18 -74.5 35t-15.5 43q0 30 18 47t72 31q47 12 72 56t25 214v250q0 221 209 221h77q82 0 82 -61t-82 -61h-28q-41 0 -65.5 -27t-24.5 -72v-323q0 -251 -187 -273v-4q187 -22 187 -272v-324q0 -45 24.5 -71.5t65.5 -26.5h28
q82 0 82 -61q0 -62 -82 -62h-77q-209 0 -209 221z" />
    <glyph glyph-name="bar" unicode="|" horiz-adv-x="455" 
d="M143 -512v2048q0 88 84 88t84 -88v-2048q0 -88 -84 -88t-84 88z" />
    <glyph glyph-name="braceright" unicode="}" horiz-adv-x="494" 
d="M338 1249v-250q0 -169 25 -212.5t71 -57.5q59 -18 74.5 -34.5t15.5 -43.5q0 -29 -17.5 -46t-72.5 -32q-46 -11 -71 -55t-25 -215v-250q0 -221 -209 -221h-78q-82 0 -82 62q0 61 82 61h29q41 0 65.5 26.5t24.5 71.5v324q0 250 186 272v4q-186 22 -186 273v323
q0 45 -24.5 72t-65.5 27h-29q-82 0 -82 61t82 61h78q209 0 209 -221z" />
    <glyph glyph-name="asciitilde" unicode="~" horiz-adv-x="1229" 
d="M203 371q-26 0 -49 17.5t-23 41.5q0 87 85 161.5t181 74.5q99 0 242 -70q139 -70 186 -70q43 0 93 67q37 47 60.5 60t47.5 13q26 0 49 -18t23 -42q0 -86 -85.5 -160.5t-181.5 -74.5q-98 0 -241 69q-139 70 -187 70q-42 0 -93 -66q-36 -48 -59.5 -60.5t-47.5 -12.5z" />
    <glyph glyph-name="nbspace" unicode="&#xa0;" horiz-adv-x="512" 
 />
    <glyph glyph-name="exclamdown" unicode="&#xa1;" horiz-adv-x="606" 
d="M303 1102q43 0 74 -31t31 -74t-31 -73.5t-74 -30.5t-73.5 31t-30.5 73q0 43 30.5 74t73.5 31zM393 602v-887q0 -44 -24 -70t-66 -26q-41 0 -65.5 26t-24.5 70v887q0 44 24.5 70t65.5 26q42 0 66 -26t24 -70z" />
    <glyph glyph-name="cent" unicode="&#xa2;" horiz-adv-x="909" 
d="M465 -123v121q-188 35 -290.5 186t-102.5 361t102.5 362t290.5 187v118q0 43 43 43t43 -43v-110q140 0 222.5 -39.5t82.5 -97.5q0 -30 -21.5 -53t-52.5 -23q-29 0 -75 22q-77 35 -156 35v-803q85 0 165 41q42 21 64 21q70 0 70 -76q0 -57 -81 -99t-218 -42v-111
q0 -43 -43 -43t-43 43zM465 162v768q-103 -39 -158 -145.5t-55 -239.5t55 -239.5t158 -143.5z" />
    <glyph glyph-name="sterling" unicode="&#xa3;" horiz-adv-x="1214" 
d="M496 815h264q88 0 88 -84t-88 -84h-223q14 -79 14 -135q0 -76 -47.5 -174t-128.5 -170h690q88 0 88 -84t-88 -84h-819q-109 0 -109 86q0 33 74 110q100 104 130 176.5t30 141.5q0 81 -15 133h-206q-89 0 -89 84t89 84h157q-100 174 -100 293q0 154 130.5 258t311.5 104
q177 0 323 -118.5t146 -243.5q0 -41 -23.5 -64.5t-62.5 -23.5q-25 0 -47.5 15.5t-54.5 82.5q-27 57 -54.5 94t-82 64t-142.5 27q-111 0 -187.5 -57.5t-76.5 -149.5q0 -76 109 -281z" />
    <glyph glyph-name="currency" unicode="&#xa4;" horiz-adv-x="1139" 
d="M399 672h357q84 0 84 -68q0 -67 -84 -67h-344q18 -186 105.5 -290t223.5 -104q117 0 244 109q26 22 49 22q30 0 56 -24.5t26 -59.5q0 -75 -109.5 -138.5t-267.5 -63.5q-205 0 -340 143.5t-178 405.5h-104q-84 0 -84 67q0 68 84 68h92q-2 17 -2 57q0 53 2 76h-92
q-84 0 -84 67q0 68 84 68h106q47 256 189 393t325 137q156 0 255.5 -68.5t99.5 -144.5q0 -39 -24.5 -62.5t-59.5 -23.5q-26 0 -72 48q-61 61 -107 78.5t-92 17.5q-121 0 -212 -105.5t-109 -269.5h340q84 0 84 -68q0 -67 -84 -67h-355q-2 -23 -2 -76v-57z" />
    <glyph glyph-name="yen" unicode="&#xa5;" horiz-adv-x="1098" 
d="M459 535v145h-281q-84 0 -84 68q0 67 84 67h197l-243 375q-101 155 -108.5 173t-7.5 40q0 27 23 47t49 20q17 0 33.5 -5.5t32 -18t67.5 -92.5l328 -492l240 362q132 198 144.5 212.5t33 24t43.5 9.5q26 0 48.5 -20t22.5 -47q0 -23 -7.5 -41t-112.5 -180l-238 -367h197
q84 0 84 -67q0 -68 -84 -68h-281v-145h281q84 0 84 -68t-84 -68h-281v-315q0 -44 -25 -70t-65 -26q-41 0 -65.5 26t-24.5 70v315h-281q-84 0 -84 68t84 68h281z" />
    <glyph glyph-name="brokenbar" unicode="&#xa6;" horiz-adv-x="455" 
d="M143 754v540q0 88 84 88t84 -88v-540q0 -88 -84 -88t-84 88zM143 -270v540q0 88 84 88t84 -88v-540q0 -88 -84 -88t-84 88z" />
    <glyph glyph-name="section" unicode="&#xa7;" horiz-adv-x="1139" 
d="M307 903q-72 52 -102.5 103.5t-30.5 128.5q0 154 118 244.5t314 90.5q174 0 297 -98t123 -211q0 -40 -22 -67t-60 -27q-25 0 -46.5 14.5t-52.5 74.5q-25 49 -49.5 81t-73.5 55t-128 23q-105 0 -172.5 -47t-67.5 -125q0 -56 48.5 -106.5t245.5 -135.5q138 -59 224 -109
t147.5 -131.5t61.5 -197.5q0 -98 -60 -193t-163 -153q133 -90 133 -242q0 -138 -129 -227.5t-301 -89.5q-195 0 -329 100.5t-134 194.5q0 102 90 102q26 0 48.5 -14t55.5 -72q28 -49 54.5 -80t78 -53.5t132.5 -22.5q117 0 185.5 46.5t68.5 117.5q0 55 -50.5 106t-255.5 137
q-142 59 -231.5 108.5t-153 130t-63.5 194.5q0 117 59 200.5t191 149.5zM463 809q-121 -50 -173 -107.5t-52 -134.5q0 -71 56.5 -127.5t179.5 -117.5l251 -123q79 58 127.5 118t48.5 140q0 73 -32 124t-151 108z" />
    <glyph glyph-name="dieresis" unicode="&#xa8;" 
d="M18 1237q-45 0 -77.5 32.5t-32.5 78.5t32 78t78 32t78.5 -32.5t32.5 -77.5q0 -46 -32 -78.5t-79 -32.5zM399 1237q-45 0 -77.5 32.5t-32.5 78.5q0 45 32.5 77.5t77.5 32.5q46 0 78.5 -32.5t32.5 -77.5q0 -46 -32.5 -78.5t-78.5 -32.5z" />
    <glyph glyph-name="copyright" unicode="&#xa9;" horiz-adv-x="1638" 
d="M1561 729q0 -306 -218 -523.5t-524 -217.5q-305 0 -523 217.5t-218 523.5q0 199 99.5 371t271.5 271t370 99q306 0 524 -217.5t218 -523.5zM246 729q0 -240 170 -413t403 -173q234 0 404 173t170 413t-170 413t-404 173q-233 0 -403 -173t-170 -413zM823 1051
q-123 0 -194.5 -86.5t-71.5 -231.5q0 -133 75 -225t191 -92q57 0 110 22t109 101q31 44 48 54.5t34 10.5q66 0 66 -57q0 -73 -103.5 -169.5t-263.5 -96.5q-190 0 -312 129t-122 323q0 198 118.5 325.5t315.5 127.5q165 0 266 -91t101 -169q0 -58 -68 -58q-21 0 -41 11
t-51 58q-51 74 -102 94t-105 20z" />
    <glyph glyph-name="ordfeminine" unicode="&#xaa;" horiz-adv-x="739" 
d="M680 1417v-563q0 -53 -68 -53q-67 0 -67 53v33h-4q-62 -86 -170 -86q-138 0 -225 95t-87 241q0 144 87 238.5t225 94.5q108 0 170 -86h4v33q0 53 67 53q68 0 68 -53zM207 1137q0 -90 48 -151.5t122 -61.5t122 61.5t48 151.5q0 88 -48 149.5t-122 61.5t-122 -61.5
t-48 -149.5z" />
    <glyph glyph-name="guillemotleft" unicode="&#xab;" horiz-adv-x="834" 
d="M401 549l136 243q72 130 80.5 142.5t23 22.5t33.5 10q34 0 58 -19.5t24 -52.5q0 -26 -27 -70l-166 -276q172 -285 182.5 -304.5t10.5 -41.5q0 -35 -25 -53.5t-57 -18.5q-40 0 -70 53zM78 549l135 243q72 130 81 142.5t23.5 22.5t32.5 10q34 0 58 -19.5t24 -52.5
q0 -26 -26 -70l-166 -276q171 -285 181.5 -304.5t10.5 -41.5q0 -33 -24 -52.5t-58 -19.5q-40 0 -69 53z" />
    <glyph glyph-name="logicalnot" unicode="&#xac;" horiz-adv-x="1229" 
d="M965 647h-781q-88 0 -88 84t88 84h865q84 0 84 -88v-418q0 -88 -84 -88t-84 88v338z" />
    <glyph glyph-name="sfthyphen" unicode="&#xad;" horiz-adv-x="721" 
d="M571 471h-421q-33 0 -55.5 23t-22.5 55t22.5 55t55.5 23h421q32 0 55 -23t23 -55t-22.5 -55t-55.5 -23z" />
    <glyph glyph-name="registered" unicode="&#xae;" horiz-adv-x="1638" 
d="M1561 729q0 -306 -218 -523.5t-524 -217.5q-305 0 -523 217.5t-218 523.5q0 199 99.5 371t271.5 271t370 99q306 0 524 -217.5t218 -523.5zM246 729q0 -240 170 -413t403 -173q234 0 404 173t170 413t-170 413t-404 173q-233 0 -403 -173t-170 -413zM780 657h-131v-292
q0 -66 -67 -66q-68 0 -68 66v735q0 43 47 43h270q168 0 239 -57.5t71 -186.5q0 -209 -211 -235q184 -282 193.5 -297.5t9.5 -32.5q0 -16 -23.5 -25.5t-52.5 -9.5q-54 0 -82 45zM649 780h156q125 0 163 33.5t38 95.5q0 55 -40 83t-149 28h-168v-240z" />
    <glyph glyph-name="overscore" unicode="&#xaf;" horiz-adv-x="1024" 
d="M1024 1626h-1024q-59 0 -59 51q0 52 59 52h1024q59 0 59 -52q0 -51 -59 -51z" />
    <glyph glyph-name="degree" unicode="&#xb0;" horiz-adv-x="819" 
d="M410 885q-121 0 -207 86t-86 207q0 120 86 206t207 86q120 0 206 -86t86 -206q0 -121 -86 -207t-206 -86zM410 1360q-75 0 -129 -54t-54 -128q0 -76 53.5 -129.5t129.5 -53.5q74 0 128 54t54 129t-53.5 128.5t-128.5 53.5z" />
    <glyph glyph-name="plusminus" unicode="&#xb1;" horiz-adv-x="1229" 
d="M530 723v225q0 88 84 88t84 -88v-225h346q89 0 89 -84t-89 -84h-346v-225q0 -88 -84 -88t-84 88v225h-346q-88 0 -88 84t88 84h346zM1044 0h-860q-88 0 -88 84t88 84h860q89 0 89 -84t-89 -84z" />
    <glyph glyph-name="twosuperior" unicode="&#xb2;" horiz-adv-x="713" 
d="M268 719h303q78 0 78 -62q0 -61 -78 -61h-446q-30 0 -46 13t-16 30q0 16 20 40l355 451q54 68 54 115q0 46 -36 74.5t-96 28.5q-71 0 -121.5 -53.5t-50.5 -114.5q0 -50 -59 -50q-63 0 -63 68q0 113 81 192.5t222 79.5q125 0 197.5 -62t72.5 -159q0 -83 -74 -172z" />
    <glyph glyph-name="threesuperior" unicode="&#xb3;" horiz-adv-x="713" 
d="M489 1059q78 -24 120 -80t42 -131q0 -118 -89.5 -191t-227.5 -73q-122 0 -197.5 66.5t-75.5 148.5q0 65 58 65q36 0 59 -51q27 -57 65 -81.5t101 -24.5q65 0 112.5 45.5t47.5 109.5q0 129 -137 129q-42 0 -68.5 9.5t-26.5 41.5q0 46 62 60q64 15 92.5 46.5t28.5 90.5
q0 44 -34.5 76.5t-90.5 32.5t-90.5 -28.5t-42.5 -72.5q-7 -47 -60 -47q-51 0 -51 57q0 94 67.5 153.5t182.5 59.5q122 0 194 -63.5t72 -161.5q0 -123 -113 -186z" />
    <glyph glyph-name="acute" unicode="&#xb4;" 
d="M436 1434q0 -21 -15 -40t-84 -47l-162 -66q-91 -38 -116 -38q-34 0 -55.5 28t-21.5 58q0 21 14.5 39.5t84.5 47.5l161 66q92 38 116 38q35 0 56.5 -28.5t21.5 -57.5z" />
    <glyph glyph-name="mu1" unicode="&#xb5;" horiz-adv-x="1102" 
d="M119 -346v1352q0 44 24 70t66 26q41 0 65.5 -26t24.5 -70v-578q0 -154 56.5 -219.5t195.5 -65.5q137 0 194.5 64.5t57.5 220.5v578q0 44 24 70t66 26q41 0 65.5 -26t24.5 -70v-922q0 -44 -24.5 -70t-65.5 -26q-66 0 -84 59q-99 -59 -258 -59q-168 0 -252 94v-428
q0 -44 -24.5 -70t-65.5 -26q-42 0 -66 26t-24 70z" />
    <glyph glyph-name="paragraph" unicode="&#xb6;" horiz-adv-x="1229" 
d="M496 -354v1059q-196 0 -317.5 105.5t-121.5 272.5q0 174 137 274.5t386 100.5h391q96 0 96 -98v-1714q0 -88 -84 -88t-84 88v1677h-235v-1677q0 -88 -84 -88t-84 88z" />
    <glyph glyph-name="middot" unicode="&#xb7;" horiz-adv-x="512" 
d="M256 510q-46 0 -78.5 32.5t-32.5 78.5q0 45 32.5 77.5t78.5 32.5t78.5 -32.5t32.5 -77.5q0 -47 -32.5 -79t-78.5 -32z" />
    <glyph glyph-name="cedilla" unicode="&#xb8;" 
d="M375 0l-60 -86q31 6 43 6q61 0 101.5 -36t40.5 -77q0 -85 -59.5 -130.5t-168.5 -45.5q-66 0 -107.5 20.5t-41.5 51.5q0 23 12 39t31 16q12 0 45 -7q41 -9 61 -9q72 0 72 55q0 26 -19 31.5t-71 5.5q-31 0 -46 12.5t-15 26.5q0 11 6.5 27t66.5 100h109z" />
    <glyph glyph-name="onesuperior" unicode="&#xb9;" horiz-adv-x="469" 
d="M178 1335h-104q-58 0 -58 62q0 61 58 61h213q39 0 39 -28v-773q0 -73 -74 -73t-74 73v678z" />
    <glyph glyph-name="ordmasculine" unicode="&#xba;" horiz-adv-x="717" 
d="M358 801q-138 0 -224.5 95t-86.5 241q0 143 85.5 238t225.5 95q138 0 225 -94.5t87 -238.5q0 -146 -85.5 -241t-226.5 -95zM358 1348q-70 0 -116.5 -62t-46.5 -149q0 -89 46.5 -151t116.5 -62q71 0 117.5 62t46.5 151q0 87 -47 149t-117 62z" />
    <glyph glyph-name="guillemotright" unicode="&#xbb;" horiz-adv-x="834" 
d="M432 549l-135 -244q-72 -129 -81 -142t-23.5 -22.5t-32.5 -9.5q-34 0 -58 19.5t-24 52.5q0 26 26 70l166 276q-171 285 -181.5 304t-10.5 42q0 33 24 52.5t58 19.5q41 0 69 -52zM756 549l-136 -244q-72 -129 -80.5 -142t-23 -22.5t-33.5 -9.5q-34 0 -58 19.5t-24 52.5
q0 26 27 70l166 276q-171 285 -182 304t-11 42q0 34 25 53t57 19q42 0 70 -52z" />
    <glyph glyph-name="onequarter" unicode="&#xbc;" horiz-adv-x="1649" 
d="M414 119l544 1306q27 62 72 62q33 0 52.5 -17t19.5 -38q0 -24 -29 -93l-545 -1306q-26 -62 -75 -62q-31 0 -49.5 16.5t-18.5 39.5t29 92zM236 1335h-105q-57 0 -57 62q0 61 57 61h213q39 0 39 -28v-773q0 -73 -74 -73q-73 0 -73 73v678zM1323 199h-365q-47 0 -47 49
q0 30 40 88l161 242q122 184 144 220t51.5 56t60.5 20q102 0 102 -90v-462h50q24 0 39.5 -17.5t15.5 -44.5q0 -26 -15.5 -43.5t-39.5 -17.5h-50v-148q0 -63 -73 -63q-74 0 -74 63v148zM1081 322h242v405h-4z" />
    <glyph glyph-name="onehalf" unicode="&#xbd;" horiz-adv-x="1649" 
d="M352 119l545 1306q26 62 72 62q32 0 51.5 -17t19.5 -38q0 -24 -28 -93l-545 -1306q-26 -62 -76 -62q-31 0 -49 16.5t-18 39.5t28 92zM236 1335h-105q-57 0 -57 62q0 61 57 61h213q39 0 39 -28v-773q0 -73 -74 -73q-73 0 -73 73v678zM1133 123h303q77 0 77 -62
q0 -61 -77 -61h-447q-29 0 -45 13t-16 30q0 16 19 40l356 452q53 67 53 114q0 46 -36 74.5t-95 28.5q-72 0 -122 -53.5t-50 -114.5q0 -49 -60 -49q-63 0 -63 67q0 113 81 192.5t222 79.5q126 0 198 -62t72 -159q0 -83 -73 -172z" />
    <glyph glyph-name="threequarters" unicode="&#xbe;" horiz-adv-x="1649" 
d="M537 119l544 1306q27 62 72 62q33 0 52.5 -17t19.5 -38q0 -24 -29 -93l-545 -1306q-26 -62 -76 -62q-30 0 -48.5 16.5t-18.5 39.5t29 92zM514 1059q78 -24 120 -80t42 -131q0 -118 -90 -191t-228 -73q-121 0 -196.5 66.5t-75.5 148.5q0 65 57 65q36 0 60 -51
q26 -57 64.5 -81.5t101.5 -24.5q65 0 112 45.5t47 109.5q0 129 -137 129q-41 0 -67.5 9.5t-26.5 41.5q0 46 61 60q65 15 93 46.5t28 90.5q0 44 -34.5 76.5t-90.5 32.5q-55 0 -90 -28.5t-43 -72.5q-7 -47 -59 -47q-51 0 -51 57q0 94 67.5 153.5t181.5 59.5q122 0 194.5 -63.5
t72.5 -161.5q0 -123 -113 -186zM1323 199h-365q-47 0 -47 49q0 30 40 88l161 242q122 184 144 220t51.5 56t60.5 20q102 0 102 -90v-462h50q24 0 39.5 -17.5t15.5 -44.5q0 -26 -15.5 -43.5t-39.5 -17.5h-50v-148q0 -63 -73 -63q-74 0 -74 63v148zM1081 322h242v405h-4z" />
    <glyph glyph-name="questiondown" unicode="&#xbf;" horiz-adv-x="909" 
d="M471 1102q43 0 73.5 -31t30.5 -74q0 -42 -30.5 -73t-73.5 -31t-73.5 31t-30.5 73q0 43 30.5 74t73.5 31zM381 397v205q0 44 24.5 70t65.5 26t65.5 -26t24.5 -70v-231q0 -73 -20.5 -95t-122.5 -43q-189 -38 -189 -221q0 -101 66.5 -163t171.5 -62q179 0 238 168
q23 68 79 68q37 0 63 -26t26 -65q0 -73 -52 -146.5t-148.5 -120t-199.5 -46.5q-186 0 -311 108t-125 269q0 155 89.5 260.5t254.5 140.5z" />
    <glyph glyph-name="Agrave" unicode="&#xc0;" horiz-adv-x="1253" 
d="M289 317l-95 -263q-11 -32 -33 -49t-55 -17q-37 0 -61.5 21t-24.5 54q0 25 25 91l453 1206q42 110 129 110t129 -110l452 -1206q25 -74 25 -91q0 -34 -25 -54.5t-61 -20.5q-33 0 -54.5 16t-37.5 62l-90 251h-676zM909 473l-280 789h-4l-281 -789h565zM775 1571
q-24 0 -116 38l-161 66q-70 28 -84.5 47t-14.5 40q0 29 21.5 57.5t55.5 28.5q25 0 117 -38l161 -66q69 -28 84 -47t15 -40q0 -30 -21.5 -58t-56.5 -28z" />
    <glyph glyph-name="Aacute" unicode="&#xc1;" horiz-adv-x="1253" 
d="M289 317l-95 -263q-11 -32 -33 -49t-55 -17q-37 0 -61.5 21t-24.5 54q0 25 25 91l453 1206q42 110 129 110t129 -110l452 -1206q25 -74 25 -91q0 -34 -25 -54.5t-61 -20.5q-33 0 -54.5 16t-37.5 62l-90 251h-676zM909 473l-280 789h-4l-281 -789h565zM853 1762
q0 -21 -15 -40t-84 -47l-162 -66q-91 -38 -116 -38q-34 0 -55.5 28t-21.5 58q0 21 14.5 39.5t84.5 47.5l161 66q92 38 116 38q35 0 56.5 -28.5t21.5 -57.5z" />
    <glyph glyph-name="Acircumflex" unicode="&#xc2;" horiz-adv-x="1253" 
d="M289 317l-95 -263q-11 -32 -33 -49t-55 -17q-37 0 -61.5 21t-24.5 54q0 25 25 91l453 1206q42 110 129 110t129 -110l452 -1206q25 -74 25 -91q0 -34 -25 -54.5t-61 -20.5q-33 0 -54.5 16t-37.5 62l-90 251h-676zM909 473l-280 789h-4l-281 -789h565zM626 1657
q-173 -68 -195 -77t-43 -9q-32 0 -52.5 22.5t-20.5 55.5q0 52 47 72l264 112l262 -111q27 -12 38 -29.5t11 -43.5q0 -33 -20.5 -55.5t-53.5 -22.5q-19 0 -35 6z" />
    <glyph glyph-name="Atilde" unicode="&#xc3;" horiz-adv-x="1253" 
d="M289 317l-95 -263q-11 -32 -33 -49t-55 -17q-37 0 -61.5 21t-24.5 54q0 25 25 91l453 1206q42 110 129 110t129 -110l452 -1206q25 -74 25 -91q0 -34 -25 -54.5t-61 -20.5q-33 0 -54.5 16t-37.5 62l-90 251h-676zM909 473l-280 789h-4l-281 -789h565zM389 1589
q-24 0 -45.5 24.5t-21.5 54.5q0 51 54.5 90t135.5 39q49 0 122 -21q65 -19 103 -19q31 0 71 21q34 19 56 19q24 0 46 -24.5t22 -54.5q0 -51 -54 -90t-136 -39q-49 0 -123 21q-64 20 -103 20q-30 0 -70 -22q-34 -19 -57 -19z" />
    <glyph glyph-name="Adieresis" unicode="&#xc4;" horiz-adv-x="1253" 
d="M289 317l-95 -263q-11 -32 -33 -49t-55 -17q-37 0 -61.5 21t-24.5 54q0 25 25 91l453 1206q42 110 129 110t129 -110l452 -1206q25 -74 25 -91q0 -34 -25 -54.5t-61 -20.5q-33 0 -54.5 16t-37.5 62l-90 251h-676zM909 473l-280 789h-4l-281 -789h565zM436 1565
q-45 0 -77.5 32.5t-32.5 78.5t32 78t78 32t78.5 -32.5t32.5 -77.5q0 -46 -32 -78.5t-79 -32.5zM817 1565q-45 0 -77.5 32.5t-32.5 78.5q0 45 32.5 77.5t77.5 32.5q46 0 78.5 -32.5t32.5 -77.5q0 -46 -32.5 -78.5t-78.5 -32.5z" />
    <glyph glyph-name="Aring" unicode="&#xc5;" horiz-adv-x="1253" 
d="M289 317l-95 -263q-11 -32 -33 -49t-55 -17q-37 0 -61.5 21t-24.5 54q0 25 25 91l453 1206q42 110 129 110t129 -110l452 -1206q25 -74 25 -91q0 -34 -25 -54.5t-61 -20.5q-33 0 -54.5 16t-37.5 62l-90 251h-676zM909 473l-280 789h-4l-281 -789h565zM627 1503
q-80 0 -136.5 56.5t-56.5 136.5q0 79 56.5 135.5t136.5 56.5q79 0 135.5 -56.5t56.5 -135.5q0 -80 -56.5 -136.5t-135.5 -56.5zM627 1790q-38 0 -66 -28t-28 -66q0 -39 27.5 -67t66.5 -28q38 0 66 28t28 67q0 38 -28 66t-66 28z" />
    <glyph glyph-name="AE" unicode="&#xc6;" horiz-adv-x="1554" 
d="M944 645v-477h434q88 0 88 -84t-88 -84h-518q-96 0 -96 98v219h-473q-141 -275 -150.5 -291.5t-28.5 -27t-46 -10.5q-36 0 -60 19.5t-24 45.5q0 32 26 84l637 1243q27 52 50 65t75 13h588q88 0 88 -84t-88 -84h-414v-477h395q88 0 88 -84t-88 -84h-395zM764 473v776h-4
l-391 -776h395z" />
    <glyph glyph-name="Ccedilla" unicode="&#xc7;" horiz-adv-x="1214" 
d="M735 -10l-51 -76q30 6 43 6q61 0 101 -36t40 -77q0 -89 -61.5 -132.5t-165.5 -43.5q-66 0 -107.5 20.5t-41.5 51.5q0 23 11.5 39t31.5 16q12 0 44 -7q42 -9 62 -9q72 0 72 55q0 26 -19 31.5t-71 5.5q-31 0 -46.5 12.5t-15.5 26.5q0 10 6.5 25.5t61.5 93.5
q-266 31 -416 240.5t-150 496.5q0 317 177 529t473 212q175 0 298.5 -74t123.5 -139q0 -36 -21 -61t-53 -25q-31 0 -87 46q-77 62 -139 80t-122 18q-213 0 -335 -168t-122 -418q0 -246 120.5 -416t325.5 -170q62 0 129 17t165 74q70 40 98 40q32 0 51.5 -22.5t19.5 -61.5
q0 -65 -121.5 -128.5t-308.5 -71.5z" />
    <glyph glyph-name="Egrave" unicode="&#xc8;" horiz-adv-x="909" 
d="M299 645v-477h434q88 0 88 -84t-88 -84h-518q-96 0 -96 98v1262q0 98 96 98h518q88 0 88 -84t-88 -84h-434v-477h395q88 0 88 -84t-88 -84h-395zM603 1571q-24 0 -116 38l-161 66q-70 28 -84.5 47t-14.5 40q0 29 21.5 57.5t55.5 28.5q25 0 117 -38l161 -66q69 -28 84 -47
t15 -40q0 -30 -21.5 -58t-56.5 -28z" />
    <glyph glyph-name="Eacute" unicode="&#xc9;" horiz-adv-x="909" 
d="M299 645v-477h434q88 0 88 -84t-88 -84h-518q-96 0 -96 98v1262q0 98 96 98h518q88 0 88 -84t-88 -84h-434v-477h395q88 0 88 -84t-88 -84h-395zM681 1762q0 -21 -15 -40t-84 -47l-162 -66q-91 -38 -116 -38q-34 0 -55.5 28t-21.5 58q0 21 14.5 39.5t84.5 47.5l161 66
q92 38 116 38q35 0 56.5 -28.5t21.5 -57.5z" />
    <glyph glyph-name="Ecircumflex" unicode="&#xca;" horiz-adv-x="909" 
d="M299 645v-477h434q88 0 88 -84t-88 -84h-518q-96 0 -96 98v1262q0 98 96 98h518q88 0 88 -84t-88 -84h-434v-477h395q88 0 88 -84t-88 -84h-395zM454 1657q-173 -68 -195 -77t-43 -9q-32 0 -52.5 22.5t-20.5 55.5q0 52 47 72l264 112l262 -111q27 -12 38 -29.5t11 -43.5
q0 -33 -20.5 -55.5t-53.5 -22.5q-19 0 -35 6z" />
    <glyph glyph-name="Edieresis" unicode="&#xcb;" horiz-adv-x="909" 
d="M299 645v-477h434q88 0 88 -84t-88 -84h-518q-96 0 -96 98v1262q0 98 96 98h518q88 0 88 -84t-88 -84h-434v-477h395q88 0 88 -84t-88 -84h-395zM264 1565q-45 0 -77.5 32.5t-32.5 78.5t32 78t78 32t78.5 -32.5t32.5 -77.5q0 -46 -32 -78.5t-79 -32.5zM645 1565
q-45 0 -77.5 32.5t-32.5 78.5q0 45 32.5 77.5t77.5 32.5q46 0 78.5 -32.5t32.5 -77.5q0 -46 -32.5 -78.5t-78.5 -32.5z" />
    <glyph glyph-name="Igrave" unicode="&#xcc;" 
d="M299 1374v-1290q0 -44 -24.5 -70t-65.5 -26q-42 0 -66 26t-24 70v1290q0 45 24 70.5t66 25.5q41 0 65.5 -25.5t24.5 -70.5zM358 1571q-24 0 -116 38l-161 66q-70 28 -84.5 47t-14.5 40q0 29 21.5 57.5t55.5 28.5q25 0 117 -38l161 -66q69 -28 84 -47t15 -40
q0 -30 -21.5 -58t-56.5 -28z" />
    <glyph glyph-name="Iacute" unicode="&#xcd;" 
d="M299 1374v-1290q0 -44 -24.5 -70t-65.5 -26q-42 0 -66 26t-24 70v1290q0 45 24 70.5t66 25.5q41 0 65.5 -25.5t24.5 -70.5zM436 1762q0 -21 -15 -40t-84 -47l-162 -66q-91 -38 -116 -38q-34 0 -55.5 28t-21.5 58q0 21 14.5 39.5t84.5 47.5l161 66q92 38 116 38
q35 0 56.5 -28.5t21.5 -57.5z" />
    <glyph glyph-name="Icircumflex" unicode="&#xce;" 
d="M299 1374v-1290q0 -44 -24.5 -70t-65.5 -26q-42 0 -66 26t-24 70v1290q0 45 24 70.5t66 25.5q41 0 65.5 -25.5t24.5 -70.5zM209 1657q-173 -68 -195 -77t-43 -9q-32 0 -52.5 22.5t-20.5 55.5q0 52 47 72l264 112l262 -111q27 -12 38 -29.5t11 -43.5q0 -33 -20.5 -55.5
t-53.5 -22.5q-19 0 -35 6z" />
    <glyph glyph-name="Idieresis" unicode="&#xcf;" 
d="M299 1374v-1290q0 -44 -24.5 -70t-65.5 -26q-42 0 -66 26t-24 70v1290q0 45 24 70.5t66 25.5q41 0 65.5 -25.5t24.5 -70.5zM18 1565q-45 0 -77.5 32.5t-32.5 78.5t32 78t78 32t78.5 -32.5t32.5 -77.5q0 -46 -32 -78.5t-79 -32.5zM399 1565q-45 0 -77.5 32.5t-32.5 78.5
q0 45 32.5 77.5t77.5 32.5q46 0 78.5 -32.5t32.5 -77.5q0 -46 -32.5 -78.5t-78.5 -32.5z" />
    <glyph glyph-name="Eth" unicode="&#xd0;" horiz-adv-x="1290" 
d="M129 98v559h-78q-88 0 -88 78t88 78h78v547q0 98 96 98h355q299 0 473 -201.5t174 -519.5q0 -335 -169 -536t-454 -201h-379q-96 0 -96 98zM309 657v-501h258q224 0 345.5 158.5t121.5 422.5q0 260 -124.5 413t-354.5 153h-246v-490h246q88 0 88 -78t-88 -78h-246z" />
    <glyph glyph-name="Ntilde" unicode="&#xd1;" horiz-adv-x="1368" 
d="M299 1141v-1057q0 -44 -24.5 -70t-65.5 -26q-42 0 -66 26t-24 70v1280q0 106 82 106q38 0 62.5 -18.5t64.5 -75.5l737 -1059h4v1057q0 45 24.5 70.5t65.5 25.5q42 0 66 -25.5t24 -70.5v-1280q0 -106 -82 -106q-38 0 -62.5 18.5t-64.5 75.5l-737 1059h-4zM446 1589
q-24 0 -45.5 24.5t-21.5 54.5q0 51 54.5 90t135.5 39q49 0 122 -21q65 -19 103 -19q31 0 71 21q34 19 56 19q24 0 46 -24.5t22 -54.5q0 -51 -54 -90t-136 -39q-49 0 -123 21q-64 20 -103 20q-30 0 -70 -22q-34 -19 -57 -19z" />
    <glyph glyph-name="Ograve" unicode="&#xd2;" horiz-adv-x="1405" 
d="M702 -12q-286 0 -462.5 214.5t-176.5 526.5t176.5 526.5t462.5 214.5q287 0 463 -214.5t176 -526.5t-176 -526.5t-463 -214.5zM702 1315q-212 0 -329 -164.5t-117 -421.5t117 -421.5t329 -164.5t329.5 164.5t117.5 421.5t-117.5 421.5t-329.5 164.5zM851 1571
q-24 0 -116 38l-161 66q-70 28 -84.5 47t-14.5 40q0 29 21.5 57.5t55.5 28.5q25 0 117 -38l161 -66q69 -28 84 -47t15 -40q0 -30 -21.5 -58t-56.5 -28z" />
    <glyph glyph-name="Oacute" unicode="&#xd3;" horiz-adv-x="1405" 
d="M702 -12q-286 0 -462.5 214.5t-176.5 526.5t176.5 526.5t462.5 214.5q287 0 463 -214.5t176 -526.5t-176 -526.5t-463 -214.5zM702 1315q-212 0 -329 -164.5t-117 -421.5t117 -421.5t329 -164.5t329.5 164.5t117.5 421.5t-117.5 421.5t-329.5 164.5zM929 1762
q0 -21 -15 -40t-84 -47l-162 -66q-91 -38 -116 -38q-34 0 -55.5 28t-21.5 58q0 21 14.5 39.5t84.5 47.5l161 66q92 38 116 38q35 0 56.5 -28.5t21.5 -57.5z" />
    <glyph glyph-name="Ocircumflex" unicode="&#xd4;" horiz-adv-x="1405" 
d="M702 -12q-286 0 -462.5 214.5t-176.5 526.5t176.5 526.5t462.5 214.5q287 0 463 -214.5t176 -526.5t-176 -526.5t-463 -214.5zM702 1315q-212 0 -329 -164.5t-117 -421.5t117 -421.5t329 -164.5t329.5 164.5t117.5 421.5t-117.5 421.5t-329.5 164.5zM702 1657
q-173 -68 -195 -77t-43 -9q-32 0 -52.5 22.5t-20.5 55.5q0 52 47 72l264 112l262 -111q27 -12 38 -29.5t11 -43.5q0 -33 -20.5 -55.5t-53.5 -22.5q-19 0 -35 6z" />
    <glyph glyph-name="Otilde" unicode="&#xd5;" horiz-adv-x="1405" 
d="M702 -12q-286 0 -462.5 214.5t-176.5 526.5t176.5 526.5t462.5 214.5q287 0 463 -214.5t176 -526.5t-176 -526.5t-463 -214.5zM702 1315q-212 0 -329 -164.5t-117 -421.5t117 -421.5t329 -164.5t329.5 164.5t117.5 421.5t-117.5 421.5t-329.5 164.5zM464 1589
q-24 0 -45.5 24.5t-21.5 54.5q0 51 54.5 90t135.5 39q49 0 122 -21q65 -19 103 -19q31 0 71 21q34 19 56 19q24 0 46 -24.5t22 -54.5q0 -51 -54 -90t-136 -39q-49 0 -123 21q-64 20 -103 20q-30 0 -70 -22q-34 -19 -57 -19z" />
    <glyph glyph-name="Odieresis" unicode="&#xd6;" horiz-adv-x="1405" 
d="M702 -12q-286 0 -462.5 214.5t-176.5 526.5t176.5 526.5t462.5 214.5q287 0 463 -214.5t176 -526.5t-176 -526.5t-463 -214.5zM702 1315q-212 0 -329 -164.5t-117 -421.5t117 -421.5t329 -164.5t329.5 164.5t117.5 421.5t-117.5 421.5t-329.5 164.5zM511 1565
q-45 0 -77.5 32.5t-32.5 78.5t32 78t78 32t78.5 -32.5t32.5 -77.5q0 -46 -32 -78.5t-79 -32.5zM892 1565q-45 0 -77.5 32.5t-32.5 78.5q0 45 32.5 77.5t77.5 32.5q46 0 78.5 -32.5t32.5 -77.5q0 -46 -32.5 -78.5t-78.5 -32.5z" />
    <glyph glyph-name="multiply" unicode="&#xd7;" horiz-adv-x="1229" 
d="M614 633l318 315q20 21 38.5 31t41.5 10q30 0 51.5 -23t21.5 -53q0 -23 -9 -40t-111 -119l-236 -236l321 -321q11 -11 23 -28.5t12 -45.5q0 -29 -21 -52.5t-52 -23.5q-23 0 -42.5 11.5t-119.5 111.5l-236 236l-316 -317q-20 -20 -39 -31t-42 -11q-30 0 -52 23.5t-22 52.5
q0 23 9.5 40.5t111.5 118.5l236 236l-321 321q-11 11 -23.5 28.5t-12.5 45.5q0 29 21.5 52.5t52.5 23.5q39 0 86 -47z" />
    <glyph glyph-name="Oslash" unicode="&#xd8;" horiz-adv-x="1405" 
d="M1116 1309q133 160 149.5 169t34.5 9q27 0 45.5 -15.5t18.5 -41.5q0 -16 -5 -26.5t-50 -62.5l-111 -129q143 -205 143 -483q0 -312 -176 -526.5t-463 -214.5q-245 0 -413 164q-133 -160 -151.5 -170.5t-37.5 -10.5q-26 0 -42.5 17t-16.5 39q0 27 27 59l137 160
q-142 208 -142 483q0 312 176.5 526.5t462.5 214.5q245 0 414 -161zM328 389l680 795q-118 131 -306 131q-212 0 -329 -164.5t-117 -421.5q0 -196 72 -340zM1079 1073l-682 -797q114 -133 305 -133q212 0 329.5 164.5t117.5 421.5q0 198 -70 344z" />
    <glyph glyph-name="Ugrave" unicode="&#xd9;" horiz-adv-x="1368" 
d="M119 578v796q0 45 24 70.5t66 25.5q41 0 65.5 -25.5t24.5 -70.5v-866q0 -170 105.5 -267.5t279.5 -97.5q176 0 280.5 98.5t104.5 266.5v866q0 45 24.5 70.5t65.5 25.5q42 0 66 -25.5t24 -70.5v-796q0 -293 -146.5 -441.5t-418.5 -148.5t-418.5 148.5t-146.5 441.5z
M833 1571q-24 0 -116 38l-161 66q-70 28 -84.5 47t-14.5 40q0 29 21.5 57.5t55.5 28.5q25 0 117 -38l161 -66q69 -28 84 -47t15 -40q0 -30 -21.5 -58t-56.5 -28z" />
    <glyph glyph-name="Uacute" unicode="&#xda;" horiz-adv-x="1368" 
d="M119 578v796q0 45 24 70.5t66 25.5q41 0 65.5 -25.5t24.5 -70.5v-866q0 -170 105.5 -267.5t279.5 -97.5q176 0 280.5 98.5t104.5 266.5v866q0 45 24.5 70.5t65.5 25.5q42 0 66 -25.5t24 -70.5v-796q0 -293 -146.5 -441.5t-418.5 -148.5t-418.5 148.5t-146.5 441.5z
M911 1762q0 -21 -15 -40t-84 -47l-162 -66q-91 -38 -116 -38q-34 0 -55.5 28t-21.5 58q0 21 14.5 39.5t84.5 47.5l161 66q92 38 116 38q35 0 56.5 -28.5t21.5 -57.5z" />
    <glyph glyph-name="Ucircumflex" unicode="&#xdb;" horiz-adv-x="1368" 
d="M119 578v796q0 45 24 70.5t66 25.5q41 0 65.5 -25.5t24.5 -70.5v-866q0 -170 105.5 -267.5t279.5 -97.5q176 0 280.5 98.5t104.5 266.5v866q0 45 24.5 70.5t65.5 25.5q42 0 66 -25.5t24 -70.5v-796q0 -293 -146.5 -441.5t-418.5 -148.5t-418.5 148.5t-146.5 441.5z
M684 1657q-173 -68 -195 -77t-43 -9q-32 0 -52.5 22.5t-20.5 55.5q0 52 47 72l264 112l262 -111q27 -12 38 -29.5t11 -43.5q0 -33 -20.5 -55.5t-53.5 -22.5q-19 0 -35 6z" />
    <glyph glyph-name="Udieresis" unicode="&#xdc;" horiz-adv-x="1368" 
d="M119 578v796q0 45 24 70.5t66 25.5q41 0 65.5 -25.5t24.5 -70.5v-866q0 -170 105.5 -267.5t279.5 -97.5q176 0 280.5 98.5t104.5 266.5v866q0 45 24.5 70.5t65.5 25.5q42 0 66 -25.5t24 -70.5v-796q0 -293 -146.5 -441.5t-418.5 -148.5t-418.5 148.5t-146.5 441.5z
M493 1565q-45 0 -77.5 32.5t-32.5 78.5t32 78t78 32t78.5 -32.5t32.5 -77.5q0 -46 -32 -78.5t-79 -32.5zM874 1565q-45 0 -77.5 32.5t-32.5 78.5q0 45 32.5 77.5t77.5 32.5q46 0 78.5 -32.5t32.5 -77.5q0 -46 -32.5 -78.5t-78.5 -32.5z" />
    <glyph glyph-name="Yacute" unicode="&#xdd;" horiz-adv-x="1024" 
d="M422 84v600l-391 637q-29 46 -29 76q0 33 23.5 53t58.5 20q18 0 33 -5t29 -17t64 -93l302 -493l221 361q123 200 133.5 214t30.5 23.5t43 9.5q35 0 58.5 -20.5t23.5 -52.5q0 -29 -29 -76l-391 -637v-600q0 -45 -24 -70.5t-66 -25.5q-41 0 -65.5 26t-24.5 70zM739 1762
q0 -21 -15 -40t-84 -47l-162 -66q-91 -38 -116 -38q-34 0 -55.5 28t-21.5 58q0 21 14.5 39.5t84.5 47.5l161 66q92 38 116 38q35 0 56.5 -28.5t21.5 -57.5z" />
    <glyph glyph-name="Thorn" unicode="&#xde;" horiz-adv-x="1063" 
d="M299 319v-235q0 -44 -24.5 -70t-65.5 -26q-42 0 -66 26t-24 70v1290q0 45 24 70.5t66 25.5q41 0 65.5 -25.5t24.5 -70.5v-145h272q210 0 341.5 -130.5t131.5 -326.5q0 -189 -134.5 -321t-331.5 -132h-279zM299 1073v-598h266q130 0 214.5 85t84.5 212q0 130 -80.5 215.5
t-226.5 85.5h-258z" />
    <glyph glyph-name="germandbls" unicode="&#xdf;" horiz-adv-x="1139" 
d="M119 76v1077q0 199 108 313.5t285 114.5q174 0 291 -114.5t117 -258.5q0 -237 -158 -344q128 -34 201 -147t73 -258q0 -184 -114.5 -327.5t-290.5 -143.5q-119 0 -119 84q0 78 68 78q134 0 199 75t65 242q0 138 -69.5 215t-178.5 84q-92 6 -92 76q0 40 18.5 56.5
t73.5 33.5q90 28 116.5 96t26.5 160q0 103 -61.5 170t-161.5 67q-217 0 -217 -307v-1042q0 -44 -27 -66t-63 -22q-39 0 -64.5 23t-25.5 65z" />
    <glyph glyph-name="agrave" unicode="&#xe0;" horiz-adv-x="1139" 
d="M1020 1014v-938q0 -44 -26.5 -66t-57.5 -22q-34 0 -59 23.5t-25 64.5v76h-4q-116 -164 -297 -164q-214 0 -346.5 161t-132.5 396t132.5 396t346.5 161q167 0 297 -146h4v58q0 41 25 64.5t59 23.5q33 0 58.5 -23.5t25.5 -64.5zM551 946q-142 0 -220.5 -113.5t-78.5 -287.5
t78.5 -288t220.5 -114t220.5 114t78.5 288t-78.5 287.5t-220.5 113.5zM718 1243q-24 0 -116 38l-161 66q-70 28 -84.5 47t-14.5 40q0 29 21.5 57.5t55.5 28.5q25 0 117 -38l161 -66q69 -28 84 -47t15 -40q0 -30 -21.5 -58t-56.5 -28z" />
    <glyph glyph-name="aacute" unicode="&#xe1;" horiz-adv-x="1139" 
d="M1020 1014v-938q0 -44 -26.5 -66t-57.5 -22q-34 0 -59 23.5t-25 64.5v76h-4q-116 -164 -297 -164q-214 0 -346.5 161t-132.5 396t132.5 396t346.5 161q167 0 297 -146h4v58q0 41 25 64.5t59 23.5q33 0 58.5 -23.5t25.5 -64.5zM551 946q-142 0 -220.5 -113.5t-78.5 -287.5
t78.5 -288t220.5 -114t220.5 114t78.5 288t-78.5 287.5t-220.5 113.5zM796 1434q0 -21 -15 -40t-84 -47l-162 -66q-91 -38 -116 -38q-34 0 -55.5 28t-21.5 58q0 21 14.5 39.5t84.5 47.5l161 66q92 38 116 38q35 0 56.5 -28.5t21.5 -57.5z" />
    <glyph glyph-name="acircumflex" unicode="&#xe2;" horiz-adv-x="1139" 
d="M1020 1014v-938q0 -44 -26.5 -66t-57.5 -22q-34 0 -59 23.5t-25 64.5v76h-4q-116 -164 -297 -164q-214 0 -346.5 161t-132.5 396t132.5 396t346.5 161q167 0 297 -146h4v58q0 41 25 64.5t59 23.5q33 0 58.5 -23.5t25.5 -64.5zM551 946q-142 0 -220.5 -113.5t-78.5 -287.5
t78.5 -288t220.5 -114t220.5 114t78.5 288t-78.5 287.5t-220.5 113.5zM569 1329q-173 -68 -195 -77t-43 -9q-32 0 -52.5 22.5t-20.5 55.5q0 52 47 72l264 112l262 -111q27 -12 38 -29.5t11 -43.5q0 -33 -20.5 -55.5t-53.5 -22.5q-19 0 -35 6z" />
    <glyph glyph-name="atilde" unicode="&#xe3;" horiz-adv-x="1139" 
d="M1020 1014v-938q0 -44 -26.5 -66t-57.5 -22q-34 0 -59 23.5t-25 64.5v76h-4q-116 -164 -297 -164q-214 0 -346.5 161t-132.5 396t132.5 396t346.5 161q167 0 297 -146h4v58q0 41 25 64.5t59 23.5q33 0 58.5 -23.5t25.5 -64.5zM551 946q-142 0 -220.5 -113.5t-78.5 -287.5
t78.5 -288t220.5 -114t220.5 114t78.5 288t-78.5 287.5t-220.5 113.5zM331 1262q-24 0 -45.5 24.5t-21.5 54.5q0 51 54.5 90t135.5 39q49 0 122 -21q65 -19 103 -19q31 0 71 21q34 19 56 19q24 0 46 -24.5t22 -54.5q0 -51 -54 -90t-136 -39q-49 0 -123 21q-64 20 -103 20
q-30 0 -70 -22q-34 -19 -57 -19z" />
    <glyph glyph-name="adieresis" unicode="&#xe4;" horiz-adv-x="1139" 
d="M1020 1014v-938q0 -44 -26.5 -66t-57.5 -22q-34 0 -59 23.5t-25 64.5v76h-4q-116 -164 -297 -164q-214 0 -346.5 161t-132.5 396t132.5 396t346.5 161q167 0 297 -146h4v58q0 41 25 64.5t59 23.5q33 0 58.5 -23.5t25.5 -64.5zM551 946q-142 0 -220.5 -113.5t-78.5 -287.5
t78.5 -288t220.5 -114t220.5 114t78.5 288t-78.5 287.5t-220.5 113.5zM378 1237q-45 0 -77.5 32.5t-32.5 78.5t32 78t78 32t78.5 -32.5t32.5 -77.5q0 -46 -32 -78.5t-79 -32.5zM759 1237q-45 0 -77.5 32.5t-32.5 78.5q0 45 32.5 77.5t77.5 32.5q46 0 78.5 -32.5t32.5 -77.5
q0 -46 -32.5 -78.5t-78.5 -32.5z" />
    <glyph glyph-name="aring" unicode="&#xe5;" horiz-adv-x="1139" 
d="M1020 1014v-938q0 -44 -26.5 -66t-57.5 -22q-34 0 -59 23.5t-25 64.5v76h-4q-116 -164 -297 -164q-214 0 -346.5 161t-132.5 396t132.5 396t346.5 161q167 0 297 -146h4v58q0 41 25 64.5t59 23.5q33 0 58.5 -23.5t25.5 -64.5zM551 946q-142 0 -220.5 -113.5t-78.5 -287.5
t78.5 -288t220.5 -114t220.5 114t78.5 288t-78.5 287.5t-220.5 113.5zM570 1196q-80 0 -136.5 56.5t-56.5 136.5q0 79 56.5 135.5t136.5 56.5q79 0 135.5 -56.5t56.5 -135.5q0 -80 -56.5 -136.5t-135.5 -56.5zM570 1483q-38 0 -66 -28t-28 -66q0 -39 27.5 -67t66.5 -28
q38 0 66 28t28 67q0 38 -28 66t-66 28z" />
    <glyph glyph-name="ae" unicode="&#xe6;" horiz-adv-x="1821" 
d="M850 76v76h-4q-113 -164 -295 -164q-214 0 -346.5 161t-132.5 396t132.5 396t346.5 161q168 0 295 -146h4v58q0 43 26 65.5t58 22.5q33 0 58.5 -23.5t25.5 -64.5v-45h4q42 50 123 91.5t164 41.5q184 0 321 -151t137 -380q0 -50 -22 -73t-78 -23h-666q8 -144 97.5 -236
t225.5 -92q62 0 127.5 19t146.5 82q56 43 84 43q27 0 45 -24.5t18 -55.5q0 -69 -131 -146t-271 -77q-215 0 -321 131h-4v-43q0 -41 -25.5 -64.5t-58.5 -23.5q-34 0 -59 23.5t-25 64.5zM551 946q-142 0 -220.5 -113.5t-78.5 -287.5t78.5 -288t220.5 -114t220.5 114t78.5 288
t-78.5 287.5t-220.5 113.5zM1014 610h573q0 138 -78.5 237t-210.5 99q-134 0 -209 -96t-75 -240z" />
    <glyph glyph-name="ccedilla" unicode="&#xe7;" horiz-adv-x="909" 
d="M582 -10l-52 -76q31 6 43 6q61 0 101.5 -36t40.5 -77q0 -89 -61.5 -132.5t-166.5 -43.5q-66 0 -107.5 20.5t-41.5 51.5q0 23 12 39t31 16q12 0 45 -7q41 -9 61 -9q72 0 72 55q0 26 -19 31.5t-71 5.5q-31 0 -46 12.5t-15 26.5q0 10 5.5 25t63.5 98q-193 31 -299 183
t-106 366q0 242 132.5 399.5t358.5 157.5q133 0 213 -40t80 -97q0 -30 -21.5 -53t-52.5 -23q-30 0 -77 22q-72 35 -142 35q-145 0 -228 -116t-83 -285t83 -285.5t228 -116.5q76 0 152 40q42 22 65 22q70 0 70 -76q0 -53 -70.5 -94t-197.5 -45z" />
    <glyph glyph-name="egrave" unicode="&#xe8;" horiz-adv-x="1065" 
d="M911 475h-678q0 -144 87 -238t235 -94q68 0 137.5 20t155.5 87q52 41 76 41q26 0 45.5 -22t19.5 -58q0 -68 -140.5 -145.5t-295.5 -77.5q-235 0 -367.5 155t-132.5 402q0 235 137 396t353 161q205 0 337 -157.5t132 -373.5q0 -50 -22 -73t-79 -23zM233 610h598
q0 139 -80 237.5t-216 98.5q-137 0 -215.5 -89t-86.5 -247zM681 1243q-24 0 -116 38l-161 66q-70 28 -84.5 47t-14.5 40q0 29 21.5 57.5t55.5 28.5q25 0 117 -38l161 -66q69 -28 84 -47t15 -40q0 -30 -21.5 -58t-56.5 -28z" />
    <glyph glyph-name="eacute" unicode="&#xe9;" horiz-adv-x="1065" 
d="M911 475h-678q0 -144 87 -238t235 -94q68 0 137.5 20t155.5 87q52 41 76 41q26 0 45.5 -22t19.5 -58q0 -68 -140.5 -145.5t-295.5 -77.5q-235 0 -367.5 155t-132.5 402q0 235 137 396t353 161q205 0 337 -157.5t132 -373.5q0 -50 -22 -73t-79 -23zM233 610h598
q0 139 -80 237.5t-216 98.5q-137 0 -215.5 -89t-86.5 -247zM759 1434q0 -21 -15 -40t-84 -47l-162 -66q-91 -38 -116 -38q-34 0 -55.5 28t-21.5 58q0 21 14.5 39.5t84.5 47.5l161 66q92 38 116 38q35 0 56.5 -28.5t21.5 -57.5z" />
    <glyph glyph-name="ecircumflex" unicode="&#xea;" horiz-adv-x="1065" 
d="M911 475h-678q0 -144 87 -238t235 -94q68 0 137.5 20t155.5 87q52 41 76 41q26 0 45.5 -22t19.5 -58q0 -68 -140.5 -145.5t-295.5 -77.5q-235 0 -367.5 155t-132.5 402q0 235 137 396t353 161q205 0 337 -157.5t132 -373.5q0 -50 -22 -73t-79 -23zM233 610h598
q0 139 -80 237.5t-216 98.5q-137 0 -215.5 -89t-86.5 -247zM532 1329q-173 -68 -195 -77t-43 -9q-32 0 -52.5 22.5t-20.5 55.5q0 52 47 72l264 112l262 -111q27 -12 38 -29.5t11 -43.5q0 -33 -20.5 -55.5t-53.5 -22.5q-19 0 -35 6z" />
    <glyph glyph-name="edieresis" unicode="&#xeb;" horiz-adv-x="1065" 
d="M911 475h-678q0 -144 87 -238t235 -94q68 0 137.5 20t155.5 87q52 41 76 41q26 0 45.5 -22t19.5 -58q0 -68 -140.5 -145.5t-295.5 -77.5q-235 0 -367.5 155t-132.5 402q0 235 137 396t353 161q205 0 337 -157.5t132 -373.5q0 -50 -22 -73t-79 -23zM233 610h598
q0 139 -80 237.5t-216 98.5q-137 0 -215.5 -89t-86.5 -247zM341 1237q-45 0 -77.5 32.5t-32.5 78.5t32 78t78 32t78.5 -32.5t32.5 -77.5q0 -46 -32 -78.5t-79 -32.5zM722 1237q-45 0 -77.5 32.5t-32.5 78.5q0 45 32.5 77.5t77.5 32.5q46 0 78.5 -32.5t32.5 -77.5
q0 -46 -32.5 -78.5t-78.5 -32.5z" />
    <glyph glyph-name="igrave" unicode="&#xec;" 
d="M299 1006v-922q0 -44 -24.5 -70t-65.5 -26q-42 0 -66 26t-24 70v922q0 44 24 70t66 26q41 0 65.5 -26t24.5 -70zM358 1243q-24 0 -116 38l-161 66q-70 28 -84.5 47t-14.5 40q0 29 21.5 57.5t55.5 28.5q25 0 117 -38l161 -66q69 -28 84 -47t15 -40q0 -30 -21.5 -58
t-56.5 -28z" />
    <glyph glyph-name="iacute" unicode="&#xed;" 
d="M299 1006v-922q0 -44 -24.5 -70t-65.5 -26q-42 0 -66 26t-24 70v922q0 44 24 70t66 26q41 0 65.5 -26t24.5 -70zM436 1434q0 -21 -15 -40t-84 -47l-162 -66q-91 -38 -116 -38q-34 0 -55.5 28t-21.5 58q0 21 14.5 39.5t84.5 47.5l161 66q92 38 116 38q35 0 56.5 -28.5
t21.5 -57.5z" />
    <glyph glyph-name="icircumflex" unicode="&#xee;" 
d="M299 1006v-922q0 -44 -24.5 -70t-65.5 -26q-42 0 -66 26t-24 70v922q0 44 24 70t66 26q41 0 65.5 -26t24.5 -70zM209 1329q-173 -68 -195 -77t-43 -9q-32 0 -52.5 22.5t-20.5 55.5q0 52 47 72l264 112l262 -111q27 -12 38 -29.5t11 -43.5q0 -33 -20.5 -55.5t-53.5 -22.5
q-19 0 -35 6z" />
    <glyph glyph-name="idieresis" unicode="&#xef;" 
d="M299 1006v-922q0 -44 -24.5 -70t-65.5 -26q-42 0 -66 26t-24 70v922q0 44 24 70t66 26q41 0 65.5 -26t24.5 -70zM18 1237q-45 0 -77.5 32.5t-32.5 78.5t32 78t78 32t78.5 -32.5t32.5 -77.5q0 -46 -32 -78.5t-79 -32.5zM399 1237q-45 0 -77.5 32.5t-32.5 78.5
q0 45 32.5 77.5t77.5 32.5q46 0 78.5 -32.5t32.5 -77.5q0 -46 -32.5 -78.5t-78.5 -32.5z" />
    <glyph glyph-name="eth" unicode="&#xf0;" horiz-adv-x="1102" 
d="M713 1382q317 -281 317 -770q0 -293 -128 -458.5t-363 -165.5q-207 0 -337 161t-130 388q0 229 130 391t337 162q72 0 143 -33t115 -90l4 4q-67 177 -248 329q-189 -91 -204 -97.5t-34 -6.5t-34 16t-15 39q0 30 34 47l159 76q-34 28 -105 59q-61 26 -74.5 44t-13.5 41
q0 27 21.5 45t54.5 18q45 0 123.5 -35t152.5 -90q195 97 212 105t36 8q49 0 49 -49q0 -38 -27 -52zM551 930q-138 0 -218.5 -114.5t-80.5 -278.5q0 -165 80.5 -279.5t218.5 -114.5t218.5 114.5t80.5 279.5q0 164 -80.5 278.5t-218.5 114.5z" />
    <glyph glyph-name="ntilde" unicode="&#xf1;" horiz-adv-x="1102" 
d="M119 84v922q0 44 24 70t66 26q41 0 65.5 -26t24.5 -70v-43l4 -5q113 144 301 144q160 0 269.5 -108.5t109.5 -305.5v-604q0 -44 -24.5 -70t-65.5 -26q-42 0 -66 26t-24 70v594q0 132 -75.5 200t-176.5 68q-106 0 -179 -71t-73 -197v-594q0 -44 -24.5 -70t-65.5 -26
q-42 0 -66 26t-24 70zM313 1262q-24 0 -45.5 24.5t-21.5 54.5q0 51 54.5 90t135.5 39q49 0 122 -21q65 -19 103 -19q31 0 71 21q34 19 56 19q24 0 46 -24.5t22 -54.5q0 -51 -54 -90t-136 -39q-49 0 -123 21q-64 20 -103 20q-30 0 -70 -22q-34 -19 -57 -19z" />
    <glyph glyph-name="ograve" unicode="&#xf2;" horiz-adv-x="1102" 
d="M551 -12q-214 0 -346.5 161t-132.5 396t132.5 396t346.5 161t346.5 -161t132.5 -396t-132.5 -396t-346.5 -161zM551 946q-142 0 -220.5 -113.5t-78.5 -287.5t78.5 -288t220.5 -114t220.5 114t78.5 288t-78.5 287.5t-220.5 113.5zM700 1243q-24 0 -116 38l-161 66
q-70 28 -84.5 47t-14.5 40q0 29 21.5 57.5t55.5 28.5q25 0 117 -38l161 -66q69 -28 84 -47t15 -40q0 -30 -21.5 -58t-56.5 -28z" />
    <glyph glyph-name="oacute" unicode="&#xf3;" horiz-adv-x="1102" 
d="M551 -12q-214 0 -346.5 161t-132.5 396t132.5 396t346.5 161t346.5 -161t132.5 -396t-132.5 -396t-346.5 -161zM551 946q-142 0 -220.5 -113.5t-78.5 -287.5t78.5 -288t220.5 -114t220.5 114t78.5 288t-78.5 287.5t-220.5 113.5zM778 1434q0 -21 -15 -40t-84 -47
l-162 -66q-91 -38 -116 -38q-34 0 -55.5 28t-21.5 58q0 21 14.5 39.5t84.5 47.5l161 66q92 38 116 38q35 0 56.5 -28.5t21.5 -57.5z" />
    <glyph glyph-name="ocircumflex" unicode="&#xf4;" horiz-adv-x="1102" 
d="M551 -12q-214 0 -346.5 161t-132.5 396t132.5 396t346.5 161t346.5 -161t132.5 -396t-132.5 -396t-346.5 -161zM551 946q-142 0 -220.5 -113.5t-78.5 -287.5t78.5 -288t220.5 -114t220.5 114t78.5 288t-78.5 287.5t-220.5 113.5zM551 1329q-173 -68 -195 -77t-43 -9
q-32 0 -52.5 22.5t-20.5 55.5q0 52 47 72l264 112l262 -111q27 -12 38 -29.5t11 -43.5q0 -33 -20.5 -55.5t-53.5 -22.5q-19 0 -35 6z" />
    <glyph glyph-name="otilde" unicode="&#xf5;" horiz-adv-x="1102" 
d="M551 -12q-214 0 -346.5 161t-132.5 396t132.5 396t346.5 161t346.5 -161t132.5 -396t-132.5 -396t-346.5 -161zM551 946q-142 0 -220.5 -113.5t-78.5 -287.5t78.5 -288t220.5 -114t220.5 114t78.5 288t-78.5 287.5t-220.5 113.5zM313 1262q-24 0 -45.5 24.5t-21.5 54.5
q0 51 54.5 90t135.5 39q49 0 122 -21q65 -19 103 -19q31 0 71 21q34 19 56 19q24 0 46 -24.5t22 -54.5q0 -51 -54 -90t-136 -39q-49 0 -123 21q-64 20 -103 20q-30 0 -70 -22q-34 -19 -57 -19z" />
    <glyph glyph-name="odieresis" unicode="&#xf6;" horiz-adv-x="1102" 
d="M551 -12q-214 0 -346.5 161t-132.5 396t132.5 396t346.5 161t346.5 -161t132.5 -396t-132.5 -396t-346.5 -161zM551 946q-142 0 -220.5 -113.5t-78.5 -287.5t78.5 -288t220.5 -114t220.5 114t78.5 288t-78.5 287.5t-220.5 113.5zM360 1237q-45 0 -77.5 32.5t-32.5 78.5
t32 78t78 32t78.5 -32.5t32.5 -77.5q0 -46 -32 -78.5t-79 -32.5zM741 1237q-45 0 -77.5 32.5t-32.5 78.5q0 45 32.5 77.5t77.5 32.5q46 0 78.5 -32.5t32.5 -77.5q0 -46 -32.5 -78.5t-78.5 -32.5z" />
    <glyph glyph-name="divide" unicode="&#xf7;" horiz-adv-x="1229" 
d="M614 795q-61 0 -104 43t-43 104q0 62 43 105t104 43q62 0 105 -43.5t43 -104.5t-43 -104t-105 -43zM1044 434h-860q-88 0 -88 84t88 84h860q89 0 89 -84t-89 -84zM614 -53q-61 0 -104 43t-43 104t43 104.5t104 43.5q62 0 105 -43.5t43 -104.5t-43 -104t-105 -43z" />
    <glyph glyph-name="oslash" unicode="&#xf8;" horiz-adv-x="1102" 
d="M260 94q-94 -114 -109.5 -128.5t-41.5 -14.5t-44 17.5t-18 39.5q0 28 23 55l106 127q-104 144 -104 355q0 235 132.5 396t346.5 161q170 0 293 -105q91 112 106 127t41 15q27 0 45.5 -17t18.5 -41q0 -29 -18 -50l-109 -130q102 -157 102 -356q0 -235 -132.5 -396
t-346.5 -161q-171 0 -291 106zM293 332l446 538q-73 76 -188 76q-142 0 -220.5 -113.5t-78.5 -287.5q0 -119 41 -213zM809 758l-447 -539q74 -76 189 -76q142 0 220.5 114t78.5 288q0 122 -41 213z" />
    <glyph glyph-name="ugrave" unicode="&#xf9;" horiz-adv-x="1102" 
d="M119 422v584q0 44 24 70t66 26q41 0 65.5 -26t24.5 -70v-578q0 -285 252 -285t252 285v578q0 44 24 70t66 26q41 0 65.5 -26t24.5 -70v-584q0 -138 -52.5 -235.5t-151.5 -148t-228 -50.5q-197 0 -314.5 112t-117.5 322zM700 1243q-24 0 -116 38l-161 66q-70 28 -84.5 47
t-14.5 40q0 29 21.5 57.5t55.5 28.5q25 0 117 -38l161 -66q69 -28 84 -47t15 -40q0 -30 -21.5 -58t-56.5 -28z" />
    <glyph glyph-name="uacute" unicode="&#xfa;" horiz-adv-x="1102" 
d="M119 422v584q0 44 24 70t66 26q41 0 65.5 -26t24.5 -70v-578q0 -285 252 -285t252 285v578q0 44 24 70t66 26q41 0 65.5 -26t24.5 -70v-584q0 -138 -52.5 -235.5t-151.5 -148t-228 -50.5q-197 0 -314.5 112t-117.5 322zM778 1434q0 -21 -15 -40t-84 -47l-162 -66
q-91 -38 -116 -38q-34 0 -55.5 28t-21.5 58q0 21 14.5 39.5t84.5 47.5l161 66q92 38 116 38q35 0 56.5 -28.5t21.5 -57.5z" />
    <glyph glyph-name="ucircumflex" unicode="&#xfb;" horiz-adv-x="1102" 
d="M119 422v584q0 44 24 70t66 26q41 0 65.5 -26t24.5 -70v-578q0 -285 252 -285t252 285v578q0 44 24 70t66 26q41 0 65.5 -26t24.5 -70v-584q0 -138 -52.5 -235.5t-151.5 -148t-228 -50.5q-197 0 -314.5 112t-117.5 322zM551 1329q-173 -68 -195 -77t-43 -9
q-32 0 -52.5 22.5t-20.5 55.5q0 52 47 72l264 112l262 -111q27 -12 38 -29.5t11 -43.5q0 -33 -20.5 -55.5t-53.5 -22.5q-19 0 -35 6z" />
    <glyph glyph-name="udieresis" unicode="&#xfc;" horiz-adv-x="1102" 
d="M119 422v584q0 44 24 70t66 26q41 0 65.5 -26t24.5 -70v-578q0 -285 252 -285t252 285v578q0 44 24 70t66 26q41 0 65.5 -26t24.5 -70v-584q0 -138 -52.5 -235.5t-151.5 -148t-228 -50.5q-197 0 -314.5 112t-117.5 322zM360 1237q-45 0 -77.5 32.5t-32.5 78.5t32 78
t78 32t78.5 -32.5t32.5 -77.5q0 -46 -32 -78.5t-79 -32.5zM741 1237q-45 0 -77.5 32.5t-32.5 78.5q0 45 32.5 77.5t77.5 32.5q46 0 78.5 -32.5t32.5 -77.5q0 -46 -32.5 -78.5t-78.5 -32.5z" />
    <glyph glyph-name="yacute" unicode="&#xfd;" horiz-adv-x="909" 
d="M367 39l-308 887q-24 73 -24 100q0 32 24.5 54t57.5 22q67 0 90 -68l250 -747h4l246 747q21 68 86 68q32 0 56.5 -22t24.5 -54q0 -30 -24 -100l-455 -1301q-25 -67 -88 -67q-32 0 -57 21.5t-25 53.5q0 30 27 101zM681 1434q0 -21 -15 -40t-84 -47l-162 -66
q-91 -38 -116 -38q-34 0 -55.5 28t-21.5 58q0 21 14.5 39.5t84.5 47.5l161 66q92 38 116 38q35 0 56.5 -28.5t21.5 -57.5z" />
    <glyph glyph-name="thorn" unicode="&#xfe;" horiz-adv-x="1139" 
d="M127 -346v1831q0 44 24.5 70t65.5 26q42 0 66 -26t24 -70v-533h4q78 150 291 150q206 0 335.5 -161.5t129.5 -395.5t-129.5 -395.5t-335.5 -161.5q-182 0 -291 147h-4v-481q0 -44 -24 -70t-66 -26q-41 0 -65.5 26t-24.5 70zM588 946q-142 0 -220.5 -113.5t-78.5 -287.5
t78.5 -288t220.5 -114t220.5 114t78.5 288t-78.5 287.5t-220.5 113.5z" />
    <glyph glyph-name="ydieresis" unicode="&#xff;" horiz-adv-x="909" 
d="M367 39l-308 887q-24 73 -24 100q0 32 24.5 54t57.5 22q67 0 90 -68l250 -747h4l246 747q21 68 86 68q32 0 56.5 -22t24.5 -54q0 -30 -24 -100l-455 -1301q-25 -67 -88 -67q-32 0 -57 21.5t-25 53.5q0 30 27 101zM264 1237q-45 0 -77.5 32.5t-32.5 78.5t32 78t78 32
t78.5 -32.5t32.5 -77.5q0 -46 -32 -78.5t-79 -32.5zM645 1237q-45 0 -77.5 32.5t-32.5 78.5q0 45 32.5 77.5t77.5 32.5q46 0 78.5 -32.5t32.5 -77.5q0 -46 -32.5 -78.5t-78.5 -32.5z" />
    <glyph glyph-name="Amacron" unicode="&#x100;" horiz-adv-x="1253" 
d="M289 317l-95 -263q-11 -32 -33 -49t-55 -17q-37 0 -61.5 21t-24.5 54q0 25 25 91l453 1206q42 110 129 110t129 -110l452 -1206q25 -74 25 -91q0 -34 -25 -54.5t-61 -20.5q-33 0 -54.5 16t-37.5 62l-90 251h-676zM909 473l-280 789h-4l-281 -789h565zM420 1739h414
q88 0 88 -84t-88 -84h-414q-88 0 -88 84t88 84z" />
    <glyph glyph-name="amacron" unicode="&#x101;" horiz-adv-x="1139" 
d="M1020 1014v-938q0 -44 -26.5 -66t-57.5 -22q-34 0 -59 23.5t-25 64.5v76h-4q-116 -164 -297 -164q-214 0 -346.5 161t-132.5 396t132.5 396t346.5 161q167 0 297 -146h4v58q0 41 25 64.5t59 23.5q33 0 58.5 -23.5t25.5 -64.5zM551 946q-142 0 -220.5 -113.5t-78.5 -287.5
t78.5 -288t220.5 -114t220.5 114t78.5 288t-78.5 287.5t-220.5 113.5zM350 1411h414q88 0 88 -84t-88 -84h-414q-88 0 -88 84t88 84z" />
    <glyph glyph-name="Abreve" unicode="&#x102;" horiz-adv-x="1253" 
d="M289 317l-95 -263q-11 -32 -33 -49t-55 -17q-37 0 -61.5 21t-24.5 54q0 25 25 91l453 1206q42 110 129 110t129 -110l452 -1206q25 -74 25 -91q0 -34 -25 -54.5t-61 -20.5q-33 0 -54.5 16t-37.5 62l-90 251h-676zM909 473l-280 789h-4l-281 -789h565zM627 1556
q-97 0 -187 58.5t-90 139.5q0 32 18 53t46 21q27 0 74 -45q47 -46 78 -59t61 -13t61 13t78 59q47 45 74 45q28 0 45.5 -21t17.5 -53q0 -84 -91 -141t-185 -57z" />
    <glyph glyph-name="abreve" unicode="&#x103;" horiz-adv-x="1139" 
d="M1020 1014v-938q0 -44 -26.5 -66t-57.5 -22q-34 0 -59 23.5t-25 64.5v76h-4q-116 -164 -297 -164q-214 0 -346.5 161t-132.5 396t132.5 396t346.5 161q167 0 297 -146h4v58q0 41 25 64.5t59 23.5q33 0 58.5 -23.5t25.5 -64.5zM551 946q-142 0 -220.5 -113.5t-78.5 -287.5
t78.5 -288t220.5 -114t220.5 114t78.5 288t-78.5 287.5t-220.5 113.5zM562 1229q-97 0 -187 58.5t-90 139.5q0 32 18 53t46 21q27 0 74 -45q47 -46 78 -59t61 -13t61 13t78 59q47 45 74 45q28 0 45.5 -21t17.5 -53q0 -84 -91 -141t-185 -57z" />
    <glyph glyph-name="Aogonek" unicode="&#x104;" horiz-adv-x="1253" 
d="M195 55q-24 -67 -89 -67q-35 0 -60.5 20t-25.5 55q0 25 19 73q4 11 6 18l453 1206q41 110 129 110q90 0 129 -110l452 -1206q23 -61 23 -86q0 -40 -31 -66l-51 -47q-76 -70 -76 -139q0 -70 76 -70q34 0 57 8q22 8 39 8q49 0 49 -47q0 -80 -174 -80q-202 0 -202 150
q0 104 122 197l41 30q-7 7 -22 43l-94 262h-676zM629 1262h-4l-281 -789h565z" />
    <glyph glyph-name="aogonek" unicode="&#x105;" horiz-adv-x="1139" 
d="M852 152h-4q-115 -164 -297 -164q-213 0 -346 160t-133 397t133 397t346 160q166 0 297 -146h4v58q0 41 25 64.5t59 23.5q32 0 58 -23t26 -65v-930q0 -50 -39 -84q-100 -97 -100 -184q0 -70 75 -70q34 0 57 8t40 8q49 0 49 -47q0 -80 -174 -80q-203 0 -203 150
q0 110 139 227q-12 17 -12 78v62zM551 143q141 0 220 113.5t79 288.5t-79.5 288t-219.5 113t-219.5 -113t-79.5 -288t79 -288.5t220 -113.5z" />
    <glyph glyph-name="Cacute" unicode="&#x106;" horiz-adv-x="1214" 
d="M713 1315q-213 0 -335 -168t-122 -418q0 -246 120.5 -416t325.5 -170q62 0 129 17t165 74q70 40 98 40q32 0 51.5 -22.5t19.5 -61.5q0 -72 -139 -137t-324 -65q-289 0 -464 213t-175 528q0 317 177 529t473 212q175 0 298.5 -74t123.5 -139q0 -36 -21 -61t-53 -25
q-31 0 -87 46q-77 62 -139 80t-122 18zM964 1762q0 -21 -15 -40t-84 -47l-162 -66q-91 -38 -116 -38q-34 0 -55.5 28t-21.5 58q0 21 14.5 39.5t84.5 47.5l161 66q92 38 116 38q35 0 56.5 -28.5t21.5 -57.5z" />
    <glyph glyph-name="cacute" unicode="&#x107;" horiz-adv-x="909" 
d="M563 -12q-226 0 -358.5 157.5t-132.5 399.5t132.5 399.5t358.5 157.5q133 0 213 -40t80 -97q0 -30 -21.5 -53t-52.5 -23q-30 0 -77 22q-72 35 -142 35q-145 0 -228 -116t-83 -285t83 -285.5t228 -116.5q76 0 152 40q42 22 65 22q70 0 70 -76q0 -56 -78.5 -98.5
t-208.5 -42.5zM786 1434q0 -21 -15 -40t-84 -47l-162 -66q-91 -38 -116 -38q-34 0 -55.5 28t-21.5 58q0 21 14.5 39.5t84.5 47.5l161 66q92 38 116 38q35 0 56.5 -28.5t21.5 -57.5z" />
    <glyph glyph-name="Ccircumflex" unicode="&#x108;" horiz-adv-x="1214" 
d="M713 1315q-213 0 -335 -168t-122 -418q0 -246 120.5 -416t325.5 -170q62 0 129 17t165 74q70 40 98 40q32 0 51.5 -22.5t19.5 -61.5q0 -72 -139 -137t-324 -65q-289 0 -464 213t-175 528q0 317 177 529t473 212q175 0 298.5 -74t123.5 -139q0 -36 -21 -61t-53 -25
q-31 0 -87 46q-77 62 -139 80t-122 18zM696 1657q-173 -68 -195 -77t-43 -9q-32 0 -52.5 22.5t-20.5 55.5q0 52 47 72l264 112l262 -111q27 -12 38 -29.5t11 -43.5q0 -33 -20.5 -55.5t-53.5 -22.5q-19 0 -35 6z" />
    <glyph glyph-name="ccircumflex" unicode="&#x109;" horiz-adv-x="909" 
d="M563 -12q-226 0 -358.5 157.5t-132.5 399.5t132.5 399.5t358.5 157.5q133 0 213 -40t80 -97q0 -30 -21.5 -53t-52.5 -23q-30 0 -77 22q-72 35 -142 35q-145 0 -228 -116t-83 -285t83 -285.5t228 -116.5q76 0 152 40q42 22 65 22q70 0 70 -76q0 -56 -78.5 -98.5
t-208.5 -42.5zM532 1329q-173 -68 -195 -77t-43 -9q-32 0 -52.5 22.5t-20.5 55.5q0 52 47 72l264 112l262 -111q27 -12 38 -29.5t11 -43.5q0 -33 -20.5 -55.5t-53.5 -22.5q-19 0 -35 6z" />
    <glyph glyph-name="Ccaron" unicode="&#x10c;" horiz-adv-x="1214" 
d="M713 1315q-213 0 -335 -168t-122 -418q0 -246 120.5 -416t325.5 -170q62 0 129 17t165 74q70 40 98 40q32 0 51.5 -22.5t19.5 -61.5q0 -72 -139 -137t-324 -65q-289 0 -464 213t-175 528q0 317 177 529t473 212q175 0 298.5 -74t123.5 -139q0 -36 -21 -61t-53 -25
q-31 0 -87 46q-77 62 -139 80t-122 18zM700 1571l-262 112q-27 11 -38 29t-11 43q0 34 20 56t53 22q20 0 36 -6l202 -80q173 68 195 77t42 9q33 0 53.5 -22t20.5 -56q0 -51 -47 -71z" />
    <glyph glyph-name="ccaron" unicode="&#x10d;" horiz-adv-x="909" 
d="M563 -12q-226 0 -358.5 157.5t-132.5 399.5t132.5 399.5t358.5 157.5q133 0 213 -40t80 -97q0 -30 -21.5 -53t-52.5 -23q-30 0 -77 22q-72 35 -142 35q-145 0 -228 -116t-83 -285t83 -285.5t228 -116.5q76 0 152 40q42 22 65 22q70 0 70 -76q0 -56 -78.5 -98.5
t-208.5 -42.5zM544 1243l-262 112q-27 11 -38 29t-11 43q0 34 20 56t53 22q20 0 36 -6l202 -80q173 68 195 77t42 9q33 0 53.5 -22t20.5 -56q0 -51 -47 -71z" />
    <glyph glyph-name="Dcaron" unicode="&#x10e;" horiz-adv-x="1290" 
d="M129 98v1262q0 98 96 98h355q299 0 473 -201.5t174 -519.5q0 -335 -169 -536t-454 -201h-379q-96 0 -96 98zM309 1303v-1147h258q224 0 345.5 158.5t121.5 422.5q0 260 -124.5 413t-354.5 153h-246zM637 1571l-262 112q-27 11 -38 29t-11 43q0 34 20 56t53 22q20 0 36 -6
l202 -80q173 68 195 77t42 9q33 0 53.5 -22t20.5 -56q0 -51 -47 -71z" />
    <glyph glyph-name="dcaron" unicode="&#x10f;" horiz-adv-x="1139" 
d="M831 137h-4q-78 -149 -290 -149q-206 0 -335.5 161t-129.5 396t129.5 396t335.5 161q180 0 290 -148h4v531q0 96 91 96q90 0 90 -96v-1401q0 -96 -90 -96q-91 0 -91 96v53zM551 946q-140 0 -219.5 -113t-79.5 -288t79 -288.5t220 -113.5t220 113.5t79 288.5t-79.5 288
t-219.5 113zM1196 1511q29 70 84 70q76 0 76 -74q0 -27 -17 -59l-88 -197q-31 -69 -82 -69q-75 0 -75 67q0 19 18 62z" />
    <glyph glyph-name="Dcroat" unicode="&#x110;" horiz-adv-x="1290" 
d="M129 98v559h-78q-88 0 -88 78t88 78h78v547q0 98 96 98h355q299 0 473 -201.5t174 -519.5q0 -335 -169 -536t-454 -201h-379q-96 0 -96 98zM309 657v-501h258q224 0 345.5 158.5t121.5 422.5q0 260 -124.5 413t-354.5 153h-246v-490h246q88 0 88 -78t-88 -78h-246z" />
    <glyph glyph-name="dcroat" unicode="&#x111;" horiz-adv-x="1139" 
d="M831 137h-4q-78 -149 -290 -149q-206 0 -335.5 161t-129.5 396t129.5 396t335.5 161q180 0 290 -148h4v289h-231q-88 0 -88 78t88 78h231v86q0 96 91 96q90 0 90 -96v-86h45q88 0 88 -78t-88 -78h-45v-1159q0 -96 -90 -96q-91 0 -91 96v53zM551 946q-140 0 -219.5 -113
t-79.5 -288t79 -288.5t220 -113.5t220 113.5t79 288.5t-79.5 288t-219.5 113z" />
    <glyph glyph-name="Emacron" unicode="&#x112;" horiz-adv-x="909" 
d="M299 645v-477h434q88 0 88 -84t-88 -84h-518q-96 0 -96 98v1262q0 98 96 98h518q88 0 88 -84t-88 -84h-434v-477h395q88 0 88 -84t-88 -84h-395zM266 1739h414q88 0 88 -84t-88 -84h-414q-88 0 -88 84t88 84z" />
    <glyph glyph-name="emacron" unicode="&#x113;" horiz-adv-x="1065" 
d="M911 475h-678q0 -144 87 -238t235 -94q68 0 137.5 20t155.5 87q52 41 76 41q26 0 45.5 -22t19.5 -58q0 -68 -140.5 -145.5t-295.5 -77.5q-235 0 -367.5 155t-132.5 402q0 235 137 396t353 161q205 0 337 -157.5t132 -373.5q0 -50 -22 -73t-79 -23zM233 610h598
q0 139 -80 237.5t-216 98.5q-137 0 -215.5 -89t-86.5 -247zM348 1411h414q88 0 88 -84t-88 -84h-414q-88 0 -88 84t88 84z" />
    <glyph glyph-name="Edotaccent" unicode="&#x116;" horiz-adv-x="909" 
d="M299 645v-477h434q88 0 88 -84t-88 -84h-518q-96 0 -96 98v1262q0 98 96 98h518q88 0 88 -84t-88 -84h-434v-477h395q88 0 88 -84t-88 -84h-395zM470 1565q-46 0 -78.5 32.5t-32.5 78.5t32.5 78t78.5 32t78 -32.5t32 -77.5q0 -46 -32 -78.5t-78 -32.5z" />
    <glyph glyph-name="edotaccent" unicode="&#x117;" horiz-adv-x="1065" 
d="M911 475h-678q0 -144 87 -238t235 -94q68 0 137.5 20t155.5 87q52 41 76 41q26 0 45.5 -22t19.5 -58q0 -68 -140.5 -145.5t-295.5 -77.5q-235 0 -367.5 155t-132.5 402q0 235 137 396t353 161q205 0 337 -157.5t132 -373.5q0 -50 -22 -73t-79 -23zM233 610h598
q0 139 -80 237.5t-216 98.5q-137 0 -215.5 -89t-86.5 -247zM560 1237q-46 0 -78.5 32.5t-32.5 78.5t32.5 78t78.5 32t78 -32.5t32 -77.5q0 -46 -32 -78.5t-78 -32.5z" />
    <glyph glyph-name="Eogonek" unicode="&#x118;" horiz-adv-x="909" 
d="M299 168h434q88 0 88 -84q0 -48 -47 -78q-174 -107 -174 -190q0 -70 76 -70q34 0 57 8q22 8 39 8q49 0 49 -47q0 -80 -174 -80q-88 0 -145.5 41.5t-57.5 108.5q0 126 148 215h-377q-96 0 -96 98v1262q0 98 96 98h518q88 0 88 -84t-88 -84h-434v-477h395q88 0 88 -84
t-88 -84h-395v-477z" />
    <glyph glyph-name="eogonek" unicode="&#x119;" horiz-adv-x="1065" 
d="M233 475q0 -144 87.5 -238t234.5 -94q92 0 154.5 24t135.5 83q46 37 70 37q70 0 70 -68q0 -51 -51 -96q-87 -79 -136.5 -159t-49.5 -134q0 -84 77 -84q34 0 57 8t40 8q49 0 49 -47q0 -80 -174 -80q-199 0 -199 158q0 112 98 213q-80 -18 -143 -18q-233 0 -366.5 154
t-133.5 403q0 236 137.5 396.5t352.5 160.5q205 0 337 -157.5t132 -373.5q0 -48 -21 -72t-80 -24h-678zM831 610q0 138 -78.5 237t-209.5 99q-140 0 -220.5 -86.5t-89.5 -249.5h598z" />
    <glyph glyph-name="Ecaron" unicode="&#x11a;" horiz-adv-x="909" 
d="M299 645v-477h434q88 0 88 -84t-88 -84h-518q-96 0 -96 98v1262q0 98 96 98h518q88 0 88 -84t-88 -84h-434v-477h395q88 0 88 -84t-88 -84h-395zM475 1571l-262 112q-27 11 -38 29t-11 43q0 34 20 56t53 22q20 0 36 -6l202 -80q173 68 195 77t42 9q33 0 53.5 -22
t20.5 -56q0 -51 -47 -71z" />
    <glyph glyph-name="ecaron" unicode="&#x11b;" horiz-adv-x="1065" 
d="M911 475h-678q0 -144 87 -238t235 -94q68 0 137.5 20t155.5 87q52 41 76 41q26 0 45.5 -22t19.5 -58q0 -68 -140.5 -145.5t-295.5 -77.5q-235 0 -367.5 155t-132.5 402q0 235 137 396t353 161q205 0 337 -157.5t132 -373.5q0 -50 -22 -73t-79 -23zM233 610h598
q0 139 -80 237.5t-216 98.5q-137 0 -215.5 -89t-86.5 -247zM559 1243l-262 112q-27 11 -38 29t-11 43q0 34 20 56t53 22q20 0 36 -6l202 -80q173 68 195 77t42 9q33 0 53.5 -22t20.5 -56q0 -51 -47 -71z" />
    <glyph glyph-name="Gcircumflex" unicode="&#x11c;" horiz-adv-x="1366" 
d="M1145 668h-254q-88 0 -88 84t88 84h303q74 0 102.5 -34t28.5 -114q0 -343 -157 -521.5t-466 -178.5q-288 0 -463.5 213.5t-175.5 527.5q0 322 178.5 531.5t487.5 209.5q205 0 352.5 -82.5t147.5 -150.5q0 -36 -24.5 -61t-61.5 -25q-34 0 -104 51q-99 71 -174.5 92
t-147.5 21q-215 0 -338 -167.5t-123 -418.5q0 -254 124 -420t345 -166q189 0 304.5 133t115.5 306v86zM704 1657q-173 -68 -195 -77t-43 -9q-32 0 -52.5 22.5t-20.5 55.5q0 52 47 72l264 112l262 -111q27 -12 38 -29.5t11 -43.5q0 -33 -20.5 -55.5t-53.5 -22.5q-19 0 -35 6z
" />
    <glyph glyph-name="gcircumflex" unicode="&#x11d;" horiz-adv-x="1139" 
d="M1012 1014v-936q0 -239 -134 -379.5t-358 -140.5q-143 0 -280.5 66t-137.5 132q0 36 20 60t56 24q32 0 103 -43q86 -53 143.5 -68.5t110.5 -15.5q144 0 220 92t76 244v94h-4q-94 -155 -276 -155q-214 0 -346.5 161t-132.5 396t132.5 396t346.5 161q77 0 155 -39.5
t121 -97.5h4v49q0 42 26.5 65t70.5 23q33 0 58.5 -23.5t25.5 -64.5zM551 946q-142 0 -220.5 -113.5t-78.5 -287.5t78.5 -288t220.5 -114t220.5 114t78.5 288t-78.5 287.5t-220.5 113.5zM540 1329q-173 -68 -195 -77t-43 -9q-32 0 -52.5 22.5t-20.5 55.5q0 52 47 72l264 112
l262 -111q27 -12 38 -29.5t11 -43.5q0 -33 -20.5 -55.5t-53.5 -22.5q-19 0 -35 6z" />
    <glyph glyph-name="Gbreve" unicode="&#x11e;" horiz-adv-x="1366" 
d="M1145 668h-254q-88 0 -88 84t88 84h303q74 0 102.5 -34t28.5 -114q0 -343 -157 -521.5t-466 -178.5q-288 0 -463.5 213.5t-175.5 527.5q0 322 178.5 531.5t487.5 209.5q205 0 352.5 -82.5t147.5 -150.5q0 -36 -24.5 -61t-61.5 -25q-34 0 -104 51q-99 71 -174.5 92
t-147.5 21q-215 0 -338 -167.5t-123 -418.5q0 -254 124 -420t345 -166q189 0 304.5 133t115.5 306v86zM707 1556q-97 0 -187 58.5t-90 139.5q0 32 18 53t46 21q27 0 74 -45q47 -46 78 -59t61 -13t61 13t78 59q47 45 74 45q28 0 45.5 -21t17.5 -53q0 -84 -91 -141t-185 -57z
" />
    <glyph glyph-name="gbreve" unicode="&#x11f;" horiz-adv-x="1139" 
d="M1012 1014v-936q0 -239 -134 -379.5t-358 -140.5q-143 0 -280.5 66t-137.5 132q0 36 20 60t56 24q32 0 103 -43q86 -53 143.5 -68.5t110.5 -15.5q144 0 220 92t76 244v94h-4q-94 -155 -276 -155q-214 0 -346.5 161t-132.5 396t132.5 396t346.5 161q77 0 155 -39.5
t121 -97.5h4v49q0 42 26.5 65t70.5 23q33 0 58.5 -23.5t25.5 -64.5zM551 946q-142 0 -220.5 -113.5t-78.5 -287.5t78.5 -288t220.5 -114t220.5 114t78.5 288t-78.5 287.5t-220.5 113.5zM541 1229q-97 0 -187 58.5t-90 139.5q0 32 18 53t46 21q27 0 74 -45q47 -46 78 -59
t61 -13t61 13t78 59q47 45 74 45q28 0 45.5 -21t17.5 -53q0 -84 -91 -141t-185 -57z" />
    <glyph glyph-name="Gcommaaccent" unicode="&#x122;" horiz-adv-x="1366" 
d="M1145 668h-254q-88 0 -88 84t88 84h303q74 0 102.5 -34t28.5 -114q0 -343 -157 -521.5t-466 -178.5q-288 0 -463.5 213.5t-175.5 527.5q0 322 178.5 531.5t487.5 209.5q205 0 352.5 -82.5t147.5 -150.5q0 -36 -24.5 -61t-61.5 -25q-34 0 -104 51q-99 71 -174.5 92
t-147.5 21q-215 0 -338 -167.5t-123 -418.5q0 -254 124 -420t345 -166q189 0 304.5 133t115.5 306v86zM634 -143q26 65 80 65q72 0 72 -69q0 -26 -17 -58l-67 -149q-30 -66 -78 -66q-70 0 -70 66q0 18 19 61z" />
    <glyph glyph-name="gcommaaccent" unicode="&#x123;" horiz-adv-x="1139" 
d="M621 1272q-27 -68 -84 -68q-78 0 -78 72q0 21 18 63l70 156q31 68 84 68q74 0 74 -68q0 -18 -21 -65zM1012 78q0 -237 -133.5 -378.5t-358.5 -141.5q-142 0 -280 65.5t-138 132.5q0 84 76 84q31 0 63 -20q97 -61 158 -84t136 -23q144 0 220 91.5t76 244.5v94h-4
q-95 -155 -276 -155q-213 0 -346 160t-133 397t133 397t346 160q74 0 151.5 -38t124.5 -99h4v49q0 88 97 88q32 0 58 -23t26 -65v-936zM551 143q141 0 220 113.5t79 288.5t-79.5 288t-219.5 113t-219.5 -113t-79.5 -288t79 -288.5t220 -113.5z" />
    <glyph glyph-name="Hcircumflex" unicode="&#x124;" horiz-adv-x="1366" 
d="M299 653v-557q0 -108 -90 -108t-90 108v1266q0 108 90 108t90 -108v-553h768v553q0 108 90 108t90 -108v-1266q0 -108 -90 -108t-90 108v557h-768zM682 1657q-173 -68 -195 -77t-43 -9q-32 0 -52.5 22.5t-20.5 55.5q0 52 47 72l264 112l262 -111q27 -12 38 -29.5
t11 -43.5q0 -33 -20.5 -55.5t-53.5 -22.5q-19 0 -35 6z" />
    <glyph glyph-name="hcircumflex" unicode="&#x125;" horiz-adv-x="1102" 
d="M803 84v594q0 132 -75.5 200t-176.5 68q-106 0 -179 -71t-73 -197v-594q0 -44 -24.5 -70t-65.5 -26q-42 0 -66 26t-24 70v1401q0 44 24 70t66 26q41 0 65.5 -26t24.5 -70v-522l4 -5q113 144 301 144q160 0 269.5 -108.5t109.5 -305.5v-604q0 -44 -24.5 -70t-65.5 -26
q-42 0 -66 26t-24 70zM579 1739q-173 -68 -195 -77t-43 -9q-32 0 -52.5 22.5t-20.5 55.5q0 52 47 72l264 112l262 -111q27 -12 38 -29.5t11 -43.5q0 -33 -20.5 -55.5t-53.5 -22.5q-19 0 -35 6z" />
    <glyph glyph-name="Imacron" unicode="&#x12a;" 
d="M299 1374v-1290q0 -44 -24.5 -70t-65.5 -26q-42 0 -66 26t-24 70v1290q0 45 24 70.5t66 25.5q41 0 65.5 -25.5t24.5 -70.5zM2 1739h414q88 0 88 -84t-88 -84h-414q-88 0 -88 84t88 84z" />
    <glyph glyph-name="imacron" unicode="&#x12b;" 
d="M299 1006v-922q0 -44 -24.5 -70t-65.5 -26q-42 0 -66 26t-24 70v922q0 44 24 70t66 26q41 0 65.5 -26t24.5 -70zM2 1411h414q88 0 88 -84t-88 -84h-414q-88 0 -88 84t88 84z" />
    <glyph glyph-name="Iogonek" unicode="&#x12e;" 
d="M299 84q0 -50 -39 -84q-100 -97 -100 -184q0 -70 76 -70q34 0 57 8q22 8 39 8q49 0 49 -47q0 -80 -174 -80q-203 0 -203 150q0 110 139 227q-24 25 -24 72v1290q0 96 90 96t90 -96v-1290z" />
    <glyph glyph-name="iogonek" unicode="&#x12f;" 
d="M209 1470q46 0 78 -32t32 -78t-32 -78.5t-78 -32.5q-47 0 -79 32t-32 79q0 46 32.5 78t78.5 32zM299 84q0 -50 -39 -84q-100 -97 -100 -184q0 -70 76 -70q34 0 57 8q22 8 39 8q49 0 49 -47q0 -80 -174 -80q-203 0 -203 150q0 110 139 227q-24 25 -24 72v922q0 96 90 96
t90 -96v-922z" />
    <glyph glyph-name="Idotaccent" unicode="&#x130;" 
d="M299 1374v-1290q0 -44 -24.5 -70t-65.5 -26q-42 0 -66 26t-24 70v1290q0 45 24 70.5t66 25.5q41 0 65.5 -25.5t24.5 -70.5zM209 1565q-46 0 -78.5 32.5t-32.5 78.5t32.5 78t78.5 32t78 -32.5t32 -77.5q0 -46 -32 -78.5t-78 -32.5z" />
    <glyph glyph-name="dotlessi" unicode="&#x131;" 
d="M299 1006v-922q0 -44 -24.5 -70t-65.5 -26q-42 0 -66 26t-24 70v922q0 44 24 70t66 26q41 0 65.5 -26t24.5 -70z" />
    <glyph glyph-name="Jcircumflex" unicode="&#x134;" horiz-adv-x="758" 
d="M459 352v1022q0 45 24 70.5t66 25.5q41 0 65.5 -25.5t24.5 -70.5v-1003q0 -383 -354 -383q-96 0 -197.5 47.5t-101.5 116.5q0 33 19.5 54t51.5 21q35 0 79 -32q73 -52 163 -52q160 0 160 209zM549 1657q-173 -68 -195 -77t-43 -9q-32 0 -52.5 22.5t-20.5 55.5q0 52 47 72
l264 112l262 -111q27 -12 38 -29.5t11 -43.5q0 -33 -20.5 -55.5t-53.5 -22.5q-19 0 -35 6z" />
    <glyph glyph-name="jcircumflex" unicode="&#x135;" 
d="M299 -346q0 -96 -90 -96t-90 96v1352q0 96 90 96t90 -96v-1352zM209 1329q-173 -68 -195 -77t-43 -9q-32 0 -52.5 22.5t-20.5 55.5q0 52 47 72l264 112l262 -111q27 -12 38 -29.5t11 -43.5q0 -33 -20.5 -55.5t-53.5 -22.5q-19 0 -35 6z" />
    <glyph glyph-name="Kcommaaccent" unicode="&#x136;" horiz-adv-x="1176" 
d="M299 694v-610q0 -44 -24.5 -70t-65.5 -26q-42 0 -66 26t-24 70v1290q0 45 24 70.5t66 25.5q41 0 65.5 -25.5t24.5 -70.5v-532l625 571q61 57 98 57q34 0 56 -21.5t22 -55.5q0 -49 -37 -82l-598 -539l653 -631q37 -34 37 -73q0 -33 -25.5 -56.5t-62.5 -23.5q-48 0 -88 39z
M553 -143q26 65 80 65q72 0 72 -69q0 -26 -17 -58l-67 -149q-30 -66 -78 -66q-70 0 -70 66q0 18 19 61z" />
    <glyph glyph-name="kcommaaccent" unicode="&#x137;" horiz-adv-x="948" 
d="M119 84v1401q0 44 24 70t66 26q41 0 65.5 -26t24.5 -70v-768l420 352q14 12 36.5 22.5t39.5 10.5q34 0 54.5 -22.5t20.5 -57.5q0 -21 -9 -38.5t-70 -66.5l-375 -296l310 -306q171 -169 183 -182.5t18.5 -31.5t6.5 -42q0 -29 -23 -50t-53 -21q-34 0 -55.5 13.5
t-167.5 165.5l-336 351v-434q0 -44 -24.5 -70t-65.5 -26q-42 0 -66 26t-24 70zM442 -143q26 65 80 65q72 0 72 -69q0 -26 -17 -58l-67 -149q-30 -66 -78 -66q-70 0 -70 66q0 18 19 61z" />
    <glyph glyph-name="Lacute" unicode="&#x139;" horiz-adv-x="797" 
d="M299 1374v-1206h385q88 0 88 -84t-88 -84h-469q-96 0 -96 98v1276q0 45 24 70.5t66 25.5q41 0 65.5 -25.5t24.5 -70.5zM585 1762q0 -21 -15 -40t-84 -47l-162 -66q-91 -38 -116 -38q-34 0 -55.5 28t-21.5 58q0 21 14.5 39.5t84.5 47.5l161 66q92 38 116 38
q35 0 56.5 -28.5t21.5 -57.5z" />
    <glyph glyph-name="lacute" unicode="&#x13a;" 
d="M299 1485v-1401q0 -44 -24.5 -70t-65.5 -26q-42 0 -66 26t-24 70v1401q0 44 24 70t66 26q41 0 65.5 -26t24.5 -70zM579 1844q0 -21 -15 -40t-84 -47l-162 -66q-91 -38 -116 -38q-34 0 -55.5 28t-21.5 58q0 21 14.5 39.5t84.5 47.5l161 66q92 38 116 38q35 0 56.5 -28.5
t21.5 -57.5z" />
    <glyph glyph-name="Lcommaaccent" unicode="&#x13b;" horiz-adv-x="797" 
d="M299 1374v-1206h385q88 0 88 -84t-88 -84h-469q-96 0 -96 98v1276q0 45 24 70.5t66 25.5q41 0 65.5 -25.5t24.5 -70.5zM376 -143q26 65 80 65q72 0 72 -69q0 -26 -17 -58l-67 -149q-30 -66 -78 -66q-70 0 -70 66q0 18 19 61z" />
    <glyph glyph-name="lcommaaccent" unicode="&#x13c;" 
d="M299 1485v-1401q0 -44 -24.5 -70t-65.5 -26q-42 0 -66 26t-24 70v1401q0 44 24 70t66 26q41 0 65.5 -26t24.5 -70zM153 -143q26 65 80 65q72 0 72 -69q0 -26 -17 -58l-67 -149q-30 -66 -78 -66q-70 0 -70 66q0 18 19 61z" />
    <glyph glyph-name="Lcaron" unicode="&#x13d;" horiz-adv-x="797" 
d="M299 168h385q88 0 88 -84t-88 -84h-469q-96 0 -96 98v1276q0 96 90 96t90 -96v-1206zM594 1401q29 69 84 69q76 0 76 -73q0 -28 -17 -60l-88 -196q-31 -70 -82 -70q-75 0 -75 68q0 21 18 61z" />
    <glyph glyph-name="lcaron" unicode="&#x13e;" 
d="M299 84q0 -96 -90 -96t-90 96v1401q0 96 90 96t90 -96v-1401zM483 1511q29 70 84 70q76 0 76 -74q0 -25 -16 -59l-88 -197q-31 -69 -82 -69q-76 0 -76 67q0 19 18 62z" />
    <glyph glyph-name="Lslash" unicode="&#x141;" horiz-adv-x="797" 
d="M299 690v-522h385q88 0 88 -84t-88 -84h-469q-96 0 -96 98v488q-59 -39 -103 -39q-31 0 -51 24t-20 58q0 33 18.5 48.5t155.5 96.5v600q0 45 24 70.5t66 25.5q41 0 65.5 -25.5t24.5 -70.5v-495q144 81 165 91.5t48 10.5q33 0 54.5 -21.5t21.5 -56.5q0 -47 -49 -76z" />
    <glyph glyph-name="lslash" unicode="&#x142;" 
d="M119 84v498q-59 -61 -77 -68.5t-34 -7.5q-34 0 -57 23t-23 55q0 34 31 65l160 160v676q0 44 24 70t66 26q41 0 65.5 -26t24.5 -70v-496q57 57 71.5 66.5t39.5 9.5q34 0 56.5 -23t22.5 -55q0 -34 -30 -65l-160 -160v-678q0 -44 -24.5 -70t-65.5 -26q-42 0 -66 26t-24 70z
" />
    <glyph glyph-name="Nacute" unicode="&#x143;" horiz-adv-x="1368" 
d="M299 1141v-1057q0 -44 -24.5 -70t-65.5 -26q-42 0 -66 26t-24 70v1280q0 106 82 106q38 0 62.5 -18.5t64.5 -75.5l737 -1059h4v1057q0 45 24.5 70.5t65.5 25.5q42 0 66 -25.5t24 -70.5v-1280q0 -106 -82 -106q-38 0 -62.5 18.5t-64.5 75.5l-737 1059h-4zM976 1762
q0 -21 -15 -40t-84 -47l-162 -66q-91 -38 -116 -38q-34 0 -55.5 28t-21.5 58q0 21 14.5 39.5t84.5 47.5l161 66q92 38 116 38q35 0 56.5 -28.5t21.5 -57.5z" />
    <glyph glyph-name="nacute" unicode="&#x144;" horiz-adv-x="1102" 
d="M119 84v922q0 44 24 70t66 26q41 0 65.5 -26t24.5 -70v-43l4 -5q113 144 301 144q160 0 269.5 -108.5t109.5 -305.5v-604q0 -44 -24.5 -70t-65.5 -26q-42 0 -66 26t-24 70v594q0 132 -75.5 200t-176.5 68q-106 0 -179 -71t-73 -197v-594q0 -44 -24.5 -70t-65.5 -26
q-42 0 -66 26t-24 70zM835 1434q0 -21 -15 -40t-84 -47l-162 -66q-91 -38 -116 -38q-34 0 -55.5 28t-21.5 58q0 21 14.5 39.5t84.5 47.5l161 66q92 38 116 38q35 0 56.5 -28.5t21.5 -57.5z" />
    <glyph glyph-name="Ncommaaccent" unicode="&#x145;" horiz-adv-x="1368" 
d="M299 1141v-1057q0 -44 -24.5 -70t-65.5 -26q-42 0 -66 26t-24 70v1280q0 106 82 106q38 0 62.5 -18.5t64.5 -75.5l737 -1059h4v1057q0 45 24.5 70.5t65.5 25.5q42 0 66 -25.5t24 -70.5v-1280q0 -106 -82 -106q-38 0 -62.5 18.5t-64.5 75.5l-737 1059h-4zM624 -143
q26 65 80 65q72 0 72 -69q0 -26 -17 -58l-67 -149q-30 -66 -78 -66q-70 0 -70 66q0 18 19 61z" />
    <glyph glyph-name="ncommaaccent" unicode="&#x146;" horiz-adv-x="1102" 
d="M119 84v922q0 44 24 70t66 26q41 0 65.5 -26t24.5 -70v-43l4 -5q113 144 301 144q160 0 269.5 -108.5t109.5 -305.5v-604q0 -44 -24.5 -70t-65.5 -26q-42 0 -66 26t-24 70v594q0 132 -75.5 200t-176.5 68q-106 0 -179 -71t-73 -197v-594q0 -44 -24.5 -70t-65.5 -26
q-42 0 -66 26t-24 70zM475 -143q26 65 80 65q72 0 72 -69q0 -26 -17 -58l-67 -149q-30 -66 -78 -66q-70 0 -70 66q0 18 19 61z" />
    <glyph glyph-name="Ncaron" unicode="&#x147;" horiz-adv-x="1368" 
d="M299 1141v-1057q0 -44 -24.5 -70t-65.5 -26q-42 0 -66 26t-24 70v1280q0 106 82 106q38 0 62.5 -18.5t64.5 -75.5l737 -1059h4v1057q0 45 24.5 70.5t65.5 25.5q42 0 66 -25.5t24 -70.5v-1280q0 -106 -82 -106q-38 0 -62.5 18.5t-64.5 75.5l-737 1059h-4zM694 1571
l-262 112q-27 11 -38 29t-11 43q0 34 20 56t53 22q20 0 36 -6l202 -80q173 68 195 77t42 9q33 0 53.5 -22t20.5 -56q0 -51 -47 -71z" />
    <glyph glyph-name="ncaron" unicode="&#x148;" horiz-adv-x="1102" 
d="M119 84v922q0 44 24 70t66 26q41 0 65.5 -26t24.5 -70v-43l4 -5q113 144 301 144q160 0 269.5 -108.5t109.5 -305.5v-604q0 -44 -24.5 -70t-65.5 -26q-42 0 -66 26t-24 70v594q0 132 -75.5 200t-176.5 68q-106 0 -179 -71t-73 -197v-594q0 -44 -24.5 -70t-65.5 -26
q-42 0 -66 26t-24 70zM571 1243l-262 112q-27 11 -38 29t-11 43q0 34 20 56t53 22q20 0 36 -6l202 -80q173 68 195 77t42 9q33 0 53.5 -22t20.5 -56q0 -51 -47 -71z" />
    <glyph glyph-name="Omacron" unicode="&#x14c;" horiz-adv-x="1405" 
d="M702 -12q-286 0 -462.5 214.5t-176.5 526.5t176.5 526.5t462.5 214.5q287 0 463 -214.5t176 -526.5t-176 -526.5t-463 -214.5zM702 1315q-212 0 -329 -164.5t-117 -421.5t117 -421.5t329 -164.5t329.5 164.5t117.5 421.5t-117.5 421.5t-329.5 164.5zM495 1739h414
q88 0 88 -84t-88 -84h-414q-88 0 -88 84t88 84z" />
    <glyph glyph-name="omacron" unicode="&#x14d;" horiz-adv-x="1102" 
d="M551 -12q-214 0 -346.5 161t-132.5 396t132.5 396t346.5 161t346.5 -161t132.5 -396t-132.5 -396t-346.5 -161zM551 946q-142 0 -220.5 -113.5t-78.5 -287.5t78.5 -288t220.5 -114t220.5 114t78.5 288t-78.5 287.5t-220.5 113.5zM344 1411h414q88 0 88 -84t-88 -84h-414
q-88 0 -88 84t88 84z" />
    <glyph glyph-name="Ohungarumlaut" unicode="&#x150;" horiz-adv-x="1405" 
d="M702 -12q-286 0 -462.5 214.5t-176.5 526.5t176.5 526.5t462.5 214.5q287 0 463 -214.5t176 -526.5t-176 -526.5t-463 -214.5zM702 1315q-212 0 -329 -164.5t-117 -421.5t117 -421.5t329 -164.5t329.5 164.5t117.5 421.5t-117.5 421.5t-329.5 164.5zM766 1762
q0 -21 -15 -40t-85 -47l-161 -66q-91 -38 -116 -38q-34 0 -56 28t-22 58q0 21 15 39.5t85 47.5l161 66q92 38 116 38q35 0 56.5 -28.5t21.5 -57.5zM1217 1762q0 -21 -15 -40t-85 -47l-161 -66q-92 -38 -116 -38q-35 0 -56.5 28t-21.5 58q0 21 15 39.5t84 47.5l162 66
q91 38 116 38q34 0 56 -28.5t22 -57.5z" />
    <glyph glyph-name="ohungarumlaut" unicode="&#x151;" horiz-adv-x="1102" 
d="M551 -12q-214 0 -346.5 161t-132.5 396t132.5 396t346.5 161t346.5 -161t132.5 -396t-132.5 -396t-346.5 -161zM551 946q-142 0 -220.5 -113.5t-78.5 -287.5t78.5 -288t220.5 -114t220.5 114t78.5 288t-78.5 287.5t-220.5 113.5zM608 1434q0 -21 -15 -40t-85 -47
l-161 -66q-91 -38 -116 -38q-34 0 -56 28t-22 58q0 21 15 39.5t85 47.5l161 66q92 38 116 38q35 0 56.5 -28.5t21.5 -57.5zM1059 1434q0 -21 -15 -40t-85 -47l-161 -66q-92 -38 -116 -38q-35 0 -56.5 28t-21.5 58q0 21 15 39.5t84 47.5l162 66q91 38 116 38q34 0 56 -28.5
t22 -57.5z" />
    <glyph glyph-name="OE" unicode="&#x152;" horiz-adv-x="1896" 
d="M1135 98v115h-5q-74 -105 -189 -165t-239 -60q-286 0 -462.5 214.5t-176.5 526.5t176.5 526.5t462.5 214.5q248 0 433 -204v94q0 98 96 98h493q88 0 88 -84t-88 -84h-409v-477h395q88 0 88 -84t-88 -84h-395v-477h430q88 0 88 -84t-88 -84h-514q-96 0 -96 98zM702 1315
q-212 0 -329 -164.5t-117 -421.5t117 -421.5t329 -164.5t329.5 164.5t117.5 421.5t-117.5 421.5t-329.5 164.5z" />
    <glyph glyph-name="oe" unicode="&#x153;" horiz-adv-x="1858" 
d="M940 201q-157 -213 -395 -213q-210 0 -341.5 161.5t-131.5 395.5t131.5 395.5t341.5 161.5q244 0 395 -213q60 101 161.5 157t223.5 56q212 0 345.5 -157t133.5 -374q0 -53 -23.5 -74.5t-76.5 -21.5h-678q0 -146 89 -237t240 -91q65 0 131.5 19t148.5 82q56 43 84 43
q27 0 45 -24.5t18 -55.5q0 -68 -137.5 -145.5t-288.5 -77.5q-289 0 -416 213zM1026 610h598q0 139 -80.5 237.5t-218.5 98.5t-218.5 -98.5t-80.5 -237.5zM846 545q0 173 -78.5 287t-218.5 114q-141 0 -219 -114t-78 -287q0 -174 78 -288t219 -114q140 0 218.5 114t78.5 288z
" />
    <glyph glyph-name="Racute" unicode="&#x154;" horiz-adv-x="1063" 
d="M299 639v-555q0 -44 -24.5 -70t-65.5 -26q-42 0 -66 26t-24 70v1276q0 98 96 98h334q182 0 314 -112.5t132 -280.5q0 -116 -35.5 -198.5t-98.5 -131.5t-132.5 -65.5t-208.5 -20.5l299 -328q170 -186 179 -196.5t15.5 -27.5t6.5 -40q0 -28 -24 -48.5t-58 -20.5
q-45 0 -82 41zM299 1303v-519h246q142 0 206 64t64 205q0 104 -76 177t-198 73h-242zM821 1762q0 -21 -15 -40t-84 -47l-162 -66q-91 -38 -116 -38q-34 0 -55.5 28t-21.5 58q0 21 14.5 39.5t84.5 47.5l161 66q92 38 116 38q35 0 56.5 -28.5t21.5 -57.5z" />
    <glyph glyph-name="racute" unicode="&#x155;" horiz-adv-x="645" 
d="M119 84v922q0 44 24 70t66 26q41 0 65.5 -26t24.5 -70v-93h4q41 81 110 135t136 54q45 0 72.5 -26t27.5 -66q0 -77 -112 -99q-108 -18 -173 -98t-65 -211v-518q0 -44 -24.5 -70t-65.5 -26q-42 0 -66 26t-24 70zM651 1434q0 -21 -15 -40t-84 -47l-162 -66
q-91 -38 -116 -38q-34 0 -55.5 28t-21.5 58q0 21 14.5 39.5t84.5 47.5l161 66q92 38 116 38q35 0 56.5 -28.5t21.5 -57.5z" />
    <glyph glyph-name="Rcommaaccent" unicode="&#x156;" horiz-adv-x="1063" 
d="M299 639v-555q0 -44 -24.5 -70t-65.5 -26q-42 0 -66 26t-24 70v1276q0 98 96 98h334q182 0 314 -112.5t132 -280.5q0 -116 -35.5 -198.5t-98.5 -131.5t-132.5 -65.5t-208.5 -20.5l299 -328q170 -186 179 -196.5t15.5 -27.5t6.5 -40q0 -28 -24 -48.5t-58 -20.5
q-45 0 -82 41zM299 1303v-519h246q142 0 206 64t64 205q0 104 -76 177t-198 73h-242zM485 -143q26 65 80 65q72 0 72 -69q0 -26 -17 -58l-67 -149q-30 -66 -78 -66q-70 0 -70 66q0 18 19 61z" />
    <glyph glyph-name="rcommaaccent" unicode="&#x157;" horiz-adv-x="645" 
d="M119 84v922q0 44 24 70t66 26q41 0 65.5 -26t24.5 -70v-93h4q41 81 110 135t136 54q45 0 72.5 -26t27.5 -66q0 -77 -112 -99q-108 -18 -173 -98t-65 -211v-518q0 -44 -24.5 -70t-65.5 -26q-42 0 -66 26t-24 70zM165 -143q26 65 80 65q72 0 72 -69q0 -26 -17 -58l-67 -149
q-30 -66 -78 -66q-70 0 -70 66q0 18 19 61z" />
    <glyph glyph-name="Rcaron" unicode="&#x158;" horiz-adv-x="1063" 
d="M299 639v-555q0 -44 -24.5 -70t-65.5 -26q-42 0 -66 26t-24 70v1276q0 98 96 98h334q182 0 314 -112.5t132 -280.5q0 -116 -35.5 -198.5t-98.5 -131.5t-132.5 -65.5t-208.5 -20.5l299 -328q170 -186 179 -196.5t15.5 -27.5t6.5 -40q0 -28 -24 -48.5t-58 -20.5
q-45 0 -82 41zM299 1303v-519h246q142 0 206 64t64 205q0 104 -76 177t-198 73h-242zM547 1571l-262 112q-27 11 -38 29t-11 43q0 34 20 56t53 22q20 0 36 -6l202 -80q173 68 195 77t42 9q33 0 53.5 -22t20.5 -56q0 -51 -47 -71z" />
    <glyph glyph-name="rcaron" unicode="&#x159;" horiz-adv-x="645" 
d="M119 84v922q0 44 24 70t66 26q41 0 65.5 -26t24.5 -70v-93h4q41 81 110 135t136 54q45 0 72.5 -26t27.5 -66q0 -77 -112 -99q-108 -18 -173 -98t-65 -211v-518q0 -44 -24.5 -70t-65.5 -26q-42 0 -66 26t-24 70zM370 1243l-262 112q-27 11 -38 29t-11 43q0 34 20 56t53 22
q20 0 36 -6l202 -80q173 68 195 77t42 9q33 0 53.5 -22t20.5 -56q0 -51 -47 -71z" />
    <glyph glyph-name="Sacute" unicode="&#x15a;" horiz-adv-x="985" 
d="M57 1096q0 139 120 256.5t310 117.5q142 0 250.5 -51t108.5 -119q0 -32 -22.5 -55.5t-55.5 -23.5q-32 0 -83 33q-96 61 -204 61q-101 0 -166 -58t-65 -149q0 -68 48.5 -123t242.5 -124q129 -45 208.5 -86.5t136 -120.5t56.5 -205q0 -192 -132.5 -326.5t-360.5 -134.5
q-157 0 -281.5 52.5t-124.5 123.5q0 41 20.5 66.5t55.5 25.5q22 0 81 -34q84 -49 141 -64t110 -15q133 0 216 85t83 212q0 75 -40.5 123.5t-100.5 77t-164 63.5q-126 44 -202.5 83t-131 114t-54.5 195zM737 1762q0 -21 -15 -40t-84 -47l-162 -66q-91 -38 -116 -38
q-34 0 -55.5 28t-21.5 58q0 21 14.5 39.5t84.5 47.5l161 66q92 38 116 38q35 0 56.5 -28.5t21.5 -57.5z" />
    <glyph glyph-name="sacute" unicode="&#x15b;" horiz-adv-x="909" 
d="M676 291q0 47 -42.5 89.5t-210.5 112.5q-212 88 -270.5 156t-58.5 146q0 137 109 222t262 85q127 0 244.5 -58t117.5 -135q0 -32 -21.5 -52.5t-60.5 -20.5q-31 0 -83 39q-61 46 -107 58.5t-90 12.5q-85 0 -138 -37t-53 -100q0 -40 39.5 -77t197.5 -98q221 -85 283 -156
t62 -154q0 -155 -113 -245.5t-284 -90.5q-165 0 -287.5 67t-122.5 140q0 35 22 58t52 23q31 0 95 -44q81 -57 137.5 -73t109.5 -16q92 0 151.5 44.5t59.5 103.5zM724 1434q0 -21 -15 -40t-84 -47l-162 -66q-91 -38 -116 -38q-34 0 -55.5 28t-21.5 58q0 21 14.5 39.5
t84.5 47.5l161 66q92 38 116 38q35 0 56.5 -28.5t21.5 -57.5z" />
    <glyph glyph-name="Scircumflex" unicode="&#x15c;" horiz-adv-x="985" 
d="M57 1096q0 139 120 256.5t310 117.5q142 0 250.5 -51t108.5 -119q0 -32 -22.5 -55.5t-55.5 -23.5q-32 0 -83 33q-96 61 -204 61q-101 0 -166 -58t-65 -149q0 -68 48.5 -123t242.5 -124q129 -45 208.5 -86.5t136 -120.5t56.5 -205q0 -192 -132.5 -326.5t-360.5 -134.5
q-157 0 -281.5 52.5t-124.5 123.5q0 41 20.5 66.5t55.5 25.5q22 0 81 -34q84 -49 141 -64t110 -15q133 0 216 85t83 212q0 75 -40.5 123.5t-100.5 77t-164 63.5q-126 44 -202.5 83t-131 114t-54.5 195zM481 1657q-173 -68 -195 -77t-43 -9q-32 0 -52.5 22.5t-20.5 55.5
q0 52 47 72l264 112l262 -111q27 -12 38 -29.5t11 -43.5q0 -33 -20.5 -55.5t-53.5 -22.5q-19 0 -35 6z" />
    <glyph glyph-name="scircumflex" unicode="&#x15d;" horiz-adv-x="909" 
d="M676 291q0 47 -42.5 89.5t-210.5 112.5q-212 88 -270.5 156t-58.5 146q0 137 109 222t262 85q127 0 244.5 -58t117.5 -135q0 -32 -21.5 -52.5t-60.5 -20.5q-31 0 -83 39q-61 46 -107 58.5t-90 12.5q-85 0 -138 -37t-53 -100q0 -40 39.5 -77t197.5 -98q221 -85 283 -156
t62 -154q0 -155 -113 -245.5t-284 -90.5q-165 0 -287.5 67t-122.5 140q0 35 22 58t52 23q31 0 95 -44q81 -57 137.5 -73t109.5 -16q92 0 151.5 44.5t59.5 103.5zM471 1329q-173 -68 -195 -77t-43 -9q-32 0 -52.5 22.5t-20.5 55.5q0 52 47 72l264 112l262 -111
q27 -12 38 -29.5t11 -43.5q0 -33 -20.5 -55.5t-53.5 -22.5q-19 0 -35 6z" />
    <glyph glyph-name="Scedilla" unicode="&#x15e;" horiz-adv-x="985" 
d="M504 -8l-53 -78q23 6 43 6q61 0 101 -36t40 -77q0 -176 -227 -176q-68 0 -109 20.5t-41 51.5q0 55 43 55q20 0 50 -8q29 -8 57 -8q71 0 71 55q0 22 -13.5 29.5t-76.5 7.5q-61 0 -61 39q0 20 20 51l45 66q-145 10 -247.5 60t-102.5 114q0 92 76 92q23 0 52 -17
q155 -96 280 -96q132 0 215.5 85t83.5 212q0 67 -35.5 115.5t-90.5 77t-220 86.5q-211 73 -279 162t-68 215q0 144 123 259t307 115q142 0 250.5 -51t108.5 -119q0 -32 -22 -55.5t-56 -23.5q-30 0 -53 15q-81 51 -125 65t-109 14q-102 0 -166.5 -59t-64.5 -148
q0 -145 219 -220q208 -73 293.5 -120.5t132.5 -129t47 -189.5q0 -181 -118.5 -311t-319.5 -146z" />
    <glyph glyph-name="scedilla" unicode="&#x15f;" horiz-adv-x="909" 
d="M494 -10l-52 -76q23 6 43 6q61 0 101.5 -36t40.5 -77q0 -176 -228 -176q-67 0 -108 20t-41 52q0 55 43 55q20 0 49 -8t57 -8q72 0 72 55q0 22 -13.5 29.5t-76.5 7.5q-62 0 -62 39q0 18 21 51l47 68q-141 15 -239.5 77.5t-98.5 125.5q0 37 22.5 59t51.5 22q32 0 127 -66
q95 -67 215 -67q93 0 152 44.5t59 103.5q0 57 -52.5 98.5t-238.5 119.5q-167 70 -229 136t-62 150q0 137 110 222t261 85q125 0 243.5 -58t118.5 -135q0 -73 -82 -73q-29 0 -52 17q-81 60 -124 76.5t-104 16.5q-86 0 -138.5 -37.5t-52.5 -99.5q0 -83 184 -154
q166 -64 241.5 -104t116 -99t40.5 -128q0 -143 -98.5 -233t-263.5 -101z" />
    <glyph glyph-name="Scaron" unicode="&#x160;" horiz-adv-x="985" 
d="M57 1096q0 139 120 256.5t310 117.5q142 0 250.5 -51t108.5 -119q0 -32 -22.5 -55.5t-55.5 -23.5q-32 0 -83 33q-96 61 -204 61q-101 0 -166 -58t-65 -149q0 -68 48.5 -123t242.5 -124q129 -45 208.5 -86.5t136 -120.5t56.5 -205q0 -192 -132.5 -326.5t-360.5 -134.5
q-157 0 -281.5 52.5t-124.5 123.5q0 41 20.5 66.5t55.5 25.5q22 0 81 -34q84 -49 141 -64t110 -15q133 0 216 85t83 212q0 75 -40.5 123.5t-100.5 77t-164 63.5q-126 44 -202.5 83t-131 114t-54.5 195zM493 1571l-262 112q-27 11 -38 29t-11 43q0 34 20 56t53 22q20 0 36 -6
l202 -80q173 68 195 77t42 9q33 0 53.5 -22t20.5 -56q0 -51 -47 -71z" />
    <glyph glyph-name="scaron" unicode="&#x161;" horiz-adv-x="909" 
d="M676 291q0 47 -42.5 89.5t-210.5 112.5q-212 88 -270.5 156t-58.5 146q0 137 109 222t262 85q127 0 244.5 -58t117.5 -135q0 -32 -21.5 -52.5t-60.5 -20.5q-31 0 -83 39q-61 46 -107 58.5t-90 12.5q-85 0 -138 -37t-53 -100q0 -40 39.5 -77t197.5 -98q221 -85 283 -156
t62 -154q0 -155 -113 -245.5t-284 -90.5q-165 0 -287.5 67t-122.5 140q0 35 22 58t52 23q31 0 95 -44q81 -57 137.5 -73t109.5 -16q92 0 151.5 44.5t59.5 103.5zM454 1243l-262 112q-27 11 -38 29t-11 43q0 34 20 56t53 22q20 0 36 -6l202 -80q173 68 195 77t42 9
q33 0 53.5 -22t20.5 -56q0 -51 -47 -71z" />
    <glyph glyph-name="Tcommaaccent" unicode="&#x162;" horiz-adv-x="909" 
d="M365 84v1206h-273q-88 0 -88 84t88 84h725q88 0 88 -84t-88 -84h-272v-1206q0 -44 -24.5 -70t-65.5 -26q-42 0 -66 26t-24 70zM399 -143q26 65 80 65q72 0 72 -69q0 -26 -17 -58l-67 -149q-30 -66 -78 -66q-70 0 -70 66q0 18 19 61z" />
    <glyph glyph-name="tcommaaccent" unicode="&#x163;" horiz-adv-x="532" 
d="M176 1090v235q0 45 24.5 70.5t65.5 25.5q42 0 66 -26t24 -70v-235h74q90 0 90 -78t-90 -78h-74v-850q0 -45 -24 -70.5t-66 -25.5q-41 0 -65.5 26t-24.5 70v850h-74q-90 0 -90 78t90 78h74zM210 -143q26 65 80 65q72 0 72 -69q0 -26 -17 -58l-67 -149q-30 -66 -78 -66
q-70 0 -70 66q0 18 19 61z" />
    <glyph glyph-name="Tcaron" unicode="&#x164;" horiz-adv-x="909" 
d="M365 84v1206h-273q-88 0 -88 84t88 84h725q88 0 88 -84t-88 -84h-272v-1206q0 -44 -24.5 -70t-65.5 -26q-42 0 -66 26t-24 70zM454 1571l-262 112q-27 11 -38 29t-11 43q0 34 20 56t53 22q20 0 36 -6l202 -80q173 68 195 77t42 9q33 0 53.5 -22t20.5 -56q0 -51 -47 -71z
" />
    <glyph glyph-name="tcaron" unicode="&#x165;" horiz-adv-x="532" 
d="M571 1411q29 70 84 70q76 0 76 -74q0 -27 -16 -59l-70 -154q-32 -70 -82 -70q-76 0 -76 68q0 18 19 61zM176 1325q0 96 90 96t90 -96v-235h54q90 0 90 -78t-90 -78h-54v-850q0 -96 -90 -96t-90 96v850h-74q-90 0 -90 78t90 78h74v235z" />
    <glyph glyph-name="Umacron" unicode="&#x16a;" horiz-adv-x="1368" 
d="M119 578v796q0 45 24 70.5t66 25.5q41 0 65.5 -25.5t24.5 -70.5v-866q0 -170 105.5 -267.5t279.5 -97.5q176 0 280.5 98.5t104.5 266.5v866q0 45 24.5 70.5t65.5 25.5q42 0 66 -25.5t24 -70.5v-796q0 -293 -146.5 -441.5t-418.5 -148.5t-418.5 148.5t-146.5 441.5z
M477 1739h414q88 0 88 -84t-88 -84h-414q-88 0 -88 84t88 84z" />
    <glyph glyph-name="umacron" unicode="&#x16b;" horiz-adv-x="1102" 
d="M119 422v584q0 44 24 70t66 26q41 0 65.5 -26t24.5 -70v-578q0 -285 252 -285t252 285v578q0 44 24 70t66 26q41 0 65.5 -26t24.5 -70v-584q0 -138 -52.5 -235.5t-151.5 -148t-228 -50.5q-197 0 -314.5 112t-117.5 322zM344 1411h414q88 0 88 -84t-88 -84h-414
q-88 0 -88 84t88 84z" />
    <glyph glyph-name="Ubreve" unicode="&#x16c;" horiz-adv-x="1368" 
d="M119 578v796q0 45 24 70.5t66 25.5q41 0 65.5 -25.5t24.5 -70.5v-866q0 -170 105.5 -267.5t279.5 -97.5q176 0 280.5 98.5t104.5 266.5v866q0 45 24.5 70.5t65.5 25.5q42 0 66 -25.5t24 -70.5v-796q0 -293 -146.5 -441.5t-418.5 -148.5t-418.5 148.5t-146.5 441.5z
M685 1556q-97 0 -187 58.5t-90 139.5q0 32 18 53t46 21q27 0 74 -45q47 -46 78 -59t61 -13t61 13t78 59q47 45 74 45q28 0 45.5 -21t17.5 -53q0 -84 -91 -141t-185 -57z" />
    <glyph glyph-name="ubreve" unicode="&#x16d;" horiz-adv-x="1102" 
d="M119 422v584q0 44 24 70t66 26q41 0 65.5 -26t24.5 -70v-578q0 -285 252 -285t252 285v578q0 44 24 70t66 26q41 0 65.5 -26t24.5 -70v-584q0 -138 -52.5 -235.5t-151.5 -148t-228 -50.5q-197 0 -314.5 112t-117.5 322zM551 1229q-97 0 -187 58.5t-90 139.5q0 32 18 53
t46 21q27 0 74 -45q47 -46 78 -59t61 -13t61 13t78 59q47 45 74 45q28 0 45.5 -21t17.5 -53q0 -84 -91 -141t-185 -57z" />
    <glyph glyph-name="Uring" unicode="&#x16e;" horiz-adv-x="1368" 
d="M119 578v796q0 45 24 70.5t66 25.5q41 0 65.5 -25.5t24.5 -70.5v-866q0 -170 105.5 -267.5t279.5 -97.5q176 0 280.5 98.5t104.5 266.5v866q0 45 24.5 70.5t65.5 25.5q42 0 66 -25.5t24 -70.5v-796q0 -293 -146.5 -441.5t-418.5 -148.5t-418.5 148.5t-146.5 441.5z
M685 1524q-80 0 -136.5 56.5t-56.5 136.5q0 79 56.5 135.5t136.5 56.5q79 0 135.5 -56.5t56.5 -135.5q0 -80 -56.5 -136.5t-135.5 -56.5zM685 1811q-38 0 -66 -28t-28 -66q0 -39 27.5 -67t66.5 -28q38 0 66 28t28 67q0 38 -28 66t-66 28z" />
    <glyph glyph-name="uring" unicode="&#x16f;" horiz-adv-x="1102" 
d="M119 422v584q0 44 24 70t66 26q41 0 65.5 -26t24.5 -70v-578q0 -285 252 -285t252 285v578q0 44 24 70t66 26q41 0 65.5 -26t24.5 -70v-584q0 -138 -52.5 -235.5t-151.5 -148t-228 -50.5q-197 0 -314.5 112t-117.5 322zM551 1196q-80 0 -136.5 56.5t-56.5 136.5
q0 79 56.5 135.5t136.5 56.5q79 0 135.5 -56.5t56.5 -135.5q0 -80 -56.5 -136.5t-135.5 -56.5zM551 1483q-38 0 -66 -28t-28 -66q0 -39 27.5 -67t66.5 -28q38 0 66 28t28 67q0 38 -28 66t-66 28z" />
    <glyph glyph-name="Uhungarumlaut" unicode="&#x170;" horiz-adv-x="1368" 
d="M119 578v796q0 45 24 70.5t66 25.5q41 0 65.5 -25.5t24.5 -70.5v-866q0 -170 105.5 -267.5t279.5 -97.5q176 0 280.5 98.5t104.5 266.5v866q0 45 24.5 70.5t65.5 25.5q42 0 66 -25.5t24 -70.5v-796q0 -293 -146.5 -441.5t-418.5 -148.5t-418.5 148.5t-146.5 441.5z
M759 1762q0 -21 -15 -40t-85 -47l-161 -66q-91 -38 -116 -38q-34 0 -56 28t-22 58q0 21 15 39.5t85 47.5l161 66q92 38 116 38q35 0 56.5 -28.5t21.5 -57.5zM1210 1762q0 -21 -15 -40t-85 -47l-161 -66q-92 -38 -116 -38q-35 0 -56.5 28t-21.5 58q0 21 15 39.5t84 47.5
l162 66q91 38 116 38q34 0 56 -28.5t22 -57.5z" />
    <glyph glyph-name="uhungarumlaut" unicode="&#x171;" horiz-adv-x="1102" 
d="M119 422v584q0 44 24 70t66 26q41 0 65.5 -26t24.5 -70v-578q0 -285 252 -285t252 285v578q0 44 24 70t66 26q41 0 65.5 -26t24.5 -70v-584q0 -138 -52.5 -235.5t-151.5 -148t-228 -50.5q-197 0 -314.5 112t-117.5 322zM606 1434q0 -21 -15 -40t-85 -47l-161 -66
q-91 -38 -116 -38q-34 0 -56 28t-22 58q0 21 15 39.5t85 47.5l161 66q92 38 116 38q35 0 56.5 -28.5t21.5 -57.5zM1057 1434q0 -21 -15 -40t-85 -47l-161 -66q-92 -38 -116 -38q-35 0 -56.5 28t-21.5 58q0 21 15 39.5t84 47.5l162 66q91 38 116 38q34 0 56 -28.5t22 -57.5z
" />
    <glyph glyph-name="Uogonek" unicode="&#x172;" horiz-adv-x="1368" 
d="M119 1374q0 96 90 96t90 -96v-866q0 -167 105 -266t280 -99t280 99t105 266v866q0 96 90 96t90 -96v-796q0 -539 -483 -586l-39 -37q-76 -72 -76 -139q0 -70 76 -70q34 0 57 8q22 8 39 8q49 0 49 -47q0 -80 -174 -80q-88 0 -145 41t-57 109q0 92 112 172l41 33
q-530 21 -530 588v796z" />
    <glyph glyph-name="uogonek" unicode="&#x173;" horiz-adv-x="1102" 
d="M119 1006q0 96 90 96t90 -96v-578q0 -285 252 -285t252 285v578q0 96 90 96t90 -96v-584q0 -373 -348 -428l-41 -39q-76 -72 -76 -139q0 -70 76 -70q34 0 57 8q22 8 39 8q49 0 49 -47q0 -80 -174 -80q-88 0 -145.5 41.5t-57.5 108.5q0 91 113 172l43 33
q-192 11 -295.5 124t-103.5 308v584z" />
    <glyph glyph-name="Ydieresis" unicode="&#x178;" horiz-adv-x="1024" 
d="M422 84v600l-391 637q-29 46 -29 76q0 33 23.5 53t58.5 20q18 0 33 -5t29 -17t64 -93l302 -493l221 361q123 200 133.5 214t30.5 23.5t43 9.5q35 0 58.5 -20.5t23.5 -52.5q0 -29 -29 -76l-391 -637v-600q0 -45 -24 -70.5t-66 -25.5q-41 0 -65.5 26t-24.5 70zM321 1565
q-45 0 -77.5 32.5t-32.5 78.5t32 78t78 32t78.5 -32.5t32.5 -77.5q0 -46 -32 -78.5t-79 -32.5zM702 1565q-45 0 -77.5 32.5t-32.5 78.5q0 45 32.5 77.5t77.5 32.5q46 0 78.5 -32.5t32.5 -77.5q0 -46 -32.5 -78.5t-78.5 -32.5z" />
    <glyph glyph-name="Zacute" unicode="&#x179;" horiz-adv-x="1139" 
d="M84 178l750 1125h-662q-88 0 -88 77q0 78 88 78h797q42 0 68 -18.5t26 -44.5q0 -30 -8.5 -51t-36.5 -64l-752 -1124h735q89 0 89 -78t-89 -78h-845q-107 0 -107 82q0 44 35 96zM845 1762q0 -21 -15 -40t-84 -47l-162 -66q-91 -38 -116 -38q-34 0 -55.5 28t-21.5 58
q0 21 14.5 39.5t84.5 47.5l161 66q92 38 116 38q35 0 56.5 -28.5t21.5 -57.5z" />
    <glyph glyph-name="zacute" unicode="&#x17a;" horiz-adv-x="909" 
d="M289 156h489q90 0 90 -78t-90 -78h-649q-88 0 -88 63q0 37 37 93l520 778h-446q-91 0 -91 78t91 78h606q88 0 88 -64q0 -38 -37 -92l-526 -774zM747 1434q0 -21 -15 -40t-84 -47l-162 -66q-91 -38 -116 -38q-34 0 -55.5 28t-21.5 58q0 21 14.5 39.5t84.5 47.5l161 66
q92 38 116 38q35 0 56.5 -28.5t21.5 -57.5z" />
    <glyph glyph-name="Zdotaccent" unicode="&#x17b;" horiz-adv-x="1139" 
d="M84 178l750 1125h-662q-88 0 -88 77q0 78 88 78h797q42 0 68 -18.5t26 -44.5q0 -30 -8.5 -51t-36.5 -64l-752 -1124h735q89 0 89 -78t-89 -78h-845q-107 0 -107 82q0 44 35 96zM584 1565q-46 0 -78.5 32.5t-32.5 78.5t32.5 78t78.5 32t78 -32.5t32 -77.5q0 -46 -32 -78.5
t-78 -32.5z" />
    <glyph glyph-name="zdotaccent" unicode="&#x17c;" horiz-adv-x="909" 
d="M289 156h489q90 0 90 -78t-90 -78h-649q-88 0 -88 63q0 37 37 93l520 778h-446q-91 0 -91 78t91 78h606q88 0 88 -64q0 -38 -37 -92l-526 -774zM476 1237q-46 0 -78.5 32.5t-32.5 78.5t32.5 78t78.5 32t78 -32.5t32 -77.5q0 -46 -32 -78.5t-78 -32.5z" />
    <glyph glyph-name="Zcaron" unicode="&#x17d;" horiz-adv-x="1139" 
d="M84 178l750 1125h-662q-88 0 -88 77q0 78 88 78h797q42 0 68 -18.5t26 -44.5q0 -30 -8.5 -51t-36.5 -64l-752 -1124h735q89 0 89 -78t-89 -78h-845q-107 0 -107 82q0 44 35 96zM569 1571l-262 112q-27 11 -38 29t-11 43q0 34 20 56t53 22q20 0 36 -6l202 -80
q173 68 195 77t42 9q33 0 53.5 -22t20.5 -56q0 -51 -47 -71z" />
    <glyph glyph-name="zcaron" unicode="&#x17e;" horiz-adv-x="909" 
d="M289 156h489q90 0 90 -78t-90 -78h-649q-88 0 -88 63q0 37 37 93l520 778h-446q-91 0 -91 78t91 78h606q88 0 88 -64q0 -38 -37 -92l-526 -774zM454 1243l-262 112q-27 11 -38 29t-11 43q0 34 20 56t53 22q20 0 36 -6l202 -80q173 68 195 77t42 9q33 0 53.5 -22t20.5 -56
q0 -51 -47 -71z" />
    <glyph glyph-name="florin" unicode="&#x192;" horiz-adv-x="1098" 
d="M301 885h129l53 294q14 77 49.5 148.5t99 107t163.5 35.5q135 0 135 -77q0 -66 -117 -66q-69 0 -107 -51t-57 -154l-43 -237h127q32 0 55 -23t23 -55t-23 -55t-55 -23h-153l-148 -811q-43 -235 -120.5 -297.5t-217.5 -62.5q-133 0 -133 82q0 75 92 75h84q48 0 76.5 53
t54.5 201l135 760h-102q-32 0 -55 23t-23 55t23 55t55 23z" />
    <glyph glyph-name="Scommaaccent" unicode="&#x218;" horiz-adv-x="985" 
d="M57 1096q0 139 120 256.5t310 117.5q142 0 250.5 -51t108.5 -119q0 -32 -22.5 -55.5t-55.5 -23.5q-32 0 -83 33q-96 61 -204 61q-101 0 -166 -58t-65 -149q0 -68 48.5 -123t242.5 -124q129 -45 208.5 -86.5t136 -120.5t56.5 -205q0 -192 -132.5 -326.5t-360.5 -134.5
q-157 0 -281.5 52.5t-124.5 123.5q0 41 20.5 66.5t55.5 25.5q22 0 81 -34q84 -49 141 -64t110 -15q133 0 216 85t83 212q0 75 -40.5 123.5t-100.5 77t-164 63.5q-126 44 -202.5 83t-131 114t-54.5 195zM395 -143q26 65 80 65q72 0 72 -69q0 -26 -17 -58l-67 -149
q-30 -66 -78 -66q-70 0 -70 66q0 18 19 61z" />
    <glyph glyph-name="scommaaccent" unicode="&#x219;" horiz-adv-x="909" 
d="M676 291q0 47 -42.5 89.5t-210.5 112.5q-212 88 -270.5 156t-58.5 146q0 137 109 222t262 85q127 0 244.5 -58t117.5 -135q0 -32 -21.5 -52.5t-60.5 -20.5q-31 0 -83 39q-61 46 -107 58.5t-90 12.5q-85 0 -138 -37t-53 -100q0 -40 39.5 -77t197.5 -98q221 -85 283 -156
t62 -154q0 -155 -113 -245.5t-284 -90.5q-165 0 -287.5 67t-122.5 140q0 35 22 58t52 23q31 0 95 -44q81 -57 137.5 -73t109.5 -16q92 0 151.5 44.5t59.5 103.5zM391 -143q26 65 80 65q72 0 72 -69q0 -26 -17 -58l-67 -149q-30 -66 -78 -66q-70 0 -70 66q0 18 19 61z" />
    <glyph glyph-name="uni021A" unicode="&#x21a;" horiz-adv-x="909" 
d="M365 84v1206h-273q-88 0 -88 84t88 84h725q88 0 88 -84t-88 -84h-272v-1206q0 -44 -24.5 -70t-65.5 -26q-42 0 -66 26t-24 70zM399 -143q26 65 80 65q72 0 72 -69q0 -26 -17 -58l-67 -149q-30 -66 -78 -66q-70 0 -70 66q0 18 19 61z" />
    <glyph glyph-name="uni021B" unicode="&#x21b;" horiz-adv-x="532" 
d="M176 1090v235q0 45 24.5 70.5t65.5 25.5q42 0 66 -26t24 -70v-235h74q90 0 90 -78t-90 -78h-74v-850q0 -45 -24 -70.5t-66 -25.5q-41 0 -65.5 26t-24.5 70v850h-74q-90 0 -90 78t90 78h74zM210 -143q26 65 80 65q72 0 72 -69q0 -26 -17 -58l-67 -149q-30 -66 -78 -66
q-70 0 -70 66q0 18 19 61z" />
    <glyph glyph-name="circumflex" unicode="&#x2c6;" 
d="M209 1329q-173 -68 -195 -77t-43 -9q-32 0 -52.5 22.5t-20.5 55.5q0 52 47 72l264 112l262 -111q27 -12 38 -29.5t11 -43.5q0 -33 -20.5 -55.5t-53.5 -22.5q-19 0 -35 6z" />
    <glyph glyph-name="caron" unicode="&#x2c7;" 
d="M209 1243l-262 112q-27 11 -38 29t-11 43q0 34 20 56t53 22q20 0 36 -6l202 -80q173 68 195 77t42 9q33 0 53.5 -22t20.5 -56q0 -51 -47 -71z" />
    <glyph glyph-name="macron" unicode="&#x2c9;" 
d="M2 1411h414q88 0 88 -84t-88 -84h-414q-88 0 -88 84t88 84z" />
    <glyph glyph-name="breve" unicode="&#x2d8;" 
d="M209 1229q-97 0 -187 58.5t-90 139.5q0 32 18 53t46 21q27 0 74 -45q47 -46 78 -59t61 -13t61 13t78 59q47 45 74 45q28 0 45.5 -21t17.5 -53q0 -84 -91 -141t-185 -57z" />
    <glyph glyph-name="dotaccent" unicode="&#x2d9;" 
d="M209 1237q-46 0 -78.5 32.5t-32.5 78.5t32.5 78t78.5 32t78 -32.5t32 -77.5q0 -46 -32 -78.5t-78 -32.5z" />
    <glyph glyph-name="ring" unicode="&#x2da;" 
d="M209 1196q-80 0 -136.5 56.5t-56.5 136.5q0 79 56.5 135.5t136.5 56.5q79 0 135.5 -56.5t56.5 -135.5q0 -80 -56.5 -136.5t-135.5 -56.5zM209 1483q-38 0 -66 -28t-28 -66q0 -39 27.5 -67t66.5 -28q38 0 66 28t28 67q0 38 -28 66t-66 28z" />
    <glyph glyph-name="ogonek" unicode="&#x2db;" 
d="M299 4h109q-97 -86 -113 -122.5t-16 -65.5q0 -70 75 -70q27 0 65 10q22 6 32 6q49 0 49 -47q0 -43 -52.5 -61.5t-121.5 -18.5q-88 0 -145.5 41t-57.5 109q0 88 113 172z" />
    <glyph glyph-name="tilde" unicode="&#x2dc;" 
d="M-29 1262q-24 0 -45.5 24.5t-21.5 54.5q0 51 54.5 90t135.5 39q49 0 122 -21q65 -19 103 -19q31 0 71 21q34 19 56 19q24 0 46 -24.5t22 -54.5q0 -51 -54 -90t-136 -39q-49 0 -123 21q-64 20 -103 20q-30 0 -70 -22q-34 -19 -57 -19z" />
    <glyph glyph-name="hungarumlaut" unicode="&#x2dd;" 
d="M211 1434q0 -21 -15 -40t-85 -47l-161 -66q-91 -38 -116 -38q-34 0 -56 28t-22 58q0 21 15 39.5t85 47.5l161 66q92 38 116 38q35 0 56.5 -28.5t21.5 -57.5zM662 1434q0 -21 -15 -40t-85 -47l-161 -66q-92 -38 -116 -38q-35 0 -56.5 28t-21.5 58q0 21 15 39.5t84 47.5
l162 66q91 38 116 38q34 0 56 -28.5t22 -57.5z" />
    <glyph glyph-name="afii10023" unicode="&#x401;" horiz-adv-x="909" 
d="M299 645v-477h434q88 0 88 -84t-88 -84h-518q-96 0 -96 98v1262q0 98 96 98h518q88 0 88 -84t-88 -84h-434v-477h395q88 0 88 -84t-88 -84h-395zM264 1565q-45 0 -77.5 32.5t-32.5 78.5t32 78t78 32t78.5 -32.5t32.5 -77.5q0 -46 -32 -78.5t-79 -32.5zM645 1565
q-45 0 -77.5 32.5t-32.5 78.5q0 45 32.5 77.5t77.5 32.5q46 0 78.5 -32.5t32.5 -77.5q0 -46 -32.5 -78.5t-78.5 -32.5z" />
    <glyph glyph-name="afii10051" unicode="&#x402;" horiz-adv-x="1368" 
d="M543 1292v-379h254q244 0 377 -125.5t133 -341.5q0 -189 -118.5 -323.5t-260.5 -134.5q-109 0 -109 86q0 75 92 86q93 10 154 85.5t61 192.5q0 173 -95 242.5t-265 69.5h-223v-654q0 -108 -92 -108q-91 0 -91 108v1196h-260q-42 0 -69 23.5t-27 58.5q0 38 26.5 61
t69.5 23h805q44 0 70 -23t26 -61q0 -35 -26 -58.5t-70 -23.5h-362z" />
    <glyph glyph-name="afii10052" unicode="&#x403;" horiz-adv-x="889" 
d="M305 1292v-1196q0 -108 -90 -108t-90 108v1272q0 39 26 64.5t64 25.5h584q41 0 67.5 -24t26.5 -60t-26 -59t-68 -23h-494zM747 1762q0 -21 -15 -40t-84 -47l-162 -66q-91 -38 -116 -38q-34 0 -55.5 28t-21.5 58q0 21 14.5 39.5t84.5 47.5l161 66q92 38 116 38
q35 0 56.5 -28.5t21.5 -57.5z" />
    <glyph glyph-name="afii10053" unicode="&#x404;" horiz-adv-x="1233" 
d="M258 645q24 -226 143 -364t304 -138q61 0 128.5 17t164.5 74q69 40 96 40q30 0 50.5 -23.5t20.5 -60.5q0 -69 -134.5 -135.5t-328.5 -66.5q-283 0 -461 208.5t-178 532.5q0 319 178.5 530t473.5 211q183 0 301.5 -75.5t118.5 -137.5q0 -39 -22 -62.5t-54 -23.5
q-29 0 -84 45q-78 63 -139.5 81t-122.5 18q-183 0 -305 -131t-148 -373h549q42 0 68 -23t26 -59q0 -37 -26 -60.5t-68 -23.5h-551z" />
    <glyph glyph-name="afii10054" unicode="&#x405;" horiz-adv-x="985" 
d="M57 1096q0 139 120 256.5t310 117.5q142 0 250.5 -51t108.5 -119q0 -32 -22.5 -55.5t-55.5 -23.5q-32 0 -83 33q-96 61 -204 61q-101 0 -166 -58t-65 -149q0 -68 48.5 -123t242.5 -124q129 -45 208.5 -86.5t136 -120.5t56.5 -205q0 -192 -132.5 -326.5t-360.5 -134.5
q-157 0 -281.5 52.5t-124.5 123.5q0 41 20.5 66.5t55.5 25.5q22 0 81 -34q84 -49 141 -64t110 -15q133 0 216 85t83 212q0 75 -40.5 123.5t-100.5 77t-164 63.5q-126 44 -202.5 83t-131 114t-54.5 195z" />
    <glyph glyph-name="afii10055" unicode="&#x406;" 
d="M299 1374v-1290q0 -44 -24.5 -70t-65.5 -26q-42 0 -66 26t-24 70v1290q0 45 24 70.5t66 25.5q41 0 65.5 -25.5t24.5 -70.5z" />
    <glyph glyph-name="afii10056" unicode="&#x407;" 
d="M299 1374v-1290q0 -44 -24.5 -70t-65.5 -26q-42 0 -66 26t-24 70v1290q0 45 24 70.5t66 25.5q41 0 65.5 -25.5t24.5 -70.5zM18 1565q-45 0 -77.5 32.5t-32.5 78.5t32 78t78 32t78.5 -32.5t32.5 -77.5q0 -46 -32 -78.5t-79 -32.5zM399 1565q-45 0 -77.5 32.5t-32.5 78.5
q0 45 32.5 77.5t77.5 32.5q46 0 78.5 -32.5t32.5 -77.5q0 -46 -32.5 -78.5t-78.5 -32.5z" />
    <glyph glyph-name="afii10057" unicode="&#x408;" horiz-adv-x="758" 
d="M459 352v1022q0 45 24 70.5t66 25.5q41 0 65.5 -25.5t24.5 -70.5v-1003q0 -383 -354 -383q-96 0 -197.5 47.5t-101.5 116.5q0 33 19.5 54t51.5 21q35 0 79 -32q73 -52 163 -52q160 0 160 209z" />
    <glyph glyph-name="afii10058" unicode="&#x409;" horiz-adv-x="2015" 
d="M526 1292l-92 -831q-53 -473 -348 -473q-38 0 -61 24.5t-23 65.5q0 59 61 72q99 23 138 119t61 286l92 809q12 94 103 94h653q40 0 67 -24.5t27 -61.5v-518h332q201 0 321.5 -115.5t120.5 -310.5q0 -190 -125.5 -309t-349.5 -119h-377q-104 0 -104 94v1198h-496z
M1204 688v-524h283q147 0 228 69t81 195q0 120 -81 190t-220 70h-291z" />
    <glyph glyph-name="afii10059" unicode="&#x40a;" horiz-adv-x="2060" 
d="M299 688v-592q0 -108 -90 -108t-90 108v1266q0 108 90 108t90 -108v-508h768v508q0 108 90 108q92 0 92 -108v-508h330q202 0 323 -115.5t121 -310.5q0 -182 -121 -305t-354 -123h-377q-104 0 -104 94v594h-768zM1249 688v-524h283q147 0 228 69t81 195q0 120 -81.5 190
t-221.5 70h-289z" />
    <glyph glyph-name="afii10060" unicode="&#x40b;" horiz-adv-x="1393" 
d="M543 1292v-379h223q249 0 395 -132.5t146 -368.5v-314q0 -110 -90 -110q-91 0 -91 110v285q0 180 -96 273.5t-276 93.5h-211v-654q0 -108 -92 -108q-91 0 -91 108v1196h-260q-42 0 -69 23.5t-27 58.5q0 38 26.5 61t69.5 23h805q44 0 70 -23t26 -61q0 -35 -26 -58.5
t-70 -23.5h-362z" />
    <glyph glyph-name="afii10061" unicode="&#x40c;" horiz-adv-x="1176" 
d="M299 694v-610q0 -44 -24.5 -70t-65.5 -26q-42 0 -66 26t-24 70v1290q0 45 24 70.5t66 25.5q41 0 65.5 -25.5t24.5 -70.5v-532l625 571q61 57 98 57q34 0 56 -21.5t22 -55.5q0 -49 -37 -82l-598 -539l653 -631q37 -34 37 -73q0 -33 -25.5 -56.5t-62.5 -23.5q-48 0 -88 39z
M860 1762q0 -21 -15 -40t-84 -47l-162 -66q-91 -38 -116 -38q-34 0 -55.5 28t-21.5 58q0 21 14.5 39.5t84.5 47.5l161 66q92 38 116 38q35 0 56.5 -28.5t21.5 -57.5z" />
    <glyph glyph-name="afii10062" unicode="&#x40e;" horiz-adv-x="1204" 
d="M612 1556q-97 0 -186.5 59t-89.5 140q0 32 17.5 53t45.5 21q27 0 74 -46q47 -45 78.5 -58t60.5 -13q30 0 61 13t78 58q47 46 74 46q28 0 46 -21t18 -53q0 -84 -91 -141.5t-186 -57.5zM618 551l394 844q34 75 96 75q38 0 63 -22.5t25 -56.5t-41 -121l-457 -971
q-81 -174 -179.5 -242.5t-246.5 -68.5q-94 0 -146 26t-52 72q0 37 20.5 61.5t50.5 24.5q18 0 50 -5q45 -7 77 -7q64 0 121.5 33t120.5 163l-453 901q-45 94 -45 129q0 34 25 59t65 25q63 0 95 -65z" />
    <glyph glyph-name="afii10145" unicode="&#x40f;" horiz-adv-x="1366" 
d="M1071 166v1196q0 108 90 108t90 -108v-1268q0 -94 -104 -94h-367v-250q0 -106 -88 -106t-88 106v250h-385q-41 0 -67.5 24.5t-26.5 61.5v1276q0 108 90 108t90 -108v-1196h766z" />
    <glyph glyph-name="afii10017" unicode="&#x410;" horiz-adv-x="1253" 
d="M289 317l-95 -263q-11 -32 -33 -49t-55 -17q-37 0 -61.5 21t-24.5 54q0 25 25 91l453 1206q42 110 129 110t129 -110l452 -1206q25 -74 25 -91q0 -34 -25 -54.5t-61 -20.5q-33 0 -54.5 16t-37.5 62l-90 251h-676zM909 473l-280 789h-4l-281 -789h565z" />
    <glyph glyph-name="afii10018" unicode="&#x411;" horiz-adv-x="1118" 
d="M305 854h332q202 0 323 -115.5t121 -310.5q0 -182 -121.5 -305t-355.5 -123h-375q-104 0 -104 94v1274q0 39 26 64.5t64 25.5h580q43 0 69.5 -23t26.5 -61q0 -35 -27 -58.5t-69 -23.5h-490v-438zM305 688v-524h285q147 0 227 68.5t80 195.5q0 120 -81 190t-220 70h-291z
" />
    <glyph glyph-name="afii10019" unicode="&#x412;" horiz-adv-x="1100" 
d="M119 98v1262q0 98 96 98h317q177 0 285.5 -104t108.5 -244q0 -115 -54.5 -202t-148.5 -117v-5q140 -16 227.5 -119.5t87.5 -240.5q0 -184 -130 -305t-347 -121h-346q-96 0 -96 98zM299 1303v-461h205q110 0 175.5 65.5t65.5 169.5q0 105 -61.5 165.5t-173.5 60.5h-211z
M299 694v-538h254q134 0 219.5 75.5t85.5 194.5q0 117 -81 192.5t-216 75.5h-262z" />
    <glyph glyph-name="afii10020" unicode="&#x413;" horiz-adv-x="889" 
d="M305 1292v-1196q0 -108 -90 -108t-90 108v1272q0 39 26 64.5t64 25.5h584q41 0 67.5 -24t26.5 -60t-26 -59t-68 -23h-494z" />
    <glyph glyph-name="afii10021" unicode="&#x414;" horiz-adv-x="1536" 
d="M1331 0h-1138v-250q0 -106 -89 -106q-88 0 -88 106v328q0 38 26 63t64 25h91q114 102 149 399l94 799q12 94 105 94h649q40 0 67 -24.5t27 -61.5v-1206h129q40 0 65 -25t25 -63v-328q0 -106 -88 -106t-88 106v250zM614 1292l-94 -800q-23 -208 -110 -326h696v1126h-492z
" />
    <glyph glyph-name="afii10022" unicode="&#x415;" horiz-adv-x="909" 
d="M299 645v-477h434q88 0 88 -84t-88 -84h-518q-96 0 -96 98v1262q0 98 96 98h518q88 0 88 -84t-88 -84h-434v-477h395q88 0 88 -84t-88 -84h-395z" />
    <glyph glyph-name="afii10024" unicode="&#x416;" horiz-adv-x="1929" 
d="M1055 844l616 571q62 55 103 55q35 0 58 -23.5t23 -55.5q0 -41 -38 -76l-594 -541l641 -622q45 -42 45 -82q0 -35 -24.5 -58.5t-61.5 -23.5q-42 0 -109 65l-659 643v-600q0 -108 -90 -108q-91 0 -91 108v600l-659 -643q-65 -65 -111 -65q-36 0 -60 23t-24 59q0 40 43 82
l644 622l-596 541q-39 34 -39 76q0 32 23 55.5t59 23.5q42 0 102 -55l618 -571v518q0 108 91 108q90 0 90 -108v-518z" />
    <glyph glyph-name="afii10025" unicode="&#x417;" horiz-adv-x="1034" 
d="M688 776q130 -31 203.5 -125t73.5 -221q0 -194 -139 -320t-355 -126q-197 0 -322.5 76.5t-125.5 144.5q0 42 24 68t64 26q31 0 99 -48q86 -62 146.5 -79.5t116.5 -17.5q131 0 213 70.5t82 185.5q0 266 -375 266q-52 0 -81 22.5t-29 59.5q0 88 100 88q152 0 239 66t87 173
q0 98 -62.5 160t-165.5 62q-51 0 -103 -16.5t-117 -75.5q-51 -46 -81 -46q-34 0 -59 26.5t-25 61.5q0 73 113 145.5t287 72.5q189 0 298 -105.5t109 -257.5q0 -234 -215 -336z" />
    <glyph glyph-name="afii10026" unicode="&#x418;" horiz-adv-x="1378" 
d="M1071 96v1043h-4l-748 -1076q-36 -51 -57 -63t-49 -12q-88 0 -88 106v1268q0 108 90 108t90 -108v-1030h4l742 1063q31 46 55.5 60.5t56.5 14.5q40 0 65 -27.5t25 -74.5v-1272q0 -108 -90 -108q-92 0 -92 108z" />
    <glyph glyph-name="afii10027" unicode="&#x419;" horiz-adv-x="1378" 
d="M702 1556q-97 0 -186.5 59t-89.5 140q0 32 17.5 53t45.5 21t74 -46q48 -45 79 -58t60 -13q30 0 61 13t78 58q47 46 74 46q28 0 46 -21t18 -53q0 -81 -89.5 -140t-187.5 -59zM1071 96v1043h-4l-748 -1076q-36 -51 -57 -63t-49 -12q-88 0 -88 106v1268q0 108 90 108
t90 -108v-1030h4l742 1063q31 46 55.5 60.5t56.5 14.5q40 0 65 -27.5t25 -74.5v-1272q0 -108 -90 -108q-92 0 -92 108z" />
    <glyph glyph-name="afii10028" unicode="&#x41a;" horiz-adv-x="1176" 
d="M299 694v-610q0 -44 -24.5 -70t-65.5 -26q-42 0 -66 26t-24 70v1290q0 45 24 70.5t66 25.5q41 0 65.5 -25.5t24.5 -70.5v-532l625 571q61 57 98 57q34 0 56 -21.5t22 -55.5q0 -49 -37 -82l-598 -539l653 -631q37 -34 37 -73q0 -33 -25.5 -56.5t-62.5 -23.5q-48 0 -88 39z
" />
    <glyph glyph-name="afii10029" unicode="&#x41b;" horiz-adv-x="1323" 
d="M526 1292l-92 -831q-53 -473 -348 -473q-38 0 -61 24.5t-23 65.5q0 59 61 72q99 23 138 119t61 286l92 809q12 94 103 94h653q40 0 67 -24.5t27 -61.5v-1276q0 -108 -90 -108q-92 0 -92 108v1196h-496z" />
    <glyph glyph-name="afii10030" unicode="&#x41c;" horiz-adv-x="1708" 
d="M410 1237l-170 -1171q-10 -78 -97 -78q-84 0 -84 92q0 21 11 82l198 1171q22 137 142 137q103 0 131 -94l311 -1067h4l311 1067q29 94 131 94q118 0 142 -137l198 -1171q11 -58 11 -82q0 -92 -84 -92q-85 0 -97 78l-170 1171h-4l-348 -1176q-23 -73 -92 -73q-70 0 -92 73
l-348 1176h-4z" />
    <glyph glyph-name="afii10031" unicode="&#x41d;" horiz-adv-x="1366" 
d="M299 653v-557q0 -108 -90 -108t-90 108v1266q0 108 90 108t90 -108v-553h768v553q0 108 90 108t90 -108v-1266q0 -108 -90 -108t-90 108v557h-768z" />
    <glyph glyph-name="afii10032" unicode="&#x41e;" horiz-adv-x="1405" 
d="M702 -12q-286 0 -462.5 214.5t-176.5 526.5t176.5 526.5t462.5 214.5q287 0 463 -214.5t176 -526.5t-176 -526.5t-463 -214.5zM702 1315q-212 0 -329 -164.5t-117 -421.5t117 -421.5t329 -164.5t329.5 164.5t117.5 421.5t-117.5 421.5t-329.5 164.5z" />
    <glyph glyph-name="afii10033" unicode="&#x41f;" horiz-adv-x="1364" 
d="M1065 1292h-766v-1196q0 -108 -90 -108t-90 108v1268q0 94 104 94h928q40 0 67 -24.5t27 -61.5v-1276q0 -108 -90 -108t-90 108v1196z" />
    <glyph glyph-name="afii10034" unicode="&#x420;" horiz-adv-x="1063" 
d="M299 545v-461q0 -44 -24.5 -70t-65.5 -26q-42 0 -66 26t-24 70v1276q0 98 96 98h356q211 0 342 -130.5t131 -328.5q0 -190 -134.5 -322t-331.5 -132h-279zM299 1303v-603h266q130 0 214.5 86t84.5 213q0 133 -80.5 218.5t-226.5 85.5h-258z" />
    <glyph glyph-name="afii10035" unicode="&#x421;" horiz-adv-x="1214" 
d="M713 1315q-213 0 -335 -168t-122 -418q0 -246 120.5 -416t325.5 -170q62 0 129 17t165 74q70 40 98 40q32 0 51.5 -22.5t19.5 -61.5q0 -72 -139 -137t-324 -65q-289 0 -464 213t-175 528q0 317 177 529t473 212q175 0 298.5 -74t123.5 -139q0 -36 -21 -61t-53 -25
q-31 0 -87 46q-77 62 -139 80t-122 18z" />
    <glyph glyph-name="afii10036" unicode="&#x422;" horiz-adv-x="909" 
d="M365 84v1206h-273q-88 0 -88 84t88 84h725q88 0 88 -84t-88 -84h-272v-1206q0 -44 -24.5 -70t-65.5 -26q-42 0 -66 26t-24 70z" />
    <glyph glyph-name="afii10037" unicode="&#x423;" horiz-adv-x="1204" 
d="M618 551l394 844q34 75 96 75q38 0 63 -22.5t25 -56.5t-41 -121l-457 -971q-81 -174 -179.5 -242.5t-246.5 -68.5q-94 0 -146 26t-52 72q0 37 20.5 61.5t50.5 24.5q18 0 50 -5q45 -7 77 -7q64 0 121.5 33t120.5 163l-453 901q-45 94 -45 129q0 34 25 59t65 25
q63 0 95 -65z" />
    <glyph glyph-name="afii10038" unicode="&#x424;" horiz-adv-x="1507" 
d="M844 139v-73q0 -109 -90 -109t-90 109v73q-300 26 -469.5 185.5t-169.5 406.5q0 245 170 404.5t469 185.5v74q0 108 90 108t90 -108v-74q298 -26 468.5 -185.5t170.5 -404.5q0 -247 -170 -406.5t-469 -185.5zM844 309q213 22 327.5 130.5t114.5 291.5t-116 291.5
t-326 126.5v-840zM664 1149q-210 -18 -325.5 -126.5t-115.5 -291.5q0 -184 114 -292.5t327 -129.5v840z" />
    <glyph glyph-name="afii10039" unicode="&#x425;" horiz-adv-x="1217" 
d="M608 641l-418 -596q-41 -57 -90 -57q-32 0 -57 22.5t-25 52.5q0 34 29 74l457 645l-278 393q-117 165 -124.5 183.5t-7.5 36.5q0 33 23.5 54t56.5 21q17 0 31 -4t29 -16.5t66 -85.5l308 -451l226 330q122 179 136 195.5t32 24t40 7.5q34 0 57 -21.5t23 -53.5
q0 -21 -8.5 -39.5t-137.5 -200.5l-263 -373l456 -645q29 -43 29 -74q0 -30 -25 -52.5t-57 -22.5q-50 0 -90 57z" />
    <glyph glyph-name="afii10040" unicode="&#x426;" horiz-adv-x="1497" 
d="M1292 0h-1079q-41 0 -67.5 24.5t-26.5 61.5v1276q0 108 90 108t90 -108v-1196h766v1196q0 108 90 108t90 -108v-1196h133q39 0 64.5 -25t25.5 -63v-328q0 -106 -88 -106t-88 106v250z" />
    <glyph glyph-name="afii10041" unicode="&#x427;" horiz-adv-x="1278" 
d="M979 573h-324q-246 0 -401.5 144.5t-155.5 386.5v258q0 108 90 108q91 0 91 -108v-240q0 -179 106 -281t277 -102h317v623q0 108 90 108t90 -108v-1266q0 -108 -90 -108t-90 108v477z" />
    <glyph glyph-name="afii10042" unicode="&#x428;" horiz-adv-x="1827" 
d="M1528 166v1196q0 108 90 108t90 -108v-1272q0 -39 -26 -64.5t-64 -25.5h-1405q-41 0 -67.5 24.5t-26.5 61.5v1276q0 108 90 108t90 -108v-1196h524v1196q0 108 90 108q91 0 91 -108v-1196h524z" />
    <glyph glyph-name="afii10043" unicode="&#x429;" horiz-adv-x="1960" 
d="M1528 166v1196q0 108 90 108t90 -108v-1196h133q40 0 65 -25t25 -63v-328q0 -106 -88 -106t-88 106v250h-1542q-41 0 -67.5 24.5t-26.5 61.5v1276q0 108 90 108t90 -108v-1196h524v1196q0 108 90 108q91 0 91 -108v-1196h524z" />
    <glyph glyph-name="afii10044" unicode="&#x42a;" horiz-adv-x="1440" 
d="M446 1292h-346q-42 0 -69 23.5t-27 58.5q0 38 26.5 61t69.5 23h439q39 0 64.5 -24.5t25.5 -63.5v-516h332q201 0 321.5 -115.5t120.5 -310.5q0 -190 -126 -309t-349 -119h-377q-105 0 -105 94v1198zM629 688v-524h282q148 0 229 69t81 195q0 120 -81 190t-220 70h-291z
" />
    <glyph glyph-name="afii10045" unicode="&#x42b;" horiz-adv-x="1532" 
d="M1407 1362v-1266q0 -108 -92 -108q-90 0 -90 108v1266q0 108 90 108q92 0 92 -108zM305 854h303q202 0 323.5 -115.5t121.5 -310.5q0 -189 -127 -308.5t-351 -119.5h-346q-104 0 -104 94v1268q0 108 90 108t90 -108v-508zM305 688v-524h256q146 0 226.5 69t80.5 195
q0 120 -80.5 190t-220.5 70h-262z" />
    <glyph glyph-name="afii10046" unicode="&#x42c;" horiz-adv-x="1118" 
d="M305 854h332q202 0 323 -115.5t121 -310.5q0 -182 -121.5 -305t-355.5 -123h-375q-104 0 -104 94v1268q0 108 90 108t90 -108v-508zM305 688v-524h285q147 0 227 68.5t80 195.5q0 120 -81 190t-220 70h-291z" />
    <glyph glyph-name="afii10047" unicode="&#x42d;" horiz-adv-x="1255" 
d="M989 811q-23 241 -147.5 368.5t-306.5 127.5q-68 0 -138.5 -19t-161.5 -82q-55 -39 -77 -39q-33 0 -56.5 26t-23.5 67q0 67 140 141t327 74q300 0 471.5 -210t171.5 -538q0 -323 -181.5 -533t-498.5 -210q-178 0 -311.5 71.5t-133.5 141.5q0 88 78 88q20 0 68 -34
q88 -61 161 -79t144 -18q211 0 335.5 128t141.5 363h-551q-42 0 -68 23.5t-26 60.5q0 36 26 59t68 23h549z" />
    <glyph glyph-name="afii10048" unicode="&#x42e;" horiz-adv-x="1870" 
d="M305 831h279q31 295 195 469.5t409 174.5q274 0 441 -214t167 -532t-167 -531.5t-441 -213.5q-253 0 -419.5 185t-188.5 495h-275v-568q0 -108 -90 -108t-90 108v1266q0 108 90 108t90 -108v-531zM1597 729q0 252 -108 416t-303 164q-196 0 -304 -164t-108 -416
t108 -415.5t304 -163.5q195 0 303 163.5t108 415.5z" />
    <glyph glyph-name="afii10049" unicode="&#x42f;" horiz-adv-x="1063" 
d="M764 84v555l-557 -610q-37 -41 -82 -41q-34 0 -58 20.5t-24 48.5q0 24 8 43t74 91l412 450q-145 4 -214 23.5t-129 69t-93 130t-33 191.5q0 174 126 288.5t320 114.5h334q96 0 96 -98v-1276q0 -45 -24 -70.5t-66 -25.5q-41 0 -65.5 26t-24.5 70zM764 784v519h-242
q-128 0 -201 -72t-73 -178q0 -143 78.5 -206t230.5 -63h207z" />
    <glyph glyph-name="afii10065" unicode="&#x430;" horiz-adv-x="1139" 
d="M1020 1014v-938q0 -44 -26.5 -66t-57.5 -22q-34 0 -59 23.5t-25 64.5v76h-4q-116 -164 -297 -164q-214 0 -346.5 161t-132.5 396t132.5 396t346.5 161q167 0 297 -146h4v58q0 41 25 64.5t59 23.5q33 0 58.5 -23.5t25.5 -64.5zM551 946q-142 0 -220.5 -113.5t-78.5 -287.5
t78.5 -288t220.5 -114t220.5 114t78.5 288t-78.5 287.5t-220.5 113.5z" />
    <glyph glyph-name="afii10066" unicode="&#x431;" horiz-adv-x="1106" 
d="M276 940q122 152 318 152q206 0 323 -146.5t117 -402.5q0 -252 -131 -405.5t-358 -153.5q-229 0 -351 170t-122 450q0 253 54.5 428t159.5 272t228 117l272 43q29 5 67 15q36 10 56 10q36 0 56 -24.5t20 -61.5q0 -52 -52 -72t-189 -35q-155 -18 -219.5 -34t-119.5 -63.5
t-87 -113t-48 -145.5h6zM846 539q0 195 -71 298t-210 103q-144 0 -224.5 -103t-80.5 -298q0 -173 77.5 -287.5t215.5 -114.5t215.5 114t77.5 288z" />
    <glyph glyph-name="afii10067" unicode="&#x432;" horiz-adv-x="1024" 
d="M119 94v903q0 93 102 93h309q168 0 258.5 -70.5t90.5 -204.5q0 -165 -166 -229v-4q254 -33 254 -265q0 -143 -110.5 -230t-305.5 -87h-330q-102 0 -102 94zM297 938v-299h182q117 0 170 38t53 118q0 70 -52 106.5t-140 36.5h-213zM297 487v-335h256q112 0 173.5 42
t61.5 121q0 172 -251 172h-240z" />
    <glyph glyph-name="afii10068" unicode="&#x433;" horiz-adv-x="735" 
d="M297 924v-830q0 -49 -24.5 -77.5t-65.5 -28.5t-64.5 28.5t-23.5 77.5v918q0 34 21.5 56t60.5 22h454q90 0 90 -82q0 -84 -90 -84h-358z" />
    <glyph glyph-name="afii10069" unicode="&#x434;" horiz-adv-x="1239" 
d="M1040 0h-852v-199q0 -106 -86 -106t-86 106v275q0 38 25 63t63 25h31q88 79 133 311l103 526q9 46 32.5 67.5t71.5 21.5h469q43 0 68.5 -22.5t25.5 -59.5v-844h86q39 0 63.5 -25t24.5 -63v-275q0 -106 -86 -106t-86 106v199zM539 926l-99 -523q-14 -77 -35.5 -133
t-58.5 -106h514v762h-321z" />
    <glyph glyph-name="afii10070" unicode="&#x435;" horiz-adv-x="1065" 
d="M911 475h-678q0 -144 87 -238t235 -94q68 0 137.5 20t155.5 87q52 41 76 41q26 0 45.5 -22t19.5 -58q0 -68 -140.5 -145.5t-295.5 -77.5q-235 0 -367.5 155t-132.5 402q0 235 137 396t353 161q205 0 337 -157.5t132 -373.5q0 -50 -22 -73t-79 -23zM233 610h598
q0 139 -80 237.5t-216 98.5q-137 0 -215.5 -89t-86.5 -247z" />
    <glyph glyph-name="afii10072" unicode="&#x436;" horiz-adv-x="1483" 
d="M829 678l321 290q120 109 142.5 121.5t44.5 12.5q32 0 55 -23t23 -55q0 -28 -15.5 -50t-140.5 -130l-296 -254l339 -325q133 -128 149.5 -151.5t16.5 -50.5q0 -31 -22.5 -53t-54.5 -22q-35 0 -61.5 17.5t-160.5 149.5l-340 334v-395q0 -49 -23 -77.5t-65 -28.5
q-41 0 -65.5 28.5t-24.5 77.5v395q-435 -431 -473.5 -466t-87.5 -35q-31 0 -53.5 22t-22.5 53q0 29 16 52t159 159l331 316l-312 267q-116 99 -128 119t-12 48q0 33 22 55.5t55 22.5q25 0 48 -14t153 -133l305 -277v317q0 49 24.5 78t65.5 29t64.5 -28.5t23.5 -78.5v-317z
" />
    <glyph glyph-name="afii10073" unicode="&#x437;" horiz-adv-x="961" 
d="M655 586q248 -54 248 -267q0 -141 -120 -238t-341 -97q-184 0 -300.5 61.5t-116.5 124.5q0 42 23.5 67t55.5 25q23 0 73 -36q81 -57 144.5 -74t124.5 -17q130 0 202.5 49t72.5 131q0 105 -90.5 141t-263.5 36q-47 0 -73 21.5t-26 55.5q0 31 26 54.5t73 23.5
q301 0 301 162q0 66 -51.5 107.5t-159.5 41.5q-124 0 -230 -77q-30 -21 -57 -21q-32 0 -54 22t-22 54q0 63 113 118.5t262 55.5q179 0 280 -76.5t101 -199.5q0 -178 -195 -248z" />
    <glyph glyph-name="afii10074" unicode="&#x438;" horiz-adv-x="1118" 
d="M821 94v701l-516 -738q-31 -45 -53 -57t-49 -12q-84 0 -84 104v903q0 107 88 107q42 0 66 -28.5t24 -78.5v-694l508 731q46 70 108 70q39 0 62.5 -27t23.5 -74v-907q0 -50 -23.5 -78t-66.5 -28q-41 0 -64.5 28.5t-23.5 77.5z" />
    <glyph glyph-name="afii10075" unicode="&#x439;" horiz-adv-x="1118" 
d="M567 1229q-97 0 -186.5 58.5t-89.5 139.5q0 32 17.5 53t45.5 21q27 0 74 -45q47 -46 78 -59t61 -13t61 13t78 59q47 45 74 45q28 0 46 -21t18 -53q0 -81 -89.5 -139.5t-187.5 -58.5zM821 94v701l-516 -738q-31 -45 -53 -57t-49 -12q-84 0 -84 104v903q0 107 88 107
q42 0 66 -28.5t24 -78.5v-694l508 731q46 70 108 70q39 0 62.5 -27t23.5 -74v-907q0 -50 -23.5 -78t-66.5 -28q-41 0 -64.5 28.5t-23.5 77.5z" />
    <glyph glyph-name="afii10076" unicode="&#x43a;" horiz-adv-x="948" 
d="M297 678l318 290q120 108 142.5 121t45.5 13q33 0 55.5 -22.5t22.5 -55.5q0 -30 -13.5 -50t-140.5 -129l-299 -255l348 -332q129 -123 143.5 -145.5t14.5 -49.5q0 -31 -22.5 -53t-53.5 -22q-37 0 -65.5 19.5t-165.5 155.5l-330 329v-398q0 -49 -24.5 -77.5t-65.5 -28.5
t-64.5 28.5t-23.5 77.5v901q0 50 23.5 78.5t64.5 28.5t65.5 -29t24.5 -78v-317z" />
    <glyph glyph-name="afii10077" unicode="&#x43b;" horiz-adv-x="1122" 
d="M485 926l-97 -594q-21 -127 -91.5 -235.5t-214.5 -108.5q-78 0 -78 82q0 57 59 71q67 15 99 83t72 292l83 483q15 91 107 91h485q43 0 69 -22.5t26 -59.5v-914q0 -49 -23.5 -77.5t-65.5 -28.5q-41 0 -65.5 28.5t-24.5 77.5v832h-340z" />
    <glyph glyph-name="afii10078" unicode="&#x43c;" horiz-adv-x="1393" 
d="M1206 973l103 -744q18 -129 18 -155q0 -42 -26.5 -64t-63.5 -22q-78 0 -90 98l-100 799h-5l-251 -789q-20 -62 -43.5 -83t-57.5 -21q-69 0 -98 96l-242 793h-4l-102 -793q-13 -100 -92 -100q-86 0 -86 84q0 9 20 157l102 742q19 131 156 131q107 0 139 -111l209 -706h4
l224 706q35 111 145 111q124 0 141 -129z" />
    <glyph glyph-name="afii10079" unicode="&#x43d;" horiz-adv-x="1112" 
d="M297 483v-389q0 -49 -24.5 -77.5t-65.5 -28.5t-64.5 28.5t-23.5 77.5v901q0 107 88 107q42 0 66 -28.5t24 -78.5v-354h518v354q0 107 88 107q90 0 90 -107v-901q0 -50 -24 -78t-66 -28q-41 0 -64.5 28.5t-23.5 77.5v389h-518z" />
    <glyph glyph-name="afii10080" unicode="&#x43e;" horiz-adv-x="1102" 
d="M551 -12q-214 0 -346.5 161t-132.5 396t132.5 396t346.5 161t346.5 -161t132.5 -396t-132.5 -396t-346.5 -161zM551 946q-142 0 -220.5 -113.5t-78.5 -287.5t78.5 -288t220.5 -114t220.5 114t78.5 288t-78.5 287.5t-220.5 113.5z" />
    <glyph glyph-name="afii10081" unicode="&#x43f;" horiz-adv-x="1094" 
d="M297 926v-832q0 -49 -24.5 -77.5t-65.5 -28.5t-64.5 28.5t-23.5 77.5v899q0 97 90 97h684q38 0 60 -22.5t22 -55.5v-918q0 -50 -24 -78t-66 -28q-41 0 -64.5 28.5t-23.5 77.5v832h-500z" />
    <glyph glyph-name="afii10082" unicode="&#x440;" horiz-adv-x="1139" 
d="M127 -346v1352q0 44 24.5 70t65.5 26q42 0 66 -26t24 -70v-54h4q78 150 291 150q206 0 335.5 -161.5t129.5 -395.5t-129.5 -395.5t-335.5 -161.5q-182 0 -291 147h-4v-481q0 -44 -24 -70t-66 -26q-41 0 -65.5 26t-24.5 70zM588 946q-142 0 -220.5 -113.5t-78.5 -287.5
t78.5 -288t220.5 -114t220.5 114t78.5 288t-78.5 287.5t-220.5 113.5z" />
    <glyph glyph-name="afii10083" unicode="&#x441;" horiz-adv-x="909" 
d="M563 -12q-226 0 -358.5 157.5t-132.5 399.5t132.5 399.5t358.5 157.5q133 0 213 -40t80 -97q0 -30 -21.5 -53t-52.5 -23q-30 0 -77 22q-72 35 -142 35q-145 0 -228 -116t-83 -285t83 -285.5t228 -116.5q76 0 152 40q42 22 65 22q70 0 70 -76q0 -56 -78.5 -98.5
t-208.5 -42.5z" />
    <glyph glyph-name="afii10084" unicode="&#x442;" horiz-adv-x="823" 
d="M324 924h-230q-90 0 -90 84q0 82 90 82h635q90 0 90 -82q0 -84 -90 -84h-227v-830q0 -49 -24.5 -77.5t-65.5 -28.5t-64.5 28.5t-23.5 77.5v830z" />
    <glyph glyph-name="afii10085" unicode="&#x443;" horiz-adv-x="879" 
d="M186 1024l250 -735h4l252 731q30 82 92 82q37 0 60.5 -24.5t23.5 -59.5q0 -27 -12 -62l-420 -1167q-84 -238 -289 -238q-96 0 -96 82q0 28 12.5 44.5t55.5 23.5q55 9 90 35.5t69 114.5l74 192l-323 905q-19 52 -19 72q0 34 24 58t60 24q66 0 92 -78z" />
    <glyph glyph-name="afii10086" unicode="&#x444;" horiz-adv-x="1368" 
d="M772 1106q247 -7 385.5 -161t138.5 -400q0 -243 -141.5 -397.5t-382.5 -163.5v-322q0 -49 -23.5 -77.5t-64.5 -28.5t-65.5 28.5t-24.5 77.5v322q-248 8 -385 160.5t-137 400.5q0 241 139 396.5t383 164.5v367q0 50 24 79t66 29q41 0 64.5 -29t23.5 -79v-367zM772 950
v-811q157 4 246.5 118t89.5 288q0 173 -89.5 287.5t-246.5 117.5zM594 950q-156 -3 -245 -117.5t-89 -287.5t89 -287.5t245 -118.5v811z" />
    <glyph glyph-name="afii10087" unicode="&#x445;" horiz-adv-x="950" 
d="M475 446l-196 -271q-109 -152 -117.5 -161.5t-27.5 -17.5t-40 -8q-34 0 -58 23.5t-24 58.5q0 38 40 89l319 419l-213 278q-86 113 -93.5 130.5t-7.5 33.5q0 34 22 58t54 24q27 0 43.5 -9.5t55.5 -61.5l243 -322q266 354 283 373.5t59 19.5q32 0 54 -24t22 -58
q0 -32 -18 -55l-295 -387l241 -318q98 -128 107.5 -150t9.5 -40q0 -35 -23.5 -58.5t-58.5 -23.5q-53 0 -84 46z" />
    <glyph glyph-name="afii10088" unicode="&#x446;" horiz-adv-x="1176" 
d="M977 0h-776q-39 0 -60.5 21.5t-21.5 56.5v917q0 50 23.5 78.5t64.5 28.5t65.5 -29t24.5 -78v-831h500v831q0 50 23 78.5t65 28.5t66 -28.5t24 -78.5v-831h86q38 0 63 -25t25 -63v-275q0 -106 -86 -106t-86 106v199z" />
    <glyph glyph-name="afii10089" unicode="&#x447;" horiz-adv-x="1024" 
d="M727 410h-176q-228 0 -346.5 118.5t-118.5 350.5v116q0 49 24.5 78t65.5 29t64.5 -28.5t23.5 -78.5v-96q0 -181 73.5 -255.5t223.5 -74.5h166v426q0 50 23.5 78.5t64.5 28.5t65.5 -29t24.5 -78v-901q0 -49 -24.5 -77.5t-65.5 -28.5t-64.5 28.5t-23.5 77.5v316z" />
    <glyph glyph-name="afii10090" unicode="&#x448;" horiz-adv-x="1638" 
d="M1341 164v831q0 49 24.5 78t66.5 29q41 0 64.5 -28.5t23.5 -78.5v-913q0 -82 -82 -82h-1237q-39 0 -60.5 21.5t-21.5 56.5v917q0 50 23.5 78.5t64.5 28.5t65.5 -29t24.5 -78v-831h432v831q0 49 24.5 78t65.5 29q42 0 66 -29t24 -78v-831h432z" />
    <glyph glyph-name="afii10091" unicode="&#x449;" horiz-adv-x="1720" 
d="M1341 164v831q0 49 24.5 78t66.5 29q41 0 64.5 -28.5t23.5 -78.5v-831h86q38 0 63 -24t25 -62v-277q0 -106 -86 -106t-86 106v199h-1321q-39 0 -60.5 21.5t-21.5 56.5v917q0 50 23.5 78.5t64.5 28.5t65.5 -29t24.5 -78v-831h432v831q0 49 24.5 78t65.5 29q42 0 66 -29
t24 -78v-831h432z" />
    <glyph glyph-name="afii10092" unicode="&#x44a;" horiz-adv-x="1204" 
d="M324 924h-230q-90 0 -90 84q0 82 90 82h330q78 0 78 -80v-365h295q181 0 277.5 -84.5t96.5 -234.5q0 -146 -109 -236t-306 -90h-330q-102 0 -102 94v830zM502 489v-329h258q233 0 233 164q0 165 -233 165h-258z" />
    <glyph glyph-name="afii10093" unicode="&#x44b;" horiz-adv-x="1380" 
d="M1262 995v-901q0 -49 -23.5 -77.5t-64.5 -28.5q-42 0 -66.5 28.5t-24.5 77.5v901q0 49 24.5 78t66.5 29q40 0 64 -28.5t24 -78.5zM297 645h274q181 0 278 -84.5t97 -234.5q0 -146 -109 -236t-307 -90h-309q-102 0 -102 94v901q0 50 23.5 78.5t64.5 28.5t65.5 -29
t24.5 -78v-350zM297 489v-329h235q236 0 236 164q0 165 -236 165h-235z" />
    <glyph glyph-name="afii10094" unicode="&#x44c;" horiz-adv-x="999" 
d="M297 645h295q181 0 278 -84.5t97 -234.5q0 -140 -105 -233t-311 -93h-330q-102 0 -102 94v901q0 50 23.5 78.5t64.5 28.5t65.5 -29t24.5 -78v-350zM297 489v-329h256q235 0 235 164q0 165 -235 165h-256z" />
    <glyph glyph-name="afii10095" unicode="&#x44d;" horiz-adv-x="936" 
d="M674 618q-13 153 -94.5 239.5t-206.5 86.5q-82 0 -164 -41q-44 -22 -68 -22q-82 0 -82 84q0 51 96.5 96t223.5 45q230 0 357.5 -149t127.5 -406q0 -252 -141.5 -409.5t-368.5 -157.5q-126 0 -217.5 45.5t-91.5 109.5q0 29 23 50.5t51 21.5q14 0 58 -19q103 -45 188 -45
q122 0 210.5 85.5t98.5 230.5h-402q-40 0 -70 21t-30 55q0 79 102 79h400z" />
    <glyph glyph-name="afii10096" unicode="&#x44e;" horiz-adv-x="1479" 
d="M475 641q29 214 153.5 339.5t309.5 125.5q213 0 341 -161.5t128 -399.5q0 -243 -123.5 -402t-345.5 -159q-199 0 -323.5 132.5t-143.5 366.5h-174v-389q0 -49 -24.5 -77.5t-65.5 -28.5t-64.5 28.5t-23.5 77.5v901q0 107 88 107q42 0 66 -28.5t24 -78.5v-354h178zM936 139
q134 0 208.5 114.5t74.5 291.5q0 175 -75 290t-208 115q-132 0 -206.5 -116t-74.5 -289q0 -175 74.5 -290.5t206.5 -115.5z" />
    <glyph glyph-name="afii10097" unicode="&#x44f;" horiz-adv-x="993" 
d="M696 455l-348 -320q-137 -125 -154.5 -136t-46.5 -11q-35 0 -57 21t-22 54q0 48 55 94l344 306q-141 3 -198 17t-105.5 52t-74.5 96t-26 134q0 142 105.5 235t304.5 93h297q104 0 104 -93v-913q0 -96 -92 -96q-86 0 -86 96v371zM696 596v336h-225q-109 0 -169 -43.5
t-60 -124.5q0 -168 221 -168h233z" />
    <glyph glyph-name="afii10071" unicode="&#x451;" horiz-adv-x="1065" 
d="M911 475h-678q0 -144 87 -238t235 -94q68 0 137.5 20t155.5 87q52 41 76 41q26 0 45.5 -22t19.5 -58q0 -68 -140.5 -145.5t-295.5 -77.5q-235 0 -367.5 155t-132.5 402q0 235 137 396t353 161q205 0 337 -157.5t132 -373.5q0 -50 -22 -73t-79 -23zM233 610h598
q0 139 -80 237.5t-216 98.5q-137 0 -215.5 -89t-86.5 -247zM341 1237q-45 0 -77.5 32.5t-32.5 78.5t32 78t78 32t78.5 -32.5t32.5 -77.5q0 -46 -32 -78.5t-79 -32.5zM722 1237q-45 0 -77.5 32.5t-32.5 78.5q0 45 32.5 77.5t77.5 32.5q46 0 78.5 -32.5t32.5 -77.5
q0 -46 -32.5 -78.5t-78.5 -32.5z" />
    <glyph glyph-name="afii10099" unicode="&#x452;" horiz-adv-x="1122" 
d="M326 1198v-278h4q108 135 282 135q166 0 279 -105t113 -282v-736q0 -177 -98 -276.5t-255 -99.5q-106 0 -106 77q0 73 80 76q92 3 146 60.5t54 156.5v729q0 109 -68 174.5t-182 65.5q-106 0 -177.5 -73.5t-71.5 -194.5v-533q0 -49 -24.5 -77.5t-65.5 -28.5t-65 28.5
t-24 77.5v1104h-120q-41 0 -65.5 22t-24.5 56q0 35 24 56.5t66 21.5h120v119q0 50 23.5 79t65.5 29q41 0 65.5 -29t24.5 -79v-119h366q40 0 65 -21.5t25 -56.5q0 -34 -25 -56t-65 -22h-366z" />
    <glyph glyph-name="afii10100" unicode="&#x453;" horiz-adv-x="735" 
d="M297 924v-830q0 -49 -24.5 -77.5t-65.5 -28.5t-64.5 28.5t-23.5 77.5v918q0 34 21.5 56t60.5 22h454q90 0 90 -82q0 -84 -90 -84h-358zM671 1434q0 -21 -15 -40t-84 -47l-162 -66q-91 -38 -116 -38q-34 0 -55.5 28t-21.5 58q0 21 14.5 39.5t84.5 47.5l161 66
q92 38 116 38q35 0 56.5 -28.5t21.5 -57.5z" />
    <glyph glyph-name="afii10101" unicode="&#x454;" horiz-adv-x="928" 
d="M262 618h400q102 0 102 -79q0 -35 -28.5 -55.5t-71.5 -20.5h-402q10 -145 97.5 -230.5t207.5 -85.5q85 0 183 39q41 17 57 17q28 0 51 -21.5t23 -50.5q0 -65 -91.5 -106t-226.5 -41q-223 0 -357 153t-134 404q0 246 136 405.5t372 159.5q118 0 210.5 -46.5t92.5 -96.5
q0 -84 -84 -84q-24 0 -66 22q-83 43 -170 43q-125 0 -206.5 -86.5t-94.5 -239.5z" />
    <glyph glyph-name="afii10102" unicode="&#x455;" horiz-adv-x="909" 
d="M676 291q0 47 -42.5 89.5t-210.5 112.5q-212 88 -270.5 156t-58.5 146q0 137 109 222t262 85q127 0 244.5 -58t117.5 -135q0 -32 -21.5 -52.5t-60.5 -20.5q-31 0 -83 39q-61 46 -107 58.5t-90 12.5q-85 0 -138 -37t-53 -100q0 -40 39.5 -77t197.5 -98q221 -85 283 -156
t62 -154q0 -155 -113 -245.5t-284 -90.5q-165 0 -287.5 67t-122.5 140q0 35 22 58t52 23q31 0 95 -44q81 -57 137.5 -73t109.5 -16q92 0 151.5 44.5t59.5 103.5z" />
    <glyph glyph-name="afii10103" unicode="&#x456;" 
d="M209 1249q-46 0 -78.5 32.5t-32.5 78.5t32.5 78t78.5 32t78 -32t32 -78t-32 -78.5t-78 -32.5zM299 1006v-922q0 -44 -24.5 -70t-65.5 -26q-42 0 -66 26t-24 70v922q0 44 24 70t66 26q41 0 65.5 -26t24.5 -70z" />
    <glyph glyph-name="afii10104" unicode="&#x457;" 
d="M299 1006v-922q0 -44 -24.5 -70t-65.5 -26q-42 0 -66 26t-24 70v922q0 44 24 70t66 26q41 0 65.5 -26t24.5 -70zM18 1237q-45 0 -77.5 32.5t-32.5 78.5t32 78t78 32t78.5 -32.5t32.5 -77.5q0 -46 -32 -78.5t-79 -32.5zM399 1237q-45 0 -77.5 32.5t-32.5 78.5
q0 45 32.5 77.5t77.5 32.5q46 0 78.5 -32.5t32.5 -77.5q0 -46 -32.5 -78.5t-78.5 -32.5z" />
    <glyph glyph-name="afii10105" unicode="&#x458;" 
d="M209 1249q-46 0 -78.5 32.5t-32.5 78.5t32.5 78t78.5 32t78 -32t32 -78t-32 -78.5t-78 -32.5zM299 1006v-1352q0 -44 -24.5 -70t-65.5 -26q-42 0 -66 26t-24 70v1352q0 44 24 70t66 26q41 0 65.5 -26t24.5 -70z" />
    <glyph glyph-name="afii10106" unicode="&#x459;" horiz-adv-x="1708" 
d="M473 926l-75 -528q-15 -103 -42 -180t-66 -128t-91 -76.5t-117 -25.5q-34 0 -56 23.5t-22 62.5q0 50 59 67q71 19 104 87.5t66 291.5l72 479q12 91 105 91h499q43 0 69 -22.5t26 -59.5v-363h296q181 0 278 -84.5t97 -234.5q0 -140 -104.5 -233t-310.5 -93h-330
q-105 0 -105 94v832h-352zM1004 489v-329h258q235 0 235 164q0 165 -235 165h-258z" />
    <glyph glyph-name="afii10107" unicode="&#x45a;" horiz-adv-x="1698" 
d="M815 645v350q0 107 88 107q90 0 90 -107v-350h297q180 0 277.5 -84.5t97.5 -234.5q0 -145 -109.5 -235.5t-306.5 -90.5h-329q-105 0 -105 94v395h-518v-395q0 -49 -24.5 -77.5t-65.5 -28.5t-64.5 28.5t-23.5 77.5v901q0 107 88 107q42 0 66 -28.5t24 -78.5v-350h518z
M993 489v-329h258q234 0 234 164q0 165 -234 165h-258z" />
    <glyph glyph-name="afii10108" unicode="&#x45b;" horiz-adv-x="1122" 
d="M326 1198v-278h4q108 135 282 135q166 0 279 -105t113 -282v-574q0 -49 -23.5 -77.5t-65.5 -28.5t-66 28t-24 78v561q0 109 -68 174.5t-182 65.5q-106 0 -177.5 -73.5t-71.5 -194.5v-533q0 -49 -24.5 -77.5t-65.5 -28.5t-65 28.5t-24 77.5v1104h-120q-41 0 -65.5 22
t-24.5 56q0 35 24 56.5t66 21.5h120v119q0 50 23.5 79t65.5 29q41 0 65.5 -29t24.5 -79v-119h366q40 0 65 -21.5t25 -56.5q0 -34 -25 -56t-65 -22h-366z" />
    <glyph glyph-name="afii10109" unicode="&#x45c;" horiz-adv-x="948" 
d="M297 678l318 290q120 108 142.5 121t45.5 13q33 0 55.5 -22.5t22.5 -55.5q0 -30 -13.5 -50t-140.5 -129l-299 -255l348 -332q129 -123 143.5 -145.5t14.5 -49.5q0 -31 -22.5 -53t-53.5 -22q-37 0 -65.5 19.5t-165.5 155.5l-330 329v-398q0 -49 -24.5 -77.5t-65.5 -28.5
t-64.5 28.5t-23.5 77.5v901q0 50 23.5 78.5t64.5 28.5t65.5 -29t24.5 -78v-317zM741 1434q0 -21 -15 -40t-84 -47l-162 -66q-91 -38 -116 -38q-34 0 -55.5 28t-21.5 58q0 21 14.5 39.5t84.5 47.5l161 66q92 38 116 38q35 0 56.5 -28.5t21.5 -57.5z" />
    <glyph glyph-name="afii10110" unicode="&#x45e;" horiz-adv-x="879" 
d="M434 1229q-97 0 -186.5 58.5t-89.5 139.5q0 32 17.5 53t45.5 21q27 0 74 -45q47 -46 78 -59t61 -13t61 13t78 59q47 45 74 45q28 0 46 -21t18 -53q0 -81 -90 -139.5t-187 -58.5zM186 1024l250 -735h4l252 731q30 82 92 82q37 0 60.5 -24.5t23.5 -59.5q0 -27 -12 -62
l-420 -1167q-84 -238 -289 -238q-96 0 -96 82q0 28 12.5 44.5t55.5 23.5q55 9 90 35.5t69 114.5l74 192l-323 905q-19 52 -19 72q0 34 24 58t60 24q66 0 92 -78z" />
    <glyph glyph-name="afii10193" unicode="&#x45f;" horiz-adv-x="1094" 
d="M797 164v831q0 50 23 78.5t65 28.5t66 -28.5t24 -78.5v-899q0 -96 -90 -96h-252v-199q0 -106 -86 -106t-86 106v199h-260q-39 0 -60.5 21.5t-21.5 56.5v917q0 50 23.5 78.5t64.5 28.5t65.5 -29t24.5 -78v-831h500z" />
    <glyph glyph-name="afii10050" unicode="&#x490;" horiz-adv-x="889" 
d="M717 1458v250q0 107 88 107t88 -107v-334q0 -36 -26 -59t-68 -23h-494v-1196q0 -108 -90 -108t-90 108v1272q0 39 26 64.5t64 25.5h502z" />
    <glyph glyph-name="afii10098" unicode="&#x491;" horiz-adv-x="735" 
d="M573 1090v196q0 107 86 107t86 -107v-278q0 -84 -90 -84h-358v-830q0 -49 -24.5 -77.5t-65.5 -28.5t-64.5 28.5t-23.5 77.5v918q0 34 21.5 56t60.5 22h372z" />
    <glyph glyph-name="endash" unicode="&#x2013;" horiz-adv-x="1024" 
d="M946 471h-868q-32 0 -55 23t-23 55t23 55t55 23h868q32 0 55 -23t23 -55t-23 -55t-55 -23z" />
    <glyph glyph-name="emdash" unicode="&#x2014;" horiz-adv-x="2048" 
d="M0 627h2048q32 0 55 -23t23 -55t-23 -55t-55 -23h-2048q-32 0 -55 23t-23 55t23 55t55 23z" />
    <glyph glyph-name="quoteleft" unicode="&#x2018;" 
d="M51 1094q0 31 41 111l78 153q37 72 58 92t57 20q33 0 57.5 -22.5t24.5 -54.5t-41 -112l-78 -153q-37 -72 -58 -92t-57 -20q-33 0 -57.5 22.5t-24.5 55.5z" />
    <glyph glyph-name="quoteright" unicode="&#x2019;" 
d="M51 1094q0 31 41 111l78 153q37 72 58 92t57 20q33 0 57.5 -22.5t24.5 -54.5t-41 -112l-78 -153q-37 -72 -58 -92t-57 -20q-33 0 -57.5 22.5t-24.5 55.5z" />
    <glyph glyph-name="quotesinglbase" unicode="&#x201a;" 
d="M51 -180q0 31 41 112l78 152q37 72 58 92.5t57 20.5q33 0 57.5 -23t24.5 -55t-41 -112l-78 -153q-37 -72 -58 -92t-57 -20q-33 0 -57.5 22.5t-24.5 55.5z" />
    <glyph glyph-name="quotedblleft" unicode="&#x201c;" horiz-adv-x="684" 
d="M330 1094q0 31 41 111l77 153q37 72 58 92t57 20q33 0 57.5 -22.5t24.5 -54.5t-41 -112l-77 -153q-37 -72 -58 -92t-57 -20q-34 0 -58 22.5t-24 55.5zM39 1094q0 31 41 111l77 153q37 72 58 92t57 20q34 0 58 -22.5t24 -54.5t-41 -112l-77 -153q-37 -72 -58 -92t-57 -20
q-33 0 -57.5 22.5t-24.5 55.5z" />
    <glyph glyph-name="quotedblright" unicode="&#x201d;" horiz-adv-x="684" 
d="M330 1094q0 31 41 111l77 153q37 72 58 92t57 20q33 0 57.5 -22.5t24.5 -54.5t-41 -112l-77 -153q-37 -72 -58 -92t-57 -20q-34 0 -58 22.5t-24 55.5zM39 1094q0 31 41 111l77 153q37 72 58 92t57 20q34 0 58 -22.5t24 -54.5t-41 -112l-77 -153q-37 -72 -58 -92t-57 -20
q-33 0 -57.5 22.5t-24.5 55.5z" />
    <glyph glyph-name="quotedblbase" unicode="&#x201e;" horiz-adv-x="684" 
d="M330 -180q0 31 41 112l77 152q37 72 58 92.5t57 20.5q33 0 57.5 -23t24.5 -55t-41 -112l-77 -153q-37 -72 -58 -92t-57 -20q-34 0 -58 22.5t-24 55.5zM39 -180q0 31 41 112l77 152q37 72 58 92.5t57 20.5q34 0 58 -23t24 -55t-41 -112l-77 -153q-37 -72 -58 -92t-57 -20
q-33 0 -57.5 22.5t-24.5 55.5z" />
    <glyph glyph-name="dagger" unicode="&#x2020;" horiz-adv-x="1253" 
d="M543 963v419q0 88 84 88t84 -88v-419h399q88 0 88 -84t-88 -84h-399v-1149q0 -88 -84 -88t-84 88v1149h-400q-88 0 -88 84t88 84h400z" />
    <glyph glyph-name="daggerdbl" unicode="&#x2021;" horiz-adv-x="1253" 
d="M543 193v643h-400q-88 0 -88 84t88 84h400v378q0 88 84 88t84 -88v-378h399q88 0 88 -84t-88 -84h-399v-643h399q88 0 88 -84t-88 -84h-399v-379q0 -88 -84 -88t-84 88v379h-400q-88 0 -88 84t88 84h400z" />
    <glyph glyph-name="bullet" unicode="&#x2022;" horiz-adv-x="1024" 
d="M512 365q-150 0 -257.5 107t-107.5 257t107.5 257.5t257.5 107.5t257.5 -107.5t107.5 -257.5t-107 -257t-258 -107z" />
    <glyph glyph-name="ellipsis" unicode="&#x2026;" horiz-adv-x="2048" 
d="M342 -12q-43 0 -73.5 30.5t-30.5 73.5t30.5 74t73.5 31t73.5 -31t30.5 -74t-30.5 -73.5t-73.5 -30.5zM1024 -12q-43 0 -73.5 30.5t-30.5 73.5t30.5 74t73.5 31t73.5 -31t30.5 -74t-30.5 -73.5t-73.5 -30.5zM1706 -12q-43 0 -73.5 30.5t-30.5 73.5t30.5 74t73.5 31
t73.5 -31t30.5 -74t-30.5 -73.5t-73.5 -30.5z" />
    <glyph glyph-name="perthousand" unicode="&#x2030;" horiz-adv-x="2238" 
d="M432 119l545 1306q26 62 72 62q32 0 51.5 -17t19.5 -38q0 -24 -28 -93l-545 -1306q-27 -62 -76 -62q-31 0 -49.5 16.5t-18.5 39.5t29 92zM717 1124q0 -149 -85 -247.5t-226 -98.5q-142 0 -227 98.5t-85 247.5q0 150 85 248t227 98q141 0 226 -98t85 -248zM229 1124
q0 -102 46.5 -168.5t130.5 -66.5q83 0 129.5 66.5t46.5 168.5q0 103 -46.5 169.5t-129.5 66.5q-84 0 -130.5 -66.5t-46.5 -169.5zM1427 334q0 -150 -84.5 -248t-226.5 -98t-226.5 98t-84.5 248q0 149 84.5 247.5t226.5 98.5t226.5 -98.5t84.5 -247.5zM940 334
q0 -103 46 -169.5t130 -66.5t130 66.5t46 169.5t-46 169t-130 66t-130 -66t-46 -169zM2144 334q0 -150 -84.5 -248t-226.5 -98t-226.5 98t-84.5 248q0 149 84.5 247.5t226.5 98.5t226.5 -98.5t84.5 -247.5zM1657 334q0 -103 46 -169.5t130 -66.5t130 66.5t46 169.5t-46 169
t-130 66t-130 -66t-46 -169z" />
    <glyph glyph-name="guilsinglleft" unicode="&#x2039;" horiz-adv-x="530" 
d="M88 549l135 243q72 130 81 142.5t23.5 22.5t32.5 10q34 0 58 -19.5t24 -52.5q0 -26 -26 -70l-166 -276q171 -285 181.5 -304.5t10.5 -41.5q0 -33 -24 -52.5t-58 -19.5q-40 0 -69 53z" />
    <glyph glyph-name="guilsinglright" unicode="&#x203a;" horiz-adv-x="530" 
d="M442 549l-135 -244q-72 -129 -81 -142t-23.5 -22.5t-32.5 -9.5q-34 0 -58 19.5t-24 52.5q0 26 26 70l167 276q-172 285 -182.5 304t-10.5 42q0 34 25 53t57 19q41 0 69 -52z" />
    <glyph glyph-name="fraction" unicode="&#x2044;" horiz-adv-x="344" 
d="M-158 119l545 1306q26 62 72 62q33 0 52 -17t19 -38q0 -24 -28 -93l-545 -1306q-26 -62 -76 -62q-30 0 -48.5 16.5t-18.5 39.5t28 92z" />
    <glyph glyph-name="fraction" unicode="&#x2215;" horiz-adv-x="344" 
d="M-158 119l545 1306q26 62 72 62q33 0 52 -17t19 -38q0 -24 -28 -93l-545 -1306q-26 -62 -76 -62q-30 0 -48.5 16.5t-18.5 39.5t28 92z" />
    <glyph glyph-name="Euro" unicode="&#x20ac;" horiz-adv-x="1139" 
d="M399 672h357q84 0 84 -68q0 -67 -84 -67h-344q18 -186 105.5 -290t223.5 -104q117 0 244 109q26 22 49 22q30 0 56 -24.5t26 -59.5q0 -75 -109.5 -138.5t-267.5 -63.5q-205 0 -340 143.5t-178 405.5h-104q-84 0 -84 67q0 68 84 68h92q-2 17 -2 57q0 53 2 76h-92
q-84 0 -84 67q0 68 84 68h106q47 256 189 393t325 137q156 0 255.5 -68.5t99.5 -144.5q0 -39 -24.5 -62.5t-59.5 -23.5q-26 0 -72 48q-61 61 -107 78.5t-92 17.5q-121 0 -212 -105.5t-109 -269.5h340q84 0 84 -68q0 -67 -84 -67h-355q-2 -23 -2 -76v-57z" />
    <glyph glyph-name="afii61352" unicode="&#x2116;" horiz-adv-x="2208" 
d="M1374 1073q0 169 104 286.5t273 117.5q170 0 274.5 -118t104.5 -290q0 -167 -104.5 -284t-274.5 -117q-169 0 -273 117.5t-104 287.5zM1960 1069q0 118 -56 195t-153 77q-96 0 -152.5 -76.5t-56.5 -191.5t57 -192.5t152 -77.5q96 0 152.5 76.5t56.5 189.5zM1202 1362
v-1268q0 -106 -88 -106q-31 0 -53 15t-53 63l-699 1056h-4v-1026q0 -108 -90 -108t-90 108v1272q0 49 25.5 75.5t64.5 26.5q61 0 113 -77l690 -1047h4v1016q0 108 90 108t90 -108zM1495 520h516q39 0 64.5 -23t25.5 -57t-25.5 -57t-64.5 -23h-516q-40 0 -65 23t-25 57
q0 35 25 57.5t65 22.5z" />
    <glyph glyph-name="trademark" unicode="&#x2122;" horiz-adv-x="2028" 
d="M971 688v645q0 137 129 137q107 0 137 -78l205 -536l200 533q16 42 49.5 61.5t88.5 19.5q129 0 129 -137v-645q0 -32 -23 -55t-55 -23t-55 23t-23 55v590h-4l-148 -395q-78 -211 -87.5 -230t-28 -31t-45.5 -12q-22 0 -37.5 7.5t-27.5 23.5t-45 103l-200 534h-4v-590
q0 -32 -22.5 -55t-54.5 -23q-33 0 -55.5 23t-22.5 55zM379 698v625h-195q-65 0 -65 68q0 67 65 67h557q66 0 66 -67q0 -68 -66 -68h-194v-625q0 -88 -84 -88t-84 88z" />
    <glyph glyph-name="Ohm" unicode="&#x2126;" horiz-adv-x="1573" 
d="M496 160q-346 214 -346 643q0 307 177 503.5t482 196.5q292 0 468.5 -196.5t176.5 -505.5q0 -414 -344 -641l365 6v-166h-576v176q169 86 258.5 244t89.5 356q0 248 -117 405.5t-325 157.5q-209 0 -326 -155.5t-117 -403.5q0 -208 87.5 -366t255.5 -234v-180h-578v168z
" />
    <glyph glyph-name="partialdiff" unicode="&#x2202;" horiz-adv-x="1012" 
d="M426 1139l-135 59q136 293 360 293q159 0 240.5 -150t81.5 -415q0 -273 -82 -500.5t-231.5 -339t-294.5 -111.5t-227.5 95t-82.5 252q0 282 211 437.5t592 164.5q-4 243 -55.5 341.5t-149.5 98.5q-143 0 -227 -225zM854 797q-250 -13 -367.5 -75.5t-184 -181.5
t-66.5 -237q0 -76 48.5 -133t121.5 -57q133 0 270 157.5t178 526.5z" />
    <glyph glyph-name="increment" unicode="&#x2206;" horiz-adv-x="1253" 
d="M1227 0h-1200l628 1386zM991 82l-399 967l-440 -967h839z" />
    <glyph glyph-name="product" unicode="&#x220f;" horiz-adv-x="1686" 
d="M162 1491h1362v-1921h-193v1747h-977v-1747h-192v1921z" />
    <glyph glyph-name="summation" unicode="&#x2211;" horiz-adv-x="1460" 
d="M139 1491h1237v-164h-989l608 -774l-649 -823h1040v-160h-1263v186l618 789l-602 772v174z" />
    <glyph glyph-name="minus" unicode="&#x2212;" horiz-adv-x="1229" 
d="M1044 434h-860q-88 0 -88 84t88 84h860q89 0 89 -84t-89 -84z" />
    <glyph glyph-name="periodcentered" unicode="&#x2219;" horiz-adv-x="512" 
d="M256 510q-46 0 -78.5 32.5t-32.5 78.5q0 45 32.5 77.5t78.5 32.5t78.5 -32.5t32.5 -77.5q0 -47 -32.5 -79t-78.5 -32z" />
    <glyph glyph-name="radical" unicode="&#x221a;" horiz-adv-x="1124" 
d="M1124 1870l-311 -1948l-496 1022l-198 -92l-35 63l301 152l403 -823h5l258 1626h73z" />
    <glyph glyph-name="infinity" unicode="&#x221e;" horiz-adv-x="1460" 
d="M688 811q104 135 179 184t155 49q133 0 211 -89t78 -232q0 -190 -94.5 -263t-194.5 -73q-80 0 -155 49t-179 185q-134 -172 -289 -172q-104 0 -174.5 79t-70.5 189q0 108 70.5 187t174.5 79q155 0 289 -172zM758 717q137 -217 262 -217q83 0 130.5 59.5t47.5 153.5
q0 98 -48 158.5t-134 60.5q-101 0 -258 -215zM621 717q-122 155 -222 155q-61 0 -98 -43.5t-37 -109.5t38 -111t99 -45q104 0 220 154z" />
    <glyph glyph-name="integral" unicode="&#x222b;" horiz-adv-x="561" 
d="M201 895l16 561q3 112 28 208.5t73 148t116 51.5q48 0 87.5 -32t39.5 -77q0 -43 -26.5 -72.5t-67.5 -29.5q-33 0 -74 33q-27 22 -41 22q-41 0 -41 -63q0 -28 11 -146q36 -376 36 -633q0 -137 -7.5 -340.5t-9 -306t-22.5 -210t-71.5 -168t-128.5 -60.5q-53 0 -86 33.5
t-33 87.5q0 42 24 70t66 28q38 0 74 -37q26 -26 45 -26q39 0 39 61q0 21 -10 119q-37 313 -37 739v39z" />
    <glyph glyph-name="approxequal" unicode="&#x2248;" horiz-adv-x="1124" 
d="M51 737v205q104 121 279 121q98 0 268 -72q145 -61 217 -61q133 0 258 137v-213q-119 -115 -276 -115q-96 0 -257 71q-148 64 -229 64q-124 0 -260 -137zM51 377v205q105 118 279 118q100 0 276 -73q142 -60 209 -60q133 0 258 138v-213q-117 -113 -276 -113
q-96 0 -257 69q-148 64 -229 64q-123 0 -260 -135z" />
    <glyph glyph-name="notequal" unicode="&#x2260;" horiz-adv-x="1124" 
d="M496 418l-195 -447h-135l194 447h-282v168h356l121 276h-477v168h551l196 445h133l-194 -445h283v-168h-357l-121 -276h478v-168h-551z" />
    <glyph glyph-name="lessequal" unicode="&#x2264;" horiz-adv-x="1124" 
d="M78 762v168l971 409v-180l-770 -313l770 -320v-180zM1047 106h-969v166h969v-166z" />
    <glyph glyph-name="greaterequal" unicode="&#x2265;" horiz-adv-x="1124" 
d="M1049 762l-971 -416v180l768 320l-768 313v180l971 -409v-168zM1047 106h-969v166h969v-166z" />
    <glyph glyph-name="lozenge" unicode="&#x25ca;" horiz-adv-x="1012" 
d="M549 1421l418 -712l-418 -709h-111l-391 709l391 712h111zM496 1325l-340 -616l340 -615l358 615z" />
    <glyph glyph-name="apple" unicode="&#xf000;" horiz-adv-x="1024" 
d="M512 365q-150 0 -257.5 107t-107.5 257t107.5 257.5t257.5 107.5t257.5 -107.5t107.5 -257.5t-107 -257t-258 -107z" />
    <glyph glyph-name="pi1" unicode="&#xf006;" horiz-adv-x="1413" 
d="M506 915v-915h-180v915h-281v148h1323v-148h-242v-915h-180v915h-440z" />
    <glyph glyph-name="dotlessj" unicode="&#xf6be;" 
d="M299 -346q0 -96 -90 -96t-90 96v1352q0 96 90 96t90 -96v-1352z" />
    <glyph glyph-name="commaaccent" unicode="&#xf6c3;" horiz-adv-x="367" 
d="M141 -143q26 65 80 65q72 0 72 -69q0 -26 -17 -58l-67 -149q-30 -66 -78 -66q-70 0 -70 66q0 18 19 61z" />
    <glyph glyph-name="fi" unicode="&#xfb01;" horiz-adv-x="948" 
d="M356 934v-850q0 -45 -24 -70.5t-66 -25.5q-41 0 -65.5 26t-24.5 70v850h-74q-90 0 -90 78t90 78h74v256q0 109 66.5 172t173.5 63h55q40 0 71 -22t31 -56q0 -78 -98 -78h-45q-74 0 -74 -71v-264h113q90 0 90 -78t-90 -78h-113zM739 1249q-46 0 -78 32.5t-32 78.5t32 78
t78 32t78.5 -32t32.5 -78t-32.5 -78.5t-78.5 -32.5zM829 1006v-922q0 -44 -24 -70t-66 -26q-41 0 -65.5 26t-24.5 70v922q0 44 24.5 70t65.5 26q42 0 66 -26t24 -70z" />
    <glyph glyph-name="fl" unicode="&#xfb02;" horiz-adv-x="948" 
d="M356 934v-850q0 -45 -24 -70.5t-66 -25.5q-41 0 -65.5 26t-24.5 70v850h-74q-90 0 -90 78t90 78h74v256q0 109 66.5 172t173.5 63h55q40 0 71 -22t31 -56q0 -78 -98 -78h-45q-74 0 -74 -71v-264h113q90 0 90 -78t-90 -78h-113zM829 1485v-1401q0 -44 -24 -70t-66 -26
q-41 0 -65.5 26t-24.5 70v1401q0 44 24.5 70t65.5 26q42 0 66 -26t24 -70z" />
    <glyph glyph-name="caron.alt" horiz-adv-x="381" 
d="M164 1470q29 70 84 70q76 0 76 -74q0 -24 -17 -59l-88 -197q-31 -69 -82 -69q-76 0 -76 67q0 17 19 62z" />
    </font>
</defs>
</svg>
